<svg id="Laag_1" data-name="Laag 1" xmlns="http://www.w3.org/2000/svg" viewBox="0 0 154.53 182.82">
  <defs>
    <style>
      .cls-1, .cls-14 {
        fill: #463f31;
      }

      .cls-1 {
        stroke: #292e2f;
        stroke-miterlimit: 10;
        stroke-width: 10px;
      }

      .cls-2 {
        fill: #4b4230;
      }

      .cls-3 {
        fill: #4b4231;
      }

      .cls-4 {
        fill: #36332b;
      }

      .cls-5 {
        fill: #38352c;
      }

      .cls-6 {
        fill: #3a3935;
      }

      .cls-7 {
        fill: #3d3a34;
      }

      .cls-8 {
        fill: #47443c;
      }

      .cls-9 {
        fill: #4b4330;
      }

      .cls-10 {
        fill: #44423d;
      }

      .cls-11 {
        fill: #383530;
      }

      .cls-12 {
        fill: #3c362c;
      }

      .cls-13 {
        fill: #393429;
      }
    </style>
  </defs>
  <g>
    <path class="cls-1" d="M145.56,41.69C142,36.11,139,30,134.73,25.07c-9-10.4-19.62-20.7-33.9-20.08C86.19,5.62,71,8.17,58.5,17.71h0c-3.19,1.66-6.64,2.94-8.88,6h0c-9.89,5.92-18.81,12.91-24.9,23l1.14-.63a2.62,2.62,0,0,1-1.14.63l-1.23,1.53c-1.45,3.79-4.67,6.15-7.3,9-3,1.86-4.45,4.72-5,8.12-1,5-3.08,9.74-4.67,14.6a94.08,94.08,0,0,0,.79,36.89s2.08,3.82,3.83,5a2.08,2.08,0,0,0-.21.21c.45,4.7,1.76,4.81,2,7.4l0,5.77h0C9.66,142.14,9.38,149.68,9,157.06c-.19,4-.27,9.08,5.91,9.73L21.63,169h0c19.91,6.37,40.36,8.84,61.2,8.53h0l10.45.26h0c6.12-3.54,8.45-9.66,10.78-15.79a32,32,0,0,0,4.82-10.57c5-9.58,9.51-19.39,12.24-29.92h0c13.7-12.64,19-29.7,24.63-46.62a4.17,4.17,0,0,0,.4-1.06C150.26,63.06,151.53,52.35,145.56,41.69Zm-3.66,37,.08-.19a.34.34,0,0,0,.1,0C142.76,78.4,142.37,78.7,141.9,78.72Z" transform="translate(-0.11 0.04)"/>
    <path class="cls-2" d="M82.83,177.48c-20.84.31-41.29-2.16-61.2-8.53,4-2.65,7.89,0,9.77.28-4.24.19-9.87-4.55-16.46-2.44-6.18-.65-6.1-5.74-5.91-9.73.35-7.38.63-14.92,3.92-21.84,14.16,20.73,33.51,26.53,57.32,20.4a126.93,126.93,0,0,0,27.45-10.21c3.14-1.65,6.77-5.06,10.24-2.09s-1.22,6.06-1.61,9.23a11.1,11.1,0,0,1-.49,1.65c-.7,2.62-1,5.32-1.91,7.9l.11-.15c-5.13,2.79-5,9.17-8.85,12.87C91.48,177.56,86.72,175.51,82.83,177.48Z" transform="translate(-0.11 0.04)"/>
    <path class="cls-3" d="M145.75,74.84c-5.6,16.92-10.93,34-24.63,46.62-10.21,11.3-21.63,21.1-36.05,26.52-12.44,4.68-25.17,8.22-38.81,6.33-7.85-1.08-12.92-5.94-17.53-11.62-1.23-1.51-2.83-3.42-1.06-5.35,1.31-1.42,3.21-.76,4.84,0C42.58,142.2,53.36,140.76,64,141c4.52.09,8.21-2.49,12.38-3.47,14.86-5.2,24.71-16.8,34.31-28.17,10.8-12.81,19.32-27.21,22.69-44,.12-1.75.23-3.88,2.09-4.35s2.86,1.5,3.58,3.05c2.1,4.5,1.7,9.42,2.12,14.21.24,1.12,2.09.15,1,.36-.45.08-.56-.13-.63-.6-.52-3.46.14-6.18,4.17-6.9A3.47,3.47,0,0,1,145.75,74.84Z" transform="translate(-0.11 0.04)"/>
    <path class="cls-4" d="M77.63,139.19c-16.42,5.45-32.74,5.25-49.46-1.77,9.66,15.75,18.73,17.77,40.6,13.13,20.08-4.26,36.86-14,49.77-30.17,1.58-2,2.27-.6,2.58,1.08-2.73,10.53-7.2,20.34-12.24,29.92-1.29,1.85-2.56,3.76-5.14,1.72-.2-3.54,5.36-4.68,3.62-9.71-11.61,5.18-22.47,11.45-34.83,14.12-15.28,3.3-30.47,5.4-44.24-4.06-6.57-4.52-14.76-8.37-15.34-18.23l0-5.77c-.2-2.59-3.09-4.46-2-7.4a1.5,1.5,0,0,1,2.27-.26c16.5,17.39,36.76,20.6,59.17,15.65C74.6,136.67,77,135.14,77.63,139.19Z" transform="translate(-0.11 0.04)"/>
    <path class="cls-5" d="M145.24,71.29c-1.37,3-2.73,6.06-4.19,9.32C136.73,75.51,140,69,137,64c-.49-.81-.54-2.82-1.7-.47a7,7,0,0,0-.21,2.53c-4.63-1.31-2.42-4.32-1.74-7,5.85-29.6-7.67-42.54-35.6-46.09-12.32-1.57-22.66,4.66-34.11,6.21-2.21.3-4.37,2.41-5.1-1.52C71,8.17,86.19,5.62,100.83,5c14.28-.62,24.89,9.68,33.9,20.08C139,30,142,36.11,145.56,41.69,149,51.6,150.12,61.48,145.24,71.29Z" transform="translate(-0.11 0.04)"/>
    <path class="cls-6" d="M13.23,121.79H11.5c-4.4.85-1.06-4.76-4.16-5a94.08,94.08,0,0,1-.79-36.89c1.59-4.86,3.63-9.57,4.67-14.6.52-3.4,1.94-6.26,5-8.12,2.63-2.83,5.85-5.19,7.3-9l1.23-1.53c2.29-.52,2.65-4.54,5.93-3.27.53,5.53-4.46,7.89-7.17,11.16C6.51,75.07,7.34,98,13.23,121.79Z" transform="translate(-0.11 0.04)"/>
    <path class="cls-3" d="M126,21C112.06,11.72,97,7.17,80.1,12.53a133.74,133.74,0,0,1-21.6,5.18c-3.19,1.66-6.64,2.94-8.88,6h0c-9.89,5.93-18.81,12.91-24.9,23l3.81-2.1a18.35,18.35,0,0,1-3.28,4.72C4.91,70.9,4.09,96.1,11.73,122.84c16.43,18.59,37.05,22,60.11,16.63C77,137,82.65,135.67,87.37,132c24.16-19,41.48-42.41,47.85-73C139.51,45.15,135.76,27.53,126,21Z" transform="translate(-0.11 0.04)"/>
    <path class="cls-7" d="M14.94,166.79c-1.33-3,.45-4,2.69-3,6.42,2.83,13.45,3.53,20.87,5.79-6.42,2.64-11.47-1.92-16.87-.62Z" transform="translate(-0.11 0.04)"/>
    <path class="cls-5" d="M145.24,71.29c3.64-9.83,2.2-19.71.32-29.6,6.17,11,4.62,22.08.19,33.15Z" transform="translate(-0.11 0.04)"/>
    <path class="cls-8" d="M95,174.05c2.31-4.57,1.22-11.7,9.09-12.1-2.33,6.13-4.66,12.25-10.78,15.79C92,175.69,93.87,175,95,174.05Z" transform="translate(-0.11 0.04)"/>
    <path class="cls-9" d="M11.22,65.32a21.32,21.32,0,0,1-4.67,14.6C7,74.71,8.11,69.69,11.22,65.32Z" transform="translate(-0.11 0.04)"/>
    <path class="cls-8" d="M103.74,153.1l5.14-1.72A31.8,31.8,0,0,1,104,162.1Z" transform="translate(-0.11 0.04)"/>
    <path class="cls-9" d="M7.34,116.81c3,.34,1.95,4,4.16,5,.47,2.55.95,5.1,1.42,7.65C9.41,126,8.28,121.43,7.34,116.81Z" transform="translate(-0.11 0.04)"/>
    <path class="cls-10" d="M23.49,48.22c-.09,4.9-3.3,7.26-7.3,9A26.28,26.28,0,0,1,23.49,48.22Z" transform="translate(-0.11 0.04)"/>
    <path class="cls-11" d="M95,174.05c-.57,1.23-1.13,2.46-1.69,3.69l-10.45-.26C86.4,174.64,91.1,175.84,95,174.05Z" transform="translate(-0.11 0.04)"/>
    <path class="cls-12" d="M133.31,59.11c.26,2.41-.8,5.13,1.74,7-9.19,32.2-27.59,57.15-57.42,73.12-1.25-2.05-3.32-1.68-5.23-1.75q47.84-24.59,59.79-77C132.31,59.91,132.93,59.54,133.31,59.11Z" transform="translate(-0.11 0.04)"/>
    <path class="cls-13" d="M62,60.87a2.88,2.88,0,0,0,.76-.4c4.94-4.92,10.69-7.32,16.84-3,3.76,2.63,1.58,15.15-2.64,18.8-6.3,5.45-12.7,4.94-18.46-1.49C55.84,69.18,58.61,65,62,60.87Z" transform="translate(-0.11 0.04)"/>
    <path class="cls-14" d="M62,60.87c-1.36,4.59-4.9,8.63-3.5,13.91C55.34,69.06,55.83,64.25,62,60.87Z" transform="translate(-0.11 0.04)"/>
    <path class="cls-14" d="M77.35,62.72c-1.67,3.87-3.09,8.13-8.33,8.43-2.92.18-5.66-1.4-4.89-4.38,1.15-4.46,4.21-8.17,9.17-8.62A3.92,3.92,0,0,1,77.35,62.72Z" transform="translate(-0.11 0.04)"/>
  </g>
</svg>
