<svg id="Laag_1" data-name="Laag 1" xmlns="http://www.w3.org/2000/svg" viewBox="0 0 340.25 334.31">
  <defs>
    <style>
      .cls-1 {
        fill: #2e3437;
      }

      .cls-2 {
        fill: #ebcb7a;
      }

      .cls-3 {
        fill: #a58440;
      }

      .cls-4 {
        fill: #f5dfa9;
      }

      .cls-5 {
        fill: #f3da9e;
      }

      .cls-6 {
        fill: #f9e7bb;
      }

      .cls-7 {
        fill: #f9e7ba;
      }

      .cls-8 {
        fill: #ebcb79;
      }

      .cls-9 {
        fill: #e9ca7c;
      }

      .cls-10 {
        fill: #aa8131;
      }

      .cls-11 {
        fill: #fae8bd;
      }

      .cls-12 {
        fill: #f4dca2;
      }

      .cls-13 {
        fill: #f3dca0;
      }

      .cls-14 {
        fill: #ecce7f;
      }

      .cls-15 {
        fill: #edcf83;
      }
    </style>
  </defs>
  <g>
    <path class="cls-1" d="M84.77,34.69c.08-.41.17-.59.13-.74C82.26,23.87,88,19.89,96.29,16.16c74-33.42,158.55-13.92,208.51,48.42a204.89,204.89,0,0,1,13.25,19.36,11.68,11.68,0,0,1,1.33,9.46c-1.28,5.66-2.35,11.36-3.54,17-.6,2.85.19,4.24,3.4,4.5,3.93.32,7.81,1.29,11.73,1.89,2,.3,2.14,1.88,2.52,3.27,11.26,40.17,8.56,79.3-9,117.25-2.77,6-9,6.5-14.35,7.34-3.95.61-6.32,2.14-8.19,5.43-2.22,3.89-4.81,7.57-7.18,11.39a7.61,7.61,0,0,1-3.7,3.23c-7.07,2.62-9.35,8.39-10.08,15.13a5.14,5.14,0,0,1-2.35,4.13,18.29,18.29,0,0,1-3.83,2.32c-9.49,3.27-13.82,10.36-14.69,19.86-.25,2.76-1.68,4-3.86,5.15q-92.82,48.72-182.21-6c-5.11-3.14-5.83-8.5-6.9-13.26A18.67,18.67,0,0,0,57.44,279C53,276.51,50.5,273.1,51,267.67c.44-4.47-3.05-6.11-6.5-6.88A106,106,0,0,0,31.2,259a7,7,0,0,1-5.87-3.81C8,227.09-1,196.61.09,163.66c1.79-55.12,25.54-99,69.68-131.91,4.13-3.09,7.83-3.07,11.42.68A5.75,5.75,0,0,0,84.77,34.69Z"/>
    <path class="cls-2" d="M179.06,5c51.52,2.5,97.22,29.5,128.28,81.18,3.67,6.09,1.07,12.66,1,19,0,3.59-2.33,7.32-1.18,10.77,1.33,4,6.05,2.56,9.15,3.8,4.44,1.78,7,4.18,8.14,9.26,8.09,35.58,4.9,70-9.39,103.52-2.18,5.12-5.34,8.1-11.06,8.59a12.79,12.79,0,0,0-9.78,6.21c-2.61,4-5.34,8-7.88,12.13a6.67,6.67,0,0,1-3.25,2.95c-7.78,2.93-10.06,9.52-11.07,16.81a4.74,4.74,0,0,1-2.56,3.89c-2.32,1.31-4.64,2.61-6.91,4-3.94,2.44-7.18,5.28-7.19,10.55,0,4.31-2.19,7.15-6.14,9.33-55.91,30.91-110.92,29.33-165.15-4.25-2.38-1.47-4-3.26-4.41-6.24-1.09-9.06-5.62-15.84-13.75-20.14-3.55-1.87-5.32-4.52-5.1-8.82.24-4.56-4.77-9.81-11.19-10.13-10.89-.55-16-6.82-20.56-15.73C-6.53,172.42,12.4,86,73.84,38.43c2.62-2,4.48-2.27,6.89-.17a21.5,21.5,0,0,0,3.73,2.5c6.11,3.43,10,1.42,9.11-5.41-1-7.94,2.1-11.8,9.15-15C124.28,10.58,146.64,5,179.06,5Z"/>
    <path class="cls-3" d="M169.35,33.89c35.94-.1,67.34,11.66,93.94,36,22.25,20.4,35.89,45.41,40.5,75.24,5.65,36.48-2.49,69.89-24.56,99.26-21.25,28.27-49.88,45.68-84.91,51.46-42.08,6.95-80.47-2.31-113.38-29.77-24.56-20.48-39.73-47-45.15-78.78C30.28,155,36.59,125,53.42,97,60.7,84.9,70.58,75.1,80.92,65.64c18.27-16.7,40.13-25.53,64.05-30.1C153,34,161.16,33.91,169.35,33.89Z"/>
    <path class="cls-4" d="M299.72,94.54c-.26,2-.66,4.93-1,7.87-.14,1.2-.19,2.4-1.78,2.5-1.86.13-2.17-1.13-2.18-2.58-.07-5.79-1.59-11.49-1-17.31A8.15,8.15,0,0,0,291,77.86c-5.5-4.94-8.63-11.68-13.23-17.31-.69-.84-1.16-1.69-.17-2.57.6-.54,1.15-.09,1.74.25C289.73,64.24,299.88,81.81,299.72,94.54Z"/>
    <path class="cls-5" d="M309.68,214c1.94-9.52,3.93-19,5.26-28.67.18-1.32,0-3.93,2.33-3.63,1.73.23,1.4,2.36,1.45,3.83.2,6.49-1.25,12.79-2.38,19.12-.69,3.84-1.72,7.61-2.59,11.42C312.26,215.61,310.74,215.23,309.68,214Z"/>
    <path class="cls-6" d="M218.89,308.12A35.48,35.48,0,0,0,233.23,299a47.83,47.83,0,0,1,4.7-4.42c1.41-1.09,3.45-2.55,4.9-1.11,1.72,1.7-.91,2.73-1.75,3.86-4.72,6.38-10,12.06-18.91,11.63A24.28,24.28,0,0,1,218.89,308.12Z"/>
    <path class="cls-7" d="M309.68,214c1.59.24,3.73-.61,4.07,2.07-.82,4.33-3.58,7.37-6.74,10.14a2.81,2.81,0,0,1-3.25.56c-1.53-.87-.38-2.13.11-3C305.72,220.43,307.73,217.21,309.68,214Z"/>
    <path class="cls-8" d="M65.75,235c-10.42-17.09-17.06-35.32-19.15-55.44C43,144.87,52.42,114,73.3,86.69c19.42-25.4,45.85-40.3,77.2-45.42,41.7-6.81,77.14,6.81,106.19,36.63,19.56,20.1,30.76,44.77,34.08,72.73C296,194.22,281.51,231,250,260.73c-20,18.82-44.44,29.24-72.21,31.38C144.34,294.68,115.49,284,90,262.87c.3-1,.26-2,.48-2.94.4-1.78.58-3.86,2.87-4.14,1.82-.22,3.12.91,3.79,2.63.37.95.73,2,1.91,2a14.42,14.42,0,0,1,6.68,1.65,46.12,46.12,0,0,0,6.43,3.38c-3.16-3.87-7.81-4.81-10-8.55-.55-5.68.88-6.79,6-4.64,1.48.62,2.81,1.61,4.57,2a26.43,26.43,0,0,1-7.88-5.25c-1-1.06-2.23-2.39-1-3.91,1-1.27,2.48-.52,3.66.06,2.25,1.1,4.16,2.77,6.78,4.13-2.71-2.13-5.33-3.61-7.71-5.45-2.67-2.06-2.94-5.05-3.35-8.66-1.76,1.24-2.23,4.2-4.74,3A5.35,5.35,0,0,1,95.23,234c-.3-2.07.8-4.23-.16-6.34-1.88.42-1.76,2-2.35,3.11-1.09,2-2.64,2.33-3.78.4s-2.15-2.91-4.3-2.16c-2.41.83.86,2.68-.63,3.74-.25.18-.43.48-.74.63-2.31.64-4-1.44-6.54-1.46.64,1.81,2.37,2.23,3.37,3.32,1.34,1.45,3.2,2.89,1.66,5.07s-3.51.9-5.21-.14a56.78,56.78,0,0,1-5.32-3.64C69.61,235.31,67.9,234.4,65.75,235Z"/>
    <path class="cls-6" d="M65.75,235c1.28-3.86,3.42-1.34,4.93-.44A93.09,93.09,0,0,1,78.29,240c1.08.81,2.07,1.09,2.94-.17.71-1,.17-1.92-.63-2.57-1.66-1.34-3.39-2.59-5.09-3.86-.77-.58-1.89-1-1.09-2.26a2.1,2.1,0,0,1,2.61-.87c2,.81,3.86,1.82,5.79,2.75,4.65,1.6,8.68,4.38,12.57,7.21,1.85,1.35,4.36,3.63,1.23,6.43-2.58,2.2-.87,3.84.72,5.49,1.86,1.57,4.22,2.58,5.49,4.82,3.18,2.1,6.4,4.17,9.53,6.35,1,.71,2.74,1.58,1.78,3-.8,1.21-2.44.57-3.65-.1-2.18-1.21-4.33-2.46-6.51-3.66a5.07,5.07,0,0,0-3.74-.93c-2.41.53-4.83.93-4.07-3.12.22-1.23-1.45-1.73-2.58-1.88-1.34-.19-1.6,1-1.69,2-.13,1.66,0,3.4-1.89,4.25l-3.18-2.94a4,4,0,0,1-1-2.21c-.66-5.23-.65-5.24-5-3.73A166.88,166.88,0,0,1,65.75,235Z"/>
    <path class="cls-9" d="M80.84,254c2.29,0,1-4.46,3.94-3.27,3.15,1.3,2.69,4.05,2.06,6.74a10.73,10.73,0,0,0,0,2.47A22.71,22.71,0,0,1,80.84,254Z"/>
    <path class="cls-10" d="M238.57,151.44c7.45-1.1,8.5-.42,9.87,7.09,1.74,9.54,1.38,19.18,1.16,28.82-.14,6-4.07,9.23-8.84,11.59-4.2,2.09-7,4.63-8,9.71-1.06,5.58-4.6,10-8.8,14.07-8.94,8.71-18.29,16.93-27.57,25.24a21.33,21.33,0,0,1-14.84,5.94c-10.33,0-20.65-.14-31,.16-5.31.15-8.1-3.68-11.37-6.45-10.92-9.23-21.28-19.09-29.91-30.59a21.89,21.89,0,0,1-3.11-4.49c-3.07-7.43-7.39-13.44-15.26-16.64-3.24-1.32-4.17-5-4.08-8.52.26-9.45-.51-18.9.87-28.37,1.17-8,4.57-10.11,11.44-5.73.2-2.58-1.83-3-3.3-3.77-2.77-1.5-5.92-2.54-8.23-4.56-.93-.82-7-.44-2.46-4.7.34-.32-1.63-1.92-2.85-2.4-2.93-1.14-3.4-4.13-3.7-6.31-.23-1.72,2.89-2.36,4.67-3,4.36-1.6,8.79-3,13.26-4.23,2.92-.8,4.82-1.92,4.26-5.41a5.85,5.85,0,0,1,2.15-5.37c11.31-9.49,21.14-20.74,33.76-28.65,8-5,17-7.4,26.26-8.7a5.76,5.76,0,0,1,2.48,0c14,4.66,29.5,4.73,42.13,13.69,8.79,6.24,17.78,12.19,26.53,18.48,5,3.61,6.23,7.59,4.32,12.75-.94,2.52,1.29,2.39,2.39,2.78,5,1.75,10.18,3,15.12,5,5.47,2.11,5.6,4.82,1,8.56-1.16,1-5.69,1.23-1.72,4.4a17.44,17.44,0,0,1-2.11,2A83,83,0,0,1,238.57,151.44Z"/>
    <path class="cls-11" d="M278.8,156C269.46,109.33,243,75.54,200.3,52.53c7.75.65,13.55,3.66,19,7C227.47,64.59,235.62,69.75,243,76a44.56,44.56,0,0,1,7.22,8.21,370.53,370.53,0,0,1,24,37.21c5.68,10.11,9.34,20.89,9.48,32.65.71,1,.47,2.23.42,3.36-.09,2.15-.89,4.18-3.35,4s-1.31-2.53-1.58-4A5.1,5.1,0,0,0,278.8,156Z"/>
    <path class="cls-12" d="M102.83,257l-6-3.94c1.65-2.62-1.17-4.61-1-7,2.86-3.78-1-5.32-2.87-6.22A49,49,0,0,1,82.82,233c2.31-2.2-1.65-2.8-1.12-4.61,1.67-.41,3.37-.91,5.1-1.24S90,227,89.56,229.3c-.22,1.15-.15,2.23,1.09,2.25s1-1.45,1.29-2.31a18.76,18.76,0,0,1,1.5-3.13,1.92,1.92,0,0,1,2.16-.86c1,.26,1.2,1.08,1.19,1.95a20.1,20.1,0,0,1-.47,5.92c-.71,2.27,1.2,3.67,2.72,4.17,2.67.87,1.39-1.83,1.91-2.9a1.88,1.88,0,0,1,1.9-1.26c.91,0,1.89.43,1.76,1.35-1.29,8.66,6.23,10.31,11.1,14.07a5.8,5.8,0,0,1,1.05,1,4.27,4.27,0,0,1,.36,1.13c-5.34.84-7.93-5-13.38-5.42,2.77,5.62,8.5,6.61,12.72,10-3.45,1.62-5.72-.41-8.1-1.54C103,251.21,103,251.16,102.83,257Z"/>
    <path class="cls-13" d="M278.8,156c1.64,1.11.36,3.26,1.7,4.61,3.9-.79,3.08-4,3.27-6.61,1.35,1.16,1.09,2.77.94,4.19-1.07,10.66.73,21.4-.95,32-.31,1.94-.47,4-3,3.47-2.16-.43-1.62-2.19-1.49-4,.69-9.42,1-18.85-.19-28.26C278.82,159.68,278.88,157.84,278.8,156Z"/>
    <path class="cls-14" d="M95.79,246c1,2.24,6.25,3.89,1,7C94.37,251,91.31,249,95.79,246Z"/>
    <path class="cls-15" d="M87.66,246.67a3.64,3.64,0,0,1-2.72-3.16,1.85,1.85,0,0,1,1.6-2.16,2.7,2.7,0,0,1,2.92,2.7A2.39,2.39,0,0,1,87.66,246.67Z"/>
  </g>
</svg>
