<svg id="Laag_1" data-name="Laag 1" xmlns="http://www.w3.org/2000/svg" viewBox="0 0 185.06 181.85">
  <defs>
    <style>
      .cls-1 {
        fill: #2f3437;
      }

      .cls-2 {
        fill: #373c3f;
      }

      .cls-3 {
        fill: #848686;
      }

      .cls-4 {
        fill: #e6cc84;
      }

      .cls-5 {
        fill: #9f854b;
      }

      .cls-6 {
        fill: #efdca6;
      }

      .cls-7 {
        fill: #f6e9c1;
      }

      .cls-8 {
        fill: #f6e7bf;
      }

      .cls-9 {
        fill: #f1dfad;
      }

      .cls-10 {
        fill: #f6e9c2;
      }

      .cls-11 {
        fill: #f3e3b6;
      }

      .cls-12 {
        fill: #ebd598;
      }

      .cls-13 {
        fill: #f2e1b2;
      }

      .cls-14 {
        fill: #efdca5;
      }

      .cls-15 {
        fill: #edd89d;
      }

      .cls-16 {
        fill: #ead495;
      }

      .cls-17 {
        fill: #f1e0ae;
      }

      .cls-18 {
        fill: #f7e9c3;
      }

      .cls-19 {
        fill: #e4cb86;
      }

      .cls-20 {
        fill: #e1c886;
      }

      .cls-21 {
        fill: #efdead;
      }

      .cls-22 {
        fill: #f3e4ba;
      }

      .cls-23 {
        fill: #f7eac4;
      }

      .cls-24 {
        fill: #f0dda9;
      }

      .cls-25 {
        fill: #f3e3b5;
      }

      .cls-26 {
        fill: #f3e4b7;
      }

      .cls-27 {
        fill: #efdca7;
      }

      .cls-28 {
        fill: #edd9a0;
      }

      .cls-29 {
        fill: #f0deab;
      }

      .cls-30 {
        fill: #edd89e;
      }

      .cls-31 {
        fill: #efdba5;
      }

      .cls-32 {
        fill: #eedba3;
      }

      .cls-33 {
        fill: #f1e0af;
      }

      .cls-34 {
        fill: #e8cf8a;
      }

      .cls-35 {
        fill: #e7cd87;
      }

      .cls-36 {
        fill: #f4e4b8;
      }

      .cls-37 {
        fill: #e8d08d;
      }

      .cls-38 {
        fill: #f5e6bb;
      }

      .cls-39 {
        fill: #e8d08b;
      }

      .cls-40 {
        fill: #f2e0b0;
      }

      .cls-41 {
        fill: #a58440;
      }
    </style>
  </defs>
  <g>
    <path class="cls-1" d="M47.76,17.76c-.36-4.78-.38-4.83,4-6.92C57,8.28,62.35,5.89,68.13,4.66A103.8,103.8,0,0,1,95.85,1.23a114.64,114.64,0,0,1,20,2.34,81.71,81.71,0,0,1,25.89,10.14,90.89,90.89,0,0,1,32.69,32.66,6.75,6.75,0,0,1,.79,5.4c-.74,3.07-1.28,6.18-1.91,9.28-.28,1.39.05,2.17,1.69,2.32,2.14.2,4.24.76,6.38,1,1.09.13,1.29.86,1.5,1.63,6.19,22,4.75,43.5-5,64.25-1.41,3-4.81,3.32-7.69,3.71a5.23,5.23,0,0,0-4.28,2.78c-1.26,2.19-2.7,4.27-4,6.42a4.48,4.48,0,0,1-2.29,1.84c-3.57,1.31-4.65,4.35-5.12,7.62a3.68,3.68,0,0,1-1.84,3.06,10.41,10.41,0,0,1-1.64,1c-5,1.74-7.38,5.52-7.87,10.58a3.49,3.49,0,0,1-2.21,3q-50.49,26.42-99.07-3.34c-2.33-1.44-2.87-3.74-3.32-5.95a12.19,12.19,0,0,0-6.6-9,4.44,4.44,0,0,1-2.53-4.72c.33-2.82-1.33-4-3.61-4.53a64.94,64.94,0,0,0-7.24-1,3.66,3.66,0,0,1-3-1.85C6,124.53,1,107.88,1.62,89.86c1-30,13.9-53.82,37.9-71.73,2.26-1.69,4.27-1.64,6.22.37a4,4,0,0,0,1.95,1.36A2,2,0,0,0,47.76,17.76Z" transform="translate(-1.57 -0.86)"/>
    <path class="cls-2" d="M115.89,3.57c-3.19.29-6.22-.77-9.32-1.16a110,110,0,0,0-24.67,0c-4.66.47-9.09,2.09-13.77,2.28,6-2.21,12.25-3,18.54-3.48C96.51.46,106.31.84,115.89,3.57Z" transform="translate(-1.57 -0.86)"/>
    <path class="cls-3" d="M47.76,17.76A2.06,2.06,0,0,1,48,20.1a.27.27,0,0,1-.21,0,.8.8,0,0,1-.13-.22Z" transform="translate(-1.57 -0.86)"/>
    <path class="cls-4" d="M111.85,5.34a93.89,93.89,0,0,1,28.78,12.37A89.6,89.6,0,0,1,168.52,47.3c2.09,3.57.64,7.22.8,10.83a7.11,7.11,0,0,1-.29,1.32c-.92,4.84-.91,4.8,3.86,6.32,2.64.83,4.47,2.12,5.19,5.32a89.73,89.73,0,0,1-5.18,56.32c-1.14,2.67-2.77,4.31-5.78,4.58a7.32,7.32,0,0,0-5.71,3.69c-1.34,2.15-2.81,4.22-4.13,6.38a4,4,0,0,1-2,1.7c-4.06,1.54-5.1,5.08-5.7,8.8a2.82,2.82,0,0,1-1.47,2.35c-1.19.65-2.36,1.34-3.52,2-2.25,1.35-4.09,3-4.08,5.92,0,2.39-1.29,3.86-3.41,5-30.32,16.75-60.16,15.9-89.59-2.24a5,5,0,0,1-2.63-3.85,13.22,13.22,0,0,0-7.25-10.5,4.8,4.8,0,0,1-2.93-5c.16-2.5-2.85-4.9-6.43-5.61-1.68-.34-3.35-.78-5-1.06a4,4,0,0,1-2.88-2.2A88.89,88.89,0,0,1,41.61,21.86c1.49-1.17,2.55-1.4,4-.13a10,10,0,0,0,2,1.35c3.19,1.75,5.37.64,4.87-2.83-.67-4.6,1.29-6.8,5.32-8.49,5.27-2.2,10.63-4.08,16-5.83A77.56,77.56,0,0,1,111.85,5.34Z" transform="translate(-1.57 -0.86)"/>
    <path class="cls-2" d="M111.85,5.34c-5.09-.56-10.11-1.57-15.26-1.73-7.71-.24-15.23,1-22.76,2.32,2.59-1.69,5.65-1.62,8.51-2.08A76.47,76.47,0,0,1,111,4.77,2.9,2.9,0,0,1,111.85,5.34Z" transform="translate(-1.57 -0.86)"/>
    <path class="cls-5" d="M93.64,19.29c19.45-.07,36.44,6.27,50.9,19.39,12.85,11.65,20.66,26.1,22.61,43.23,2.82,24.84-5.12,46-23.84,62.77-11.66,10.45-25.5,16.15-41.09,17.8-17.93,1.89-34.66-1.71-49.64-11.65-17.31-11.49-28-27.64-31.54-48.29-3.12-18.32.49-35.37,10.82-50.66C43.68,34.37,60.13,23.51,81.17,20A77.48,77.48,0,0,1,93.64,19.29Z" transform="translate(-1.57 -0.86)"/>
    <path class="cls-6" d="M174.92,102.59a82.76,82.76,0,0,1-2.69,15.79,1.62,1.62,0,0,1-.48-.53c-.22-.91-1.14-.76-1.72-1.12q1.36-7.07,2.72-14.14C173.48,101.48,174.2,101.48,174.92,102.59Z" transform="translate(-1.57 -0.86)"/>
    <path class="cls-7" d="M132.51,162.91c-2.82,3.49-5.8,6.64-11,5.62,3.44-1.62,6.13-4.2,8.87-6.69C131.4,161.48,132.71,160.65,132.51,162.91Z" transform="translate(-1.57 -0.86)"/>
    <path class="cls-8" d="M172.2,117.83l0,.55a9.84,9.84,0,0,1-3.69,5.51,1.51,1.51,0,0,1-1.77.29c-.81-.49-.17-1.15.08-1.64.84-1.6,1.77-3.15,2.66-4.72A2,2,0,0,1,172.2,117.83Z" transform="translate(-1.57 -0.86)"/>
    <path class="cls-9" d="M161.87,53.13c-1.06-1.54-.49-3.28-.48-4.91a7.52,7.52,0,0,0-1.69-5.43c.59-.73,1.4-.61,2.2-.56a13.32,13.32,0,0,1,2.15,6C162,49.29,163.16,51.74,161.87,53.13Z" transform="translate(-1.57 -0.86)"/>
    <path class="cls-10" d="M161.9,42.23c-.57.81-1.44.48-2.2.56-1.58-.84-2.3-2.42-3.26-3.8-.25-2.25,1-1.5,2.13-1.08C159.61,39.41,161.27,40.42,161.9,42.23Z" transform="translate(-1.57 -0.86)"/>
    <path class="cls-11" d="M161.87,53.13a27.84,27.84,0,0,0,0-2.89c-.17-1.71.69-2.18,2.19-2,0,.17,0,.35,0,.52a8.16,8.16,0,0,1,.23,3.64c-.06,1.87-.6,2-2.42.73Z" transform="translate(-1.57 -0.86)"/>
    <path class="cls-12" d="M174.92,102.59a1.77,1.77,0,0,0-2.17,0c.19-1.46-.2-3.87,1.85-3.56S174.48,101.37,174.92,102.59Z" transform="translate(-1.57 -0.86)"/>
    <path class="cls-9" d="M161.87,53.12c1.29.68,2.25.77,2.19-1.15,0-1.07,0-2.14,0-3.22,1.28,2.37.22,4.73,0,7.09-1,.71-1.63.35-2.18-.55Z" transform="translate(-1.57 -0.86)"/>
    <path class="cls-13" d="M132.51,162.91c-.19-1.46-1.35-.93-2.18-1.07.87-1.62,2.24-1.9,4-1.46A3.85,3.85,0,0,1,132.51,162.91Z" transform="translate(-1.57 -0.86)"/>
    <path class="cls-14" d="M154.8,36.28c-1-.42-1.17-1.39-1.63-2.18,0-1,.47-.91,1.11-.56a8.2,8.2,0,0,1,2.7,2.73C156.26,37,155.53,36.54,154.8,36.28Z" transform="translate(-1.57 -0.86)"/>
    <path class="cls-11" d="M154.8,36.28c.72-.59,1.46.24,2.18,0,.4.67,1.42.75,1.59,1.64-.86.07-2-.35-2.13,1.08A5.23,5.23,0,0,1,154.8,36.28Z" transform="translate(-1.57 -0.86)"/>
    <path class="cls-14" d="M161.87,55.29a3.72,3.72,0,0,0,2.18.55c-.11.88.35,2.27-1.22,2.06S162.1,56.21,161.87,55.29Z" transform="translate(-1.57 -0.86)"/>
    <path class="cls-15" d="M154.28,33.54a1.18,1.18,0,0,0-1.11.56,3.6,3.6,0,0,1-1.63-1.64c0-.94.46-.9,1.1-.55A3.6,3.6,0,0,1,154.28,33.54Z" transform="translate(-1.57 -0.86)"/>
    <path class="cls-16" d="M152.64,31.91a1.16,1.16,0,0,0-1.1.55c-.64-.49-2-1.11-1.21-1.81C151.36,29.71,152,31.11,152.64,31.91Z" transform="translate(-1.57 -0.86)"/>
    <path class="cls-17" d="M172.2,117.83h-2.69l.52-1.09C171.27,116.08,172.3,115.84,172.2,117.83Z" transform="translate(-1.57 -0.86)"/>
    <path class="cls-4" d="M37.35,128.69A70.21,70.21,0,0,1,27,98.81,69,69,0,0,1,37.14,54.23C47.75,36.93,63.49,26.91,83.2,23.32c18.87-3.44,35.9,1.7,50.85,13.34,13.76,10.72,21.87,25.1,25.09,42.18,3.66,19.43-.7,37.25-12.1,53.19-11.23,15.71-26.74,25-45.88,27.5C82.52,162,66,156.35,51.46,144.64A3.92,3.92,0,0,1,51,144a4.67,4.67,0,0,1-.1-2.29c.21-1.78,1.43-2.76,2.64-1.37,2.35,2.69,6.11,2.39,8.56,4.67-1.28-2-4-2.43-5-4.67-.21-1.16-.35-2.29,1.09-2.81,1.45-.09,2.41,1,3.64,1.47a5.53,5.53,0,0,0,1.51.45c-.31-.35-.77-.3-1.1-.51a36.3,36.3,0,0,1-4.31-3.08,2.44,2.44,0,0,1-.27-.74,1.59,1.59,0,0,1,.33-1.11c2.55-.7,3.74,1.82,5.7,2.34-1.54-1.7-4.08-2.38-5.38-4.5-.45-.87-.12-1.92-.63-2.82-.82,0-.6.95-1.08,1.27-1.48.47-2.27-.46-3-1.48a2.24,2.24,0,0,1-.21-1.17,13.67,13.67,0,0,0,.31-2.85c0-.35-.13-.76-.6-.55-.31.14-.38.56-.53.88-.55,1-.47,3-2.56,1.74a1.87,1.87,0,0,1-.35-.67c0-1-.58-1.1-1.42-.92s-1.1.44-.79,1.26a1,1,0,0,1-.58,1.3c-1.38.29-2.38-1.13-3.9-.84,1.11,1.25,2.84,1.72,3.41,3.34a1.73,1.73,0,0,1-1.14,1.87c-1.92.06-3-1.47-4.38-2.38C39.71,129.15,38.77,128.27,37.35,128.69Z" transform="translate(-1.57 -0.86)"/>
    <path class="cls-18" d="M57.5,140.64c1.86,1.25,3.73,2.48,5.58,3.75.42.29,1,.74.63,1.31a1.1,1.1,0,0,1-1.47.23c-1.28-.64-2.49-1.4-3.77-2.05-.7-.36-1.56-1-2.2-.81-1.36.31-2,.14-2.17-1.36-.11-.88-1.05-1.29-1.82-1.37-1-.09-.65.84-.77,1.4-1.24,2.58-1.95.34-2.84-.31a1.63,1.63,0,0,1-.14-.68c.06-.61.55-1.18.18-1.83a6.82,6.82,0,0,0-1.42-1.26c-1.08-.67-2.22-1.26-3.27-2a24.16,24.16,0,0,1-5.08-4.76l-1.59-2.22c.7-2.09,1.87-.71,2.66-.23,1.72,1.06,3.33,2.33,5,3.51a5.29,5.29,0,0,1,2.95,1.73c.54.44,1.13.79,1.7,1.17A21.11,21.11,0,0,1,52.83,137c.55.43,1.15.79,1.73,1.17C55.68,138.81,56.91,139.35,57.5,140.64Z" transform="translate(-1.57 -0.86)"/>
    <path class="cls-19" d="M47.71,137.37l1.56,1.12c.28.82-.24,1.45-.46,2.16v.54a.71.71,0,0,1,0,1.08A14.16,14.16,0,0,1,45.51,139C46,138.1,46.11,136.78,47.71,137.37Z" transform="translate(-1.57 -0.86)"/>
    <path class="cls-20" d="M38.94,130.91l5.49,4.31c.64.92.22,1.58-.52,2.16C42.18,135.28,40.08,133.47,38.94,130.91Z" transform="translate(-1.57 -0.86)"/>
    <path class="cls-21" d="M43.91,137.38c.17-.72.35-1.44.52-2.16l3.28,2.15c-1.25-.13-.93,1.81-2.2,1.67A4.32,4.32,0,0,1,43.91,137.38Z" transform="translate(-1.57 -0.86)"/>
    <path class="cls-22" d="M48.79,142.27c0-.36,0-.72,0-1.08.91.18,1.44,2.21,2.71.55A4.07,4.07,0,0,1,51,144,5.93,5.93,0,0,1,48.79,142.27Z" transform="translate(-1.57 -0.86)"/>
    <path class="cls-23" d="M153.18,84.65c-.7-3.06-1.24-6.17-2.13-9.18-2.18-7.39-6.71-13.54-10.91-19.84-1.75-2.63-3.74-5.1-5.45-7.76-2.51-3.89-6.27-6.4-9.76-9.23a80.65,80.65,0,0,0-12-7.78c.18-1.27.93-.85,1.64-.56,7.06,2.72,13,7.21,19,11.7,2.21,1.66,3.65,4,5.19,6.2,6.17,8.88,12.62,17.61,15.95,28.11a9.45,9.45,0,0,1,.68,4c.63,1-.17,2.21.59,3.15a1.5,1.5,0,0,1,.1,1.21C155.11,85.94,154.15,85.39,153.18,84.65Z" transform="translate(-1.57 -0.86)"/>
    <path class="cls-14" d="M155.9,92.26c1,2.8.53,5.66.33,8.5-.07,1-.22,1.95-.34,2.92-.49.76-1.12,1.61-2.06,1-.7-.43-.47-1.38-.11-2.11V92.26A1.6,1.6,0,0,1,155.9,92.26Z" transform="translate(-1.57 -0.86)"/>
    <path class="cls-24" d="M53.7,127.61v1.07l-.32.15a4.47,4.47,0,0,0-2.38.09,12.5,12.5,0,0,0-2.41.53c-1-.28-2-.53-2-1.83,1.23-1.19-.78-1.49-.61-2.51a26.59,26.59,0,0,1,2.86-.68c1.23-.16,2,.14,1,1.54-.17.26-.54.25-.71.51.24.14.49,0,.73,0,2.13,1.33,1.23-1.33,2.14-1.62C55.09,124.28,53.78,126.32,53.7,127.61Z" transform="translate(-1.57 -0.86)"/>
    <path class="cls-25" d="M52.59,137.39l-3.25-2.17a2.86,2.86,0,0,1,1-2.31c.91-.1,2,.5,2.69-.52,1-.27,1.68.3,2.43.74a6.75,6.75,0,0,1,2.54,2.08c0,.16,0,.33,0,.49a1.41,1.41,0,0,1,.2,1.6c-1.17.87-2.08.11-3-.47C54,135.43,53.28,136.26,52.59,137.39Z" transform="translate(-1.57 -0.86)"/>
    <path class="cls-10" d="M46.62,127.62l2.18,1.61a1.22,1.22,0,0,1,.37.76c-.09,1.14-.84,1.4-1.82,1.35a1.73,1.73,0,0,1-1.32-1l-4.65-3.46C43.54,125.06,45,127.12,46.62,127.62Z" transform="translate(-1.57 -0.86)"/>
    <path class="cls-15" d="M58.59,132,66,137.2c-3.81.41-5.27-2.81-8-3.06a.9.9,0,0,1-.22-.65,3.29,3.29,0,0,1,.48-1.32Z" transform="translate(-1.57 -0.86)"/>
    <path class="cls-26" d="M153.18,84.65c.9-.18,1.8.62,2.7,0,.6,1.71.16,3.47.24,5.21-1,1.19-1.66.28-2.4-.3a4.86,4.86,0,0,1,0-.54c-.7-1.2.19-2.62-.54-3.82Z" transform="translate(-1.57 -0.86)"/>
    <path class="cls-27" d="M55.35,136.29,58,137.38c.5-.14.66.06.54.54-1.73.36-.85,1.76-1.08,2.72l-3.28-2.15A4.09,4.09,0,0,1,55.35,136.29Z" transform="translate(-1.57 -0.86)"/>
    <path class="cls-9" d="M58.58,137.92l-.54-.54,0-1.67c1.74.45,2.89,1.83,4.32,2.77.29.59-.06.87-.54,1.08C60.52,139.5,59.63,138.55,58.58,137.92Z" transform="translate(-1.57 -0.86)"/>
    <path class="cls-28" d="M56.39,130.3c0-.53,0-1.06,0-1.59a1.06,1.06,0,1,1,2.12,0c0,1.06,0,2.13,0,3.19h0c-.84.36-1.23-.34-1.75-.74A1.58,1.58,0,0,1,56.39,130.3Z" transform="translate(-1.57 -0.86)"/>
    <path class="cls-29" d="M46,130.35l1.14.51c.46.6,1.63-.13,1.82,1a3.06,3.06,0,0,1-1.27,2.28L45,132Z" transform="translate(-1.57 -0.86)"/>
    <path class="cls-30" d="M153.72,102.59c-.3,2.4.89,1.83,2.17,1.09-.17.88.49,2-.7,2.59a1.18,1.18,0,0,1-1.46-.31A2.6,2.6,0,0,1,153.72,102.59Z" transform="translate(-1.57 -0.86)"/>
    <path class="cls-31" d="M56.39,130.3l.56.56a2.41,2.41,0,0,1-.83,1.11,1.22,1.22,0,0,1-.67.2c-.88-.3-2-.14-2.59-1a2.63,2.63,0,0,1,.82-2.43h0Z" transform="translate(-1.57 -0.86)"/>
    <path class="cls-29" d="M153.72,89.55l2.17.53a.76.76,0,0,1,0,1.1v1.08h-2.18Z" transform="translate(-1.57 -0.86)"/>
    <path class="cls-32" d="M53.7,127.61c-.15-1.15.58-2.84-1.65-2.74-.06-1.08.32-1.73,1.54-1.61,1.53.15.58,1.22.62,1.83C54.26,125.94,54.52,126.91,53.7,127.61Z" transform="translate(-1.57 -0.86)"/>
    <path class="cls-33" d="M114.55,30.3c-.61,0-1.25-.08-1.64.56a3.39,3.39,0,0,1-2.86-1.53A5.22,5.22,0,0,1,114.55,30.3Z" transform="translate(-1.57 -0.86)"/>
    <path class="cls-14" d="M155.9,91.18c0-.36,0-.73,0-1.1,0-1.81,0-3.63,0-5.44,0-.36,0-.72,0-1.07-.14-.14-.18-.26-.12-.38s.11-.18.16-.18A13,13,0,0,1,155.9,91.18Z" transform="translate(-1.57 -0.86)"/>
    <path class="cls-31" d="M58,133.58c0,.19,0,.37,0,.56v1.07l-2.73-1.61a1.74,1.74,0,0,1,.54-1.65h0C57.16,131.74,57.68,132.56,58,133.58Z" transform="translate(-1.57 -0.86)"/>
    <path class="cls-32" d="M61.85,139.56l.54-1.08a3.27,3.27,0,0,1,2.51,1.44C63.69,140.11,62.71,140.43,61.85,139.56Z" transform="translate(-1.57 -0.86)"/>
    <path class="cls-25" d="M49.91,126.49c-.37.63-.75,1.31-1.63.75a.94.94,0,0,1-.45-1.15c.57-1.19,1.38.14,2.06-.12C49.89,126.14,49.9,126.32,49.91,126.49Z" transform="translate(-1.57 -0.86)"/>
    <path class="cls-29" d="M153.18,85.19c1,1.15.34,2.55.54,3.82C152.71,87.85,153.39,86.46,153.18,85.19Z" transform="translate(-1.57 -0.86)"/>
    <path class="cls-26" d="M155.91,83c0,.18,0,.37,0,.56-.93-1-.37-2.19-.5-3.29C156.22,81.06,155.79,82.09,155.91,83Z" transform="translate(-1.57 -0.86)"/>
    <path class="cls-34" d="M55.35,136.29c-.14.86.33,2-1.13,2.2l-1.63-1.1c.16-.82-.44-2,.46-2.38S54.82,135.41,55.35,136.29Z" transform="translate(-1.57 -0.86)"/>
    <path class="cls-35" d="M47.72,134.12a2.94,2.94,0,0,1,1.08-2.18c1-.28,1.35.31,1.58,1.11a2.78,2.78,0,0,1-1,2.17Z" transform="translate(-1.57 -0.86)"/>
    <path class="cls-22" d="M48.81,140.65c.15-.72.31-1.44.46-2.16C50.34,139.47,49.31,140,48.81,140.65Z" transform="translate(-1.57 -0.86)"/>
    <path class="cls-36" d="M53.68,128.69l-.53,2.72a.5.5,0,0,1-.06.68,2.68,2.68,0,0,1-2.87-1.64,2.19,2.19,0,0,1,.75-1.76C51.87,126.81,52.78,128.25,53.68,128.69Z" transform="translate(-1.57 -0.86)"/>
    <path class="cls-37" d="M51,128.69c0,.61.1,1.25-.53,1.66s-1.19-.13-1.62-.62c0-.16,0-.33,0-.5C49.28,128.06,50.06,128.13,51,128.69Z" transform="translate(-1.57 -0.86)"/>
    <path class="cls-38" d="M48.82,129.73l1.62.62,2.69,1.6a.31.31,0,0,1,.14.33c0,.12-.06.18-.1.18-.29,3.22-1.75.88-2.78.59l-1.59-1.11-1.63-1.08C48,130.89,48.76,130.83,48.82,129.73Z" transform="translate(-1.57 -0.86)"/>
    <path class="cls-39" d="M53.17,132.46l0-.51c0-.18,0-.36,0-.54,1.08-.68,1.84.21,2.71.54,0,.61.1,1.25-.54,1.65Z" transform="translate(-1.57 -0.86)"/>
    <path class="cls-40" d="M58,133.58l-2.17-1.64A1,1,0,0,1,57,130.86l1.62,1.1C58.57,132.56,58.68,133.19,58,133.58Z" transform="translate(-1.57 -0.86)"/>
  </g>
  <g id="Icon_ionic-ios-home" data-name="Icon ionic-ios-home">
    <path id="Path_7371" data-name="Path 7371" class="cls-41" d="M94.64,59.15a.85.85,0,0,0-1.08,0L60,86a.91.91,0,0,0-.32.67V136a.43.43,0,0,0,.43.43h23.2a.43.43,0,0,0,.43-.43V106a.43.43,0,0,1,.43-.43H104a.43.43,0,0,1,.43.43V136a.43.43,0,0,0,.43.43H128a.43.43,0,0,0,.43-.43V86.63a.84.84,0,0,0-.32-.66Z" transform="translate(-1.57 -0.86)"/>
    <path id="Path_7372" data-name="Path 7372" class="cls-41" d="M137.65,80.66,97,48.13a4.71,4.71,0,0,0-5.89,0L73.47,62.5V53.44A.44.44,0,0,0,73,53H60.15a.44.44,0,0,0-.43.43V73.25l-9.18,7.54A3,3,0,0,0,50,85l.24.27a3,3,0,0,0,4,.21l39.52-31.8a.4.4,0,0,1,.28-.08.57.57,0,0,1,.28.08l39.51,31.67a3,3,0,0,0,4.92-2.4v-.11A3,3,0,0,0,137.65,80.66Z" transform="translate(-1.57 -0.86)"/>
  </g>
</svg>
