<svg id="Laag_1" data-name="Laag 1" xmlns="http://www.w3.org/2000/svg" viewBox="0 0 185.08 181.87">
  <defs>
    <style>
      .cls-1 {
        fill: #2f3437;
      }

      .cls-2 {
        fill: #e6cc84;
      }

      .cls-3 {
        fill: #a0854b;
      }

      .cls-4 {
        fill: #f2e1b0;
      }

      .cls-5 {
        fill: #eedba4;
      }

      .cls-6 {
        fill: #f6e8c0;
      }

      .cls-7 {
        fill: #f6e8bf;
      }

      .cls-8 {
        fill: #e6ce8f;
      }

      .cls-9 {
        fill: #9f844b;
      }

      .cls-10 {
        fill: #9f854b;
      }

      .cls-11 {
        fill: #f7e9c2;
      }

      .cls-12 {
        fill: #f0dda9;
      }

      .cls-13 {
        fill: #efdda7;
      }

      .cls-14 {
        fill: #e7cf8a;
      }

      .cls-15 {
        fill: #e8d08d;
      }
    </style>
  </defs>
  <g>
    <path class="cls-1" d="M46,18.94c.06-.38.2-.65.14-.86-1.36-5,1.39-7,5.57-9C91.73-9.5,138.29,1,165.64,35.05A108,108,0,0,1,173,45.8a6.05,6.05,0,0,1,.68,4.9c-.7,3.07-1.28,6.18-1.93,9.27-.36,1.66.08,2.46,2,2.58,2.05.14,4.06.73,6.11,1,1.08.14,1.26.91,1.47,1.67,6.18,22,4.73,43.51-5.08,64.26-1.37,2.89-4.67,3.28-7.46,3.62a6.24,6.24,0,0,0-4.69,3.07c-2.42,3.35-3.82,7.48-8.3,9.32-1.86.77-2.87,3.68-3,6.09a3.65,3.65,0,0,1-2.11,3.46,8.77,8.77,0,0,1-1.18.68c-5.28,1.77-7.62,5.75-8.13,11a3,3,0,0,1-2,2.6Q88.83,196,40.11,166c-2.67-1.64-3-4.5-3.61-7a10,10,0,0,0-5.21-7.16c-2.55-1.38-3.86-3.31-3.6-6.37.2-2.41-1.79-3.24-3.66-3.64a65.24,65.24,0,0,0-7.26-1,3.6,3.6,0,0,1-3-1.95C4.21,123.42-.73,106.57,0,88.36,1.19,58.61,14.13,34.94,38,17.21c2.14-1.58,4.12-1.57,6,.36A4,4,0,0,0,46,18.94Z" transform="translate(0.07)"/>
    <path class="cls-2" d="M98.26,2.79c27,1.28,51.85,15.92,68.79,44,2,3.32.49,6.88.67,10.33a8.79,8.79,0,0,1-.37,1.85c-.81,4.6-.8,4.57,3.75,5.9,2.77.81,4.64,2.18,5.37,5.47a89.76,89.76,0,0,1-5.12,56.06c-1.17,2.74-2.8,4.5-5.94,4.75a7,7,0,0,0-5.37,3.31c-1.44,2.19-2.94,4.34-4.32,6.57a3.85,3.85,0,0,1-1.94,1.8c-4.18,1.54-5.26,5.13-5.88,8.95a2.63,2.63,0,0,1-1.3,2.18c-1.18.66-2.34,1.37-3.52,2.05-2.37,1.36-4.26,3-4.26,6.08,0,2.26-1.17,3.72-3.22,4.86-30.39,16.86-60.31,16-89.83-2.18a4.74,4.74,0,0,1-2.52-3.62,13.35,13.35,0,0,0-7.36-10.73,4.81,4.81,0,0,1-2.87-5c.14-2.31-2.6-5.13-6-5.33-6-.35-8.84-3.73-11.38-8.71C-3.56,93.68,6.69,47,40,21c1.54-1.19,2.58-1.27,4-.07a10.77,10.77,0,0,0,2.51,1.59c3,1.33,4.82.27,4.35-2.87-.7-4.65,1.23-6.88,5.35-8.73C67.66,5.75,79.91,2.79,98.26,2.79Z" transform="translate(0.07)"/>
    <path class="cls-3" d="M92.37,162.15c-22.14-.39-41.11-8.08-56-24.8A69.25,69.25,0,0,1,18.91,98.41c-2.23-19.33,2.58-36.84,14.7-52C45.89,31,61.72,21.43,81.52,19.05s38.39,1.46,54.76,13.34C152.21,44,162.13,59.43,165.17,79c3.09,19.85-1.37,38-13.38,54-11.56,15.37-27.17,24.64-46.18,28A62.39,62.39,0,0,1,92.37,162.15Z" transform="translate(0.07)"/>
    <path class="cls-4" d="M163,50.83c-.21,1.69-.44,3.38-.62,5.07-.08.72-.31,1.23-1.14,1.19s-1-.64-1-1.32c-.18-2.87-.52-5.73-.5-8.6a6.81,6.81,0,0,0-2.23-5.52c-2.74-2.52-4.25-6-6.63-8.83a.8.8,0,0,1,0-1.2.59.59,0,0,1,.93,0C157.32,37,163.11,42.18,163,50.83Z" transform="translate(0.07)"/>
    <path class="cls-5" d="M168.38,116.41c1.05-5.18,2.13-10.35,2.85-15.6.1-.72,0-2.14,1.27-2,.94.12.78,1.27.79,2.07.06,4.53-1,8.92-1.94,13.29-.24,1.1.25,2.41-.76,3.33A4.08,4.08,0,0,1,168.38,116.41Z" transform="translate(0.07)"/>
    <path class="cls-6" d="M119.82,167.84a24.15,24.15,0,0,0,7.14-5.35,24.58,24.58,0,0,1,2.15-2.06c.84-.66,2-1.62,2.87-.8,1,1-.57,1.65-1.06,2.3-2.53,3.38-5.37,6.38-10.12,6.14A5.79,5.79,0,0,1,119.82,167.84Z" transform="translate(0.07)"/>
    <path class="cls-7" d="M168.38,116.41c.86.13,2-.34,2.21,1.12a10.84,10.84,0,0,1-3.67,5.52,1.53,1.53,0,0,1-1.77.3c-.82-.48-.2-1.16.07-1.63C166.23,119.92,167.32,118.18,168.38,116.41Z" transform="translate(0.07)"/>
    <path class="cls-2" d="M35.72,127.86A69.79,69.79,0,0,1,25.31,97.71c-2.22-23,5.27-42.49,21.66-58.3a63.06,63.06,0,0,1,34.82-17c22.72-3.47,42,3.76,57.76,20C150.2,53.33,156.28,66.75,158.09,82c2.82,23.71-5,43.74-22.17,59.89a63,63,0,0,1-39.28,17.07C78.45,160.31,62.75,154.49,48.9,143c.16-.52.15-1.07.26-1.6.22-1,.32-2.09,1.57-2.24a1.93,1.93,0,0,1,2.05,1.43c.2.52.41,1.13,1,1.09,2.63-.15,4.51,1.62,7.15,2.77-1.74-2.13-4.26-2.64-5.45-4.66-.32-1-.54-2.17.43-2.73,1.82-1.07,3.16.64,4.75,1.11-1.36-1-3-1.65-4-3-.39-.51-.77-1.09-.32-1.73s1.12-.44,1.72-.2c1.26.52,2.29,1.44,3.94,2.37-2.79-2.21-6.25-3.28-5.76-7.64-1.14.55-1.39,2.23-2.77,1.47a2.8,2.8,0,0,1-1.75-2.23c-.08-1.06.37-2.13,0-3.23-1,.16-.92,1.08-1.29,1.62-.63,1-1.39,1.3-2.11.26-.54-.76-.83-1.57-2-1.31-1.59.34.07,1.62-.69,2.18-.14.1-.24.26-.41.34-1.27.52-2.14-.83-3.56-.72.71,1,1.77,1.39,2.41,2.21.52.66,1,1.36.41,2.2s-1.56.77-2.42.33a22.43,22.43,0,0,1-3.1-2.18C38,128.17,37,127.49,35.72,127.86Z" transform="translate(0.07)"/>
    <path class="cls-6" d="M35.72,127.86c.71-2.11,1.88-.71,2.68-.21,1.37.83,2.57,1.95,3.88,2.88.59.42,1.31.81,1.86-.08.46-.73-.12-1.19-.59-1.58-.68-.58-1.48-1-2.14-1.62-.4-.36-1.45-.47-1-1.31a1.39,1.39,0,0,1,1.91-.46l2.63,1.3c2.47.69,4.41,2.37,6.55,3.64a2.29,2.29,0,0,1,.93,3.47c-1.2,1.27-.69,2.33.42,3.3s2.29,1.4,3,2.62c1.73,1.14,3.48,2.27,5.18,3.45.56.38,1.49.86,1,1.65s-1.33.31-2-.06c-1.19-.66-2.35-1.34-3.54-2a2.73,2.73,0,0,0-2-.5c-1.3.28-2.63.52-2.21-1.7.13-.67-.78-1-1.4-1-.9-.08-.92.7-.94,1.32,0,.84-.11,1.64-1,2l-1.72-1.59a2.11,2.11,0,0,1-.53-1.21c-.36-2.82-.36-2.82-2.77-2l-1.08-1.1c-.49-3.06-3.35-4.3-5-6.48A7.93,7.93,0,0,1,35.72,127.86Z" transform="translate(0.07)"/>
    <path class="cls-8" d="M43.88,138.21c1.3.1.53-2.58,2.29-1.75s1.28,2.23,1,3.63a7.27,7.27,0,0,0,0,1.32A14.53,14.53,0,0,1,43.88,138.21Z" transform="translate(0.07)"/>
    <path class="cls-8" d="M37.82,130.63c1.37,1,2.71,2.07,4.12,3s.71,2.27.86,3.46C41.09,135,39,133.17,37.82,130.63Z" transform="translate(0.07)"/>
    <path class="cls-9" d="M92.37,129.48c-7.06,0-14.12,0-21.19,0-1.73,0-2.31-.44-2.3-2.29.1-11.5,0-23,.12-34.5.08-5.31.86-10.61,1-15.92a40,40,0,0,0-3.75-18.92c-.5-1-.18-1.43.69-1.86,2.58-1.27,5.14-2.61,7.73-3.89,1.66-.83,2.06.3,2.33,1.57,1.14,5.29,4.39,9,8.9,11.72a13.76,13.76,0,0,0,15.65-1.53c3.16-2.79,5.85-5.92,6.58-10.3.23-1.36.83-2.24,2.41-1.43,2.49,1.27,5,2.58,7.48,3.77,1.23.58,1.17,1.11.66,2.28a46.58,46.58,0,0,0-3.22,24.89,90.51,90.51,0,0,1,.68,10.27c.09,11.23,0,22.46.09,33.68,0,1.91-.51,2.51-2.41,2.48-7.15-.09-14.31,0-21.46,0Z" transform="translate(0.07)"/>
    <path class="cls-10" d="M67.81,76.44c-.29,1.44.73,3.42-.77,4.52-2.17,1.59-4.52,3.1-7.31,3.32a4.17,4.17,0,0,1-3.85-1.55c-2.18-2.88-4.4-5.73-6.62-8.58-1.38-1.77-1.38-3.25.29-5,3.79-4,8.32-6.94,12.7-10.13,1.7-1.24,2.33-.6,2.83,1.07A56,56,0,0,1,67.81,76.44Z" transform="translate(0.07)"/>
    <path class="cls-10" d="M117.32,76.11a56.92,56.92,0,0,1,2.7-16c.57-1.95,1.33-2.24,3-1,4.39,3.18,8.91,6.17,12.67,10.16,1.48,1.57,1.55,3,.35,4.57-2.28,3-4.63,6-6.93,9a3.3,3.3,0,0,1-1.56,1c-3.55,1.44-6-1.08-8.8-2.4C117.24,80.76,117.33,80.57,117.32,76.11Z" transform="translate(0.07)"/>
    <path class="cls-11" d="M151.58,84.89c-5.07-25.43-19.45-43.87-42.89-56.4a25.58,25.58,0,0,1,10.84,4.11A141.39,141.39,0,0,1,132,41.2a27.27,27.27,0,0,1,5.17,6.22c6,8.75,12.43,17.31,15.73,27.62a28.11,28.11,0,0,1,1.39,8.76,2.93,2.93,0,0,1,.24,1.84c0,1.15-.57,2-1.73,2-1.56,0-.76-1.29-1-2A3.31,3.31,0,0,0,151.58,84.89Z" transform="translate(0.07)"/>
    <path class="cls-3" d="M92.34,66c-4.5-.55-7.38-3.7-10.16-6.9a12.5,12.5,0,0,1-2.67-5.27c-.18-.68-.58-1.47.23-1.94s1.15.23,1.64.62c5,4,14.87,4.79,20.41,1.56.46-.27.89-.6,1.33-.92.74-.55,1.33-1.95,2.4-1.13.9.7.09,1.88-.24,2.76-1.92,5.09-5.65,8.49-10.43,10.82A8.8,8.8,0,0,1,92.34,66Z" transform="translate(0.07)"/>
    <path class="cls-12" d="M52.06,133.86c.95-1.94-.41-3-1.76-3.54A21.78,21.78,0,0,1,45,126.78c1.26-1.2-.91-1.52-.61-2.51.91-.22,1.84-.49,2.78-.67s1.74-.12,1.49,1.16c-.12.63-.08,1.16.6,1.23s.59-.56.73-1,.34-1,.54-1.54.69-1.1,1.44-.91.65.8.63,1.33a10.79,10.79,0,0,1-.23,2.68c-.38,1.33.41,1.9,1.32,2.3,1.58.71.93-.75,1.16-1.32a1,1,0,0,1,1-.73c.64,0,1.17.35,1.06,1-.75,3.95,2.46,5,4.79,6.71.6.44,1.63.54,1.53,1.84-2.67.26-4-2.59-6.93-2.92,1.53,2.92,4.42,3.56,6.74,5.36-1.83,1-3-.18-4.14-.72-2.93-1.37-2.92-1.41-3,1.76l-3.28-2.15C53.47,136.25,52,135.16,52.06,133.86Z" transform="translate(0.07)"/>
    <path class="cls-13" d="M151.58,84.89c.9.55.17,1.71.86,2.35,2.22-.3,1.76-2,1.84-3.44a2.07,2.07,0,0,1,.52,2c-.57,5.89.38,11.83-.52,17.71-.15.94-.17,2-1.4,1.9-.9,0-1-.83-1-1.62A117.08,117.08,0,0,0,151.58,84.89Z" transform="translate(0.07)"/>
    <path class="cls-14" d="M52.06,133.86c.57,1.21,3.37,2.12.53,3.8C51.09,136.58,49.92,135.44,52.06,133.86Z" transform="translate(0.07)"/>
    <path class="cls-15" d="M48.67,132.86c-.29.55-.34,1.45-1.14,1.27a1.69,1.69,0,0,1-1.38-1.76c0-.57.36-1.12,1-1.08A1.69,1.69,0,0,1,48.67,132.86Z" transform="translate(0.07)"/>
  </g>
</svg>
