<svg id="Laag_1" data-name="Laag 1" xmlns="http://www.w3.org/2000/svg" viewBox="0 0 185.07 181.65">
  <defs>
    <style>
      .cls-1 {
        fill: #2f3437;
      }

      .cls-2 {
        fill: #e6cc84;
      }

      .cls-3 {
        fill: #a0854b;
      }

      .cls-4 {
        fill: #f2e1b0;
      }

      .cls-5 {
        fill: #eedba4;
      }

      .cls-6 {
        fill: #f6e8c0;
      }

      .cls-7 {
        fill: #f6e8bf;
      }

      .cls-8 {
        fill: #e6ce8f;
      }

      .cls-9 {
        fill: #9f854b;
      }

      .cls-10 {
        fill: #f7e9c2;
      }

      .cls-11 {
        fill: #f0dda9;
      }

      .cls-12 {
        fill: #efdca7;
      }

      .cls-13 {
        fill: #e7cf8a;
      }

      .cls-14 {
        fill: #e8d08d;
      }

      .cls-15 {
        fill: #e1c780;
      }

      .cls-16 {
        fill: #e0c67f;
      }

      .cls-17 {
        fill: #e0c680;
      }
    </style>
  </defs>
  <g>
    <path class="cls-1" d="M46,19.15c.13-.55.24-.74.2-.88C44.71,13,47.79,10.91,52.08,9c40.13-18.4,86.4-7.83,113.67,26.14A109.44,109.44,0,0,1,173,45.62a6.29,6.29,0,0,1,.77,5.14c-.7,3.07-1.28,6.18-1.93,9.27-.31,1.48,0,2.35,1.78,2.5,2.14.17,4.25.72,6.38,1,1.09.15,1.21,1,1.42,1.73,6.15,22,4.69,43.32-5,64-1.46,3.11-4.81,3.35-7.64,3.8a5.54,5.54,0,0,0-4.49,2.91c-1.2,2.12-2.63,4.12-3.9,6.2a4.5,4.5,0,0,1-2.24,1.9c-3.75,1.42-4.88,4.54-5.28,8.08a3,3,0,0,1-1.46,2.42,9.38,9.38,0,0,1-1.86,1.12c-5.32,1.78-7.53,5.84-8.09,11a2.87,2.87,0,0,1-1.76,2.43,94.41,94.41,0,0,1-55.4,12.09,96.52,96.52,0,0,1-41-13.24c-3.65-2.13-6.09-4.76-6.72-8.85a9.89,9.89,0,0,0-5.5-7.56,5.62,5.62,0,0,1-3.3-6c.24-2.45-1.62-3.36-3.49-3.79a58.52,58.52,0,0,0-7.25-1,3.81,3.81,0,0,1-3.22-2C4.44,123.67-.48,107.19,0,89.36c.87-30.1,13.77-54.06,37.88-72,2.69-2,3.79-1.85,6.39.46C44.77,18.21,45.27,18.56,46,19.15Z"/>
    <path class="cls-2" d="M97.07,2.73c28.18,1.3,53.06,15.94,70,44,2,3.34.48,6.88.7,10.32a6.28,6.28,0,0,1-.3,1.32c-1,5-.95,5,3.87,6.55,2.64.86,4.44,2.17,5.15,5.36a89.74,89.74,0,0,1-5.19,56.3c-1.15,2.67-2.8,4.29-5.8,4.55a7.16,7.16,0,0,0-5.55,3.49c-1.43,2.2-2.93,4.36-4.31,6.59a3.58,3.58,0,0,1-1.78,1.58c-4.16,1.53-5.36,5.07-5.92,8.93a2.81,2.81,0,0,1-1.49,2.34c-1.11.62-2.19,1.28-3.29,1.91-2.36,1.36-4.31,3-4.29,6.05,0,2.42-1.33,3.86-3.43,5-30.32,16.74-60.17,15.9-89.6-2.25a5,5,0,0,1-2.61-3.87A13.21,13.21,0,0,0,36,150.44a4.81,4.81,0,0,1-2.92-5c.16-2.34-2.54-5.21-5.91-5.35-6.21-.27-9-4-11.52-9C-3.47,93.46,6.79,46.94,40,21c1.49-1.16,2.56-1.41,4-.14a10.74,10.74,0,0,0,2,1.36c3.21,1.75,5.38.66,4.87-2.83-.66-4.6,1.34-6.7,5.32-8.48C67.78,5.74,79.78,2.78,97.07,2.73Z"/>
    <path class="cls-3" d="M92.11,18.44c19.55-.05,36.63,6.34,51.1,19.61a68.23,68.23,0,0,1,22,40.92c3.07,19.84-1.36,38-13.36,54a70.48,70.48,0,0,1-46.18,28c-22.9,3.79-43.77-1.25-61.68-16.19a69.59,69.59,0,0,1-24.56-42.86c-3-17.6.43-33.93,9.59-49.14,4-6.57,9.31-11.92,15-17.06,10-9.06,21.83-13.87,34.84-16.37A73.42,73.42,0,0,1,92.11,18.44Z"/>
    <path class="cls-4" d="M163.09,50.82c-.21,1.69-.44,3.38-.62,5.07-.08.72-.3,1.23-1.13,1.19s-1-.63-1-1.31c-.18-2.87-.53-5.74-.51-8.61a6.78,6.78,0,0,0-2.22-5.52c-2.75-2.52-4.25-6-6.63-8.83a.81.81,0,0,1-.05-1.2.6.6,0,0,1,.94,0C157.38,37,163.17,42.17,163.09,50.82Z"/>
    <path class="cls-5" d="M168.44,116.4c1.05-5.18,2.14-10.36,2.86-15.6.1-.72,0-2.14,1.27-2,.94.13.77,1.28.79,2.08.06,4.53-1,8.91-2,13.29-.24,1.1.25,2.4-.76,3.33A4.14,4.14,0,0,1,168.44,116.4Z"/>
    <path class="cls-6" d="M119.79,167.32c2.78-.71,4.87-2.53,6.86-4.48a33.83,33.83,0,0,1,2.76-2.6c.76-.6,1.87-1.4,2.67-.62.94.93-.51,1.49-1,2.11-2.5,3.41-5.31,6.43-10,6.33C120.58,168.05,119.94,168.2,119.79,167.32Z"/>
    <path class="cls-7" d="M168.44,116.4c.86.13,2-.34,2.21,1.12A10.75,10.75,0,0,1,167,123a1.5,1.5,0,0,1-1.76.31c-.83-.48-.2-1.16.07-1.63C166.29,119.91,167.38,118.16,168.44,116.4Z"/>
    <path class="cls-2" d="M35.77,127.85A69.79,69.79,0,0,1,25.36,97.7c-2.21-23,5.27-42.49,21.66-58.3a63.09,63.09,0,0,1,34.83-17c22.72-3.47,42,3.76,57.77,20A66.61,66.61,0,0,1,158.15,82c2.82,23.71-5,43.74-22.17,59.88A62.91,62.91,0,0,1,96.7,158.9C78.51,160.29,62.81,154.48,49,143c.16-.52.14-1.07.26-1.6.21-1,.32-2.1,1.56-2.24a1.94,1.94,0,0,1,2.06,1.43c.2.52.4,1.13,1,1.09,2.63-.16,4.51,1.62,7.14,2.76-1.73-2.12-4.25-2.63-5.44-4.66-.33-1-.54-2.17.42-2.73,1.82-1.07,3.17.64,4.76,1.12-1.36-1-3-1.65-4-3-.39-.5-.76-1.09-.32-1.72s1.13-.45,1.72-.2a38.05,38.05,0,0,1,3.51,2.08c-2.36-1.93-5.82-3-5.32-7.35-1.15.55-1.39,2.23-2.77,1.46a2.83,2.83,0,0,1-1.76-2.22c-.11-1.06.46-2.14-.07-3.23-.95.16-.86,1.07-1.22,1.62-.64,1-1.39,1.3-2.12.26-.53-.77-.82-1.57-2-1.31-1.6.34.07,1.62-.69,2.18a3.66,3.66,0,0,1-.42.34c-1.26.51-2.14-.83-3.55-.72.7,1,1.77,1.38,2.4,2.2.52.67,1,1.37.41,2.2s-1.55.78-2.42.34a23.77,23.77,0,0,1-3.1-2.19C38,128.16,37.07,127.48,35.77,127.85Z"/>
    <path class="cls-6" d="M35.77,127.85c.71-2.12,1.88-.71,2.69-.22,1.36.84,2.56,2,3.88,2.89.58.42,1.3.8,1.85-.08.46-.73-.12-1.19-.58-1.59-.68-.57-1.48-1-2.14-1.62-.4-.36-1.46-.46-1-1.3a1.39,1.39,0,0,1,1.91-.46L45,126.76c2.47.7,4.41,2.38,6.56,3.64a2.3,2.3,0,0,1,.92,3.48c-1.2,1.27-.68,2.32.43,3.3s2.29,1.4,3,2.61c1.73,1.15,3.47,2.27,5.18,3.46.55.38,1.49.86,1,1.64s-1.33.31-2,0c-1.18-.66-2.35-1.35-3.54-2a2.75,2.75,0,0,0-2-.5c-1.31.29-2.63.52-2.21-1.69.12-.67-.79-1-1.4-1-.91-.08-.92.7-.95,1.32,0,.85-.1,1.64-1,2.05l-1.72-1.6a2,2,0,0,1-.53-1.2c-.37-2.83-.36-2.83-2.78-2l-1.08-1.09c-.49-3.06-3.34-4.31-5-6.48A8.15,8.15,0,0,1,35.77,127.85Z"/>
    <path class="cls-8" d="M43.93,138.19c1.3.11.53-2.57,2.3-1.75s1.28,2.24,1,3.63a6.47,6.47,0,0,0,0,1.32A14.36,14.36,0,0,1,43.93,138.19Z"/>
    <path class="cls-8" d="M37.87,130.62c1.37,1,2.71,2.07,4.13,3s.71,2.28.85,3.47C41.14,135,39,133.15,37.87,130.62Z"/>
    <path class="cls-9" d="M75.7,95.76c-14.8-.16-28.12-.51-41.11-4.28-1.49-.43-2.11-.93-2.14-2.49a32.69,32.69,0,0,1,2.93-13.93c1.08-2.52,2.95-2.41,5.83-.82,6.89,3.81,14.2,6.6,22.21,4.53,4.83-1.25,8.82-4.47,12.78-7.44s5.46-2.86,9.19.27A146.48,146.48,0,0,1,99,85.2a5.93,5.93,0,0,1,1.09,7.34c-1.11,2.35-3.21,2.63-5.21,2.61C88,95.07,81.14,96,75.7,95.76Z"/>
    <path class="cls-9" d="M113.63,109.32c-10.36,0-18.94-2.22-27.57-4-10.17-2.1-20.39-3.75-30.81-3.55-6.43.13-12.75-1.44-19.18-1.14a2.37,2.37,0,0,1-2.4-1.82,27.43,27.43,0,0,1-.74-4c-.45-2,.52-2.08,1.86-1.67,10.75,3.3,21.79,3.62,32.93,3.88,8.29.19,16.55-.23,24.82-.23,4.38,0,8.24-1.26,9.9-6,.29-.81.81-1.26,1.63-.63,6,4.61,13.29,3.21,20,4.49,5.78,1.1,11.75-.19,17.49,1.6a14.65,14.65,0,0,1,8.14,5.48c1.41,2,1,2.85-1.33,3.52-6.28,1.8-12.78,2.13-19.2,2.89C123.55,108.87,117.85,109,113.63,109.32Z"/>
    <path class="cls-3" d="M112,114.27C98,114,83.92,113,70.16,109.62c-1.47-.35-2.19-.31-2.31,1.43-.13,2-1.36,2.62-3.33,2.7-8.69.34-17.35-.81-26-.59-2.12.06-3.48-.93-3.25-3.31.16-1.7-.27-3.37-.2-5.1.09-2.4,1.17-2.61,3-2.48C56.48,103.6,75,103.8,93,108.7c10.94,3,22.14,2.62,33.34,1.3,8-1,16.14-1.48,24-3.78,1.58-.46,2,.42,1.61,1.8-.46,1.81-1.85,2.57-3.53,3a101.75,101.75,0,0,1-14.72,2C126.49,113.62,119.31,114.65,112,114.27Z"/>
    <path class="cls-10" d="M151.64,84.88C146.57,59.45,132.2,41,109.52,28.73a22.73,22.73,0,0,1,10.07,3.86,139.92,139.92,0,0,1,12.46,8.6,27,27,0,0,1,5.17,6.22c6,8.75,12.43,17.31,15.74,27.62a28.7,28.7,0,0,1,1.39,8.76,2.83,2.83,0,0,1,.23,1.83c-.05,1.17-.49,2.27-1.82,2.17s-.72-1.38-.87-2.16A2.46,2.46,0,0,0,151.64,84.88Z"/>
    <path class="cls-11" d="M52.12,133.84c.94-1.93-.42-3-1.77-3.53A21.81,21.81,0,0,1,45,126.76c1.26-1.19-.9-1.52-.61-2.5.91-.23,1.84-.49,2.79-.67s1.74-.12,1.49,1.16c-.12.62-.09,1.16.59,1.23s.59-.56.73-1,.35-1,.54-1.53c.26-.65.69-1.11,1.44-.92s.65.81.63,1.34a11.33,11.33,0,0,1-.22,2.68c-.39,1.32.41,1.89,1.32,2.3,1.57.71.92-.75,1.15-1.32a1,1,0,0,1,1-.73c.64,0,1.17.35,1,1-.75,4,2.47,5,4.8,6.71.59.44,1.63.54,1.53,1.84-2.67.25-4-2.59-6.94-2.92,1.53,2.91,4.42,3.56,6.75,5.35-1.84,1-3-.18-4.14-.72-2.93-1.36-2.92-1.4-3,1.76l-3.29-2.14C53.52,136.23,52,135.15,52.12,133.84Z"/>
    <path class="cls-12" d="M151.64,84.88c1.12.45-.17,2.66,1.38,2.36s1.27-2.13,1.33-3.45a2.37,2.37,0,0,1,.51,2.28c-.58,5.8.4,11.64-.52,17.42-.16,1.06-.26,2.17-1.64,1.89-1.18-.23-.88-1.18-.81-2.16a74.49,74.49,0,0,0-.11-15.37C151.66,86.87,151.69,85.87,151.64,84.88Z"/>
    <path class="cls-13" d="M52.12,133.84c.56,1.22,3.36,2.12.52,3.81C51.14,136.56,50,135.43,52.12,133.84Z"/>
    <path class="cls-14" d="M48.71,132.76c-.2.57-.25,1.41-1,1.36a1.65,1.65,0,0,1-1.49-1.65c0-.68.37-1.32,1.13-1.19A1.72,1.72,0,0,1,48.71,132.76Z"/>
    <path class="cls-15" d="M86.32,76.93a1.47,1.47,0,0,1-1.62,1.22,1.77,1.77,0,0,1-1.87-1.6c-.14-1.2.85-.9,1.49-.93A1.74,1.74,0,0,1,86.32,76.93Z"/>
    <path class="cls-16" d="M90.72,82.09c0,.79-.39,1.11-1.14,1.16-.92.06-1.66-.19-1.74-1.2-.07-.86.63-1,1.28-1S90.59,81.12,90.72,82.09Z"/>
    <path class="cls-17" d="M93.11,87.22c0-.73.64-.72,1.14-.72.67,0,1.54-.24,1.75.69s-.55.94-1.17,1A1.52,1.52,0,0,1,93.11,87.22Z"/>
  </g>
</svg>
