<svg id="Laag_1" data-name="Laag 1" xmlns="http://www.w3.org/2000/svg" viewBox="0 0 340.25 334.25">
  <defs>
    <style>
      .cls-1 {
        fill: #2e3437;
      }

      .cls-2 {
        fill: #ccc;
      }

      .cls-3 {
        fill: #868686;
      }

      .cls-4 {
        fill: #e0e0e0;
      }

      .cls-5 {
        fill: #dbdbdb;
      }

      .cls-6 {
        fill: #e8e8e8;
      }

      .cls-7 {
        fill: #e7e7e7;
      }

      .cls-8 {
        fill: #cbcbcb;
      }

      .cls-9 {
        fill: #e9e9e9;
      }

      .cls-10 {
        fill: #ddd;
      }

      .cls-11 {
        fill: #dcdcdc;
      }

      .cls-12 {
        fill: #cecece;
      }

      .cls-13 {
        fill: #d0d0d0;
      }
    </style>
  </defs>
  <g>
    <path class="cls-1" d="M85.91,35.15c-5.1-12.41,3-15.59,11.35-19.32C171-17.15,255.08,2.5,304.81,64.58a204.3,204.3,0,0,1,13.25,19.36c1.95,3.1,2.09,6.09,1.32,9.47-1.28,5.65-2.34,11.36-3.54,17-.6,2.86.23,4.23,3.42,4.48,3.93.32,7.81,1.28,11.73,1.89,2,.31,2.12,1.9,2.51,3.29,11.26,40.17,8.56,79.3-9,117.25-2.77,6-9,6.5-14.36,7.32-4,.61-6.31,2.16-8.19,5.45-2.22,3.89-4.81,7.57-7.17,11.39a8.29,8.29,0,0,1-4.16,3.45c-6.71,2.51-8.8,8.13-9.56,14.42a6.27,6.27,0,0,1-3.24,5.18,18.46,18.46,0,0,1-3,1.77c-9.19,3.22-13.77,10-14.56,19.37-.26,3.14-1.9,4.59-4.41,5.89-61.79,32.15-122.37,30.22-181.79-6.31-5.11-3.14-5.81-8.5-6.89-13.26a18.7,18.7,0,0,0-9.73-13c-4.49-2.49-6.92-5.91-6.4-11.33.44-4.47-3.07-6.1-6.51-6.87A117.4,117.4,0,0,0,31.19,259a6.66,6.66,0,0,1-5.62-3.37C8.16,227.38-1,196.77.09,163.63c1.81-55.11,25.56-99,69.7-131.9,4.14-3.09,7.81-3,11.44.69a31.84,31.84,0,0,0,3,2.43Z" transform="translate(0 0)"/>
    <path class="cls-2" d="M180.84,5.09c49.75,2.42,95.45,29.42,126.51,81.1,3.66,6.1,1.06,12.66,1,19,0,3.59-2.32,7.33-1.18,10.78,1.34,4,6.05,2.55,9.16,3.79,4.45,1.78,7,4.19,8.14,9.27,8.13,35.76,4.86,70.34-9.61,104-2,4.74-5.06,7.56-10.35,8a13.61,13.61,0,0,0-10.57,6.72c-2.49,3.93-5.14,7.76-7.59,11.72a6.67,6.67,0,0,1-3.25,2.95c-7.77,2.93-10.06,9.52-11.07,16.81a4.72,4.72,0,0,1-2.56,3.89c-2.32,1.31-4.64,2.61-6.91,4-3.94,2.44-7.18,5.28-7.18,10.55,0,4.31-2.21,7.15-6.15,9.33-55.91,30.9-110.92,29.33-165.15-4.25-2.38-1.48-4-3.27-4.4-6.25-1.09-9.06-5.63-15.84-13.76-20.13-3.55-1.88-5.32-4.53-5.09-8.83.24-4.55-4.78-9.81-11.2-10.13-10.9-.55-16-6.82-20.56-15.74C-6.53,172.4,12.41,86,73.85,38.42c2.62-2,4.48-2.26,6.88-.16a22.32,22.32,0,0,0,3.74,2.49c6.1,3.43,10,1.42,9.1-5.41-1-8,2.13-11.78,9.16-15C124,10.59,146.85,5.06,180.84,5.09Z" transform="translate(0 0)"/>
    <path class="cls-3" d="M171.66,33.77c33.75.08,65.05,11.75,91.48,36,24.8,22.8,38.81,50.89,41.72,84.55,2.88,33.44-5.67,63.76-25.79,90.32-21.14,27.91-49.46,45.27-84,51.13-42.4,7.17-81.15-2.08-114.31-29.87-24.55-20.52-39.76-47-45-78.9-6.23-38,2.6-72.45,26.57-102.36,22.36-27.89,51.33-45.18,87.36-49.75C156.38,34.05,163,34.3,171.66,33.77Z" transform="translate(0 0)"/>
    <path class="cls-4" d="M299.73,94.28c-.26,2.11-.68,5.22-1,8.33-.14,1.29-.43,2.3-2,2.3s-2-1-2-2.3c0-5.63-1.63-11.15-1-16.81a9.94,9.94,0,0,0-3.56-8.8c-5.19-4.75-8.08-11.27-12.54-16.59-.59-.7-.88-1.43-.24-2.22s1.4-.26,2.1.2C290.49,65.52,299.82,81.58,299.73,94.28Z" transform="translate(0 0)"/>
    <path class="cls-5" d="M309.69,214c1.94-9.53,3.92-19,5.25-28.68.18-1.32,0-3.93,2.34-3.62,1.72.23,1.39,2.35,1.44,3.82.21,6.5-1.24,12.79-2.38,19.12-.68,3.84-1.71,7.62-2.59,11.43C312.26,215.61,310.75,215.23,309.69,214Z" transform="translate(0 0)"/>
    <path class="cls-6" d="M220.24,307.61a33.16,33.16,0,0,0,13-8.63,48.11,48.11,0,0,1,4.71-4.43c1.42-1.09,3.46-2.56,4.91-1.12,1.71,1.71-.93,2.74-1.76,3.87-4.61,6.27-9.77,11.82-18.46,11.65C221.7,308.93,220.53,309.2,220.24,307.61Z" transform="translate(0 0)"/>
    <path class="cls-7" d="M309.69,214c1.58.24,3.72-.62,4.06,2.07-.82,4.32-3.57,7.37-6.74,10.14a2.82,2.82,0,0,1-3.24.56c-1.54-.88-.38-2.13.1-3C305.72,220.42,307.73,217.21,309.69,214Z" transform="translate(0 0)"/>
    <path class="cls-2" d="M65.75,235c-10.41-17.09-17.06-35.31-19.14-55.44C43,144.86,52.43,114,73.3,86.68c19.43-25.4,45.85-40.3,77.21-45.42,41.7-6.81,77.14,6.81,106.18,36.63,19.57,20.1,30.76,44.78,34.08,72.73C296,194.22,281.52,231,250,260.72c-20,18.82-44.43,29.25-72.21,31.39-33.44,2.57-62.3-8.11-87.79-29.24.33-1.12.31-2.3.58-3.43.38-1.66.75-3.46,2.77-3.66,1.84-.19,3.12.92,3.79,2.64.37.94.75,2.07,1.92,2,4.83-.29,8.29,3,13.14,5.08-3.2-3.91-7.85-4.84-10-8.59-.54-5.68.89-6.8,6-4.62,1.48.63,2.9,1.41,4.4,2a28.45,28.45,0,0,1-7.71-5.27c-1-1.06-2.22-2.38-1-3.91,1.06-1.27,2.48-.52,3.67.06,2.24,1.1,4.15,2.77,6.85,4.17-5-3.91-11.59-5.87-10.9-14.32-2,1.42-2.46,4.38-5,3.15A5.5,5.5,0,0,1,95.22,234c-.35-2.07,1-4.24-.3-6.3-1.73.39-1.6,2-2.19,3.08-1.1,2-2.65,2.33-3.79.4s-2.15-2.91-4.3-2.17c-2.4.83.86,2.69-.62,3.75a4.94,4.94,0,0,1-.75.62c-2.3.64-4-1.43-6.53-1.46.63,1.82,2.36,2.24,3.36,3.32,1.34,1.45,3.2,2.9,1.66,5.07s-3.51.9-5.21-.14a56.64,56.64,0,0,1-5.31-3.64C69.61,235.31,67.9,234.4,65.75,235Z" transform="translate(0 0)"/>
    <path class="cls-6" d="M102.84,257c3.18,2.11,6.39,4.17,9.53,6.35,1,.71,2.74,1.58,1.77,3-.8,1.2-2.44.57-3.65-.1-2.17-1.21-4.32-2.47-6.51-3.67a5,5,0,0,0-3.74-.92c-2.41.52-4.82.93-4.07-3.12.23-1.24-1.45-1.73-2.58-1.89-1.34-.18-1.6,1-1.68,2-.14,1.66,0,3.4-1.9,4.26L86.83,260a4.22,4.22,0,0,1-1-2.21c-.66-5.24-.65-5.24-5-3.74a163.41,163.41,0,0,1-15.09-19c1.28-3.86,3.41-1.34,4.92-.44A88.5,88.5,0,0,1,78.29,240c1.08.8,2.08,1.08,2.94-.17.71-1,.18-1.93-.63-2.58-1.65-1.33-3.38-2.58-5.09-3.86-.76-.57-1.88-1-1.08-2.26a2.09,2.09,0,0,1,2.6-.87c2,.81,3.87,1.82,5.79,2.75,4.65,1.6,8.68,4.38,12.58,7.22,1.85,1.34,4.36,3.63,1.23,6.43-2.59,2.19-.88,3.84.72,5.48C99.21,253.72,101.56,254.74,102.84,257Z" transform="translate(0 0)"/>
    <path class="cls-8" d="M80.85,254c2.29.05,1-4.46,3.93-3.26,3.16,1.29,2.7,4,2.07,6.73a10.29,10.29,0,0,0,0,2.48A22.64,22.64,0,0,1,80.85,254Z" transform="translate(0 0)"/>
    <path class="cls-9" d="M278.81,156c-9.35-46.7-35.82-80.49-78.5-103.49,7.75.64,13.55,3.66,19,7,8.18,5,16.34,10.2,23.74,16.4a45.23,45.23,0,0,1,7.23,8.21,371.94,371.94,0,0,1,24,37.21c5.68,10.11,9.34,20.89,9.48,32.65.71,1.05.47,2.24.42,3.36-.09,2.16-.9,4.18-3.35,4s-1.31-2.53-1.59-4A4.77,4.77,0,0,0,278.81,156Z" transform="translate(0 0)"/>
    <path class="cls-10" d="M95.8,246c2.85-3.78-1-5.33-2.88-6.22A49,49,0,0,1,82.82,233c2.28-2.19-1.62-2.8-1.12-4.61,1.67-.41,3.37-.9,5.11-1.23s3.2-.24,2.76,2.11c-.22,1.15-.15,2.23,1.08,2.25s1-1.44,1.3-2.31a17.18,17.18,0,0,1,1.49-3.12,1.91,1.91,0,0,1,2.17-.86c1,.25,1.19,1.07,1.18,1.94a20,20,0,0,1-.47,5.93c-.71,2.26,1.21,3.67,2.72,4.16,2.68.87,1.39-1.82,1.91-2.9a1.87,1.87,0,0,1,1.9-1.25c.91,0,1.9.42,1.76,1.34-1.28,8.67,6.24,10.3,11.09,14.08a17.94,17.94,0,0,1,1.88,2.11c-5.79.88-8.43-4.85-13.91-5.49,2.84,5.76,8.57,6.74,12.8,10.13-3.45,1.61-5.73-.42-8.11-1.55-5.38-2.55-5.36-2.59-5.52,3.22l-6-3.94C98.44,250.42,95.62,248.43,95.8,246Z" transform="translate(0 0)"/>
    <path class="cls-11" d="M278.81,156c1.64,1.1.35,3.25,1.69,4.6,3.91-.78,3.08-4,3.28-6.61,1.34,1.16,1.08,2.77.94,4.19-1.07,10.66.73,21.4-1,32-.3,1.94-.47,4-3,3.47-2.15-.42-1.61-2.18-1.48-4,.69-9.41,1-18.84-.2-28.26C278.83,159.67,278.88,157.83,278.81,156Z" transform="translate(0 0)"/>
    <path class="cls-12" d="M95.8,246c1,2.24,6.24,3.89,1,7C94.37,251,91.32,249,95.8,246Z" transform="translate(0 0)"/>
    <path class="cls-13" d="M87.44,246.68c-1.35-.87-2.68-1.71-2.46-3.47.15-1.25.9-2.31,2.33-1.81,1.25.44,2.42,1.41,2.18,2.93C89.32,245.37,88.87,246.59,87.44,246.68Z" transform="translate(0 0)"/>
  </g>
</svg>
