<svg id="Laag_1" data-name="Laag 1" xmlns="http://www.w3.org/2000/svg" viewBox="0 0 282.83 282.71">
  <defs>
    <style>
      .cls-1 {
        fill: #fff;
      }
    </style>
  </defs>
  <g id="Icon_ionic-ios-home" data-name="Icon ionic-ios-home">
    <path id="Path_7371" data-name="Path 7371" class="cls-1" d="M143.73,38.5a2.68,2.68,0,0,0-3.4,0l-106,84.82a2.87,2.87,0,0,0-1,2.11V281.74a1.37,1.37,0,0,0,1.36,1.35h73.4a1.35,1.35,0,0,0,1.35-1.35V186.6a1.37,1.37,0,0,1,1.36-1.36h62.52a1.37,1.37,0,0,1,1.36,1.36v95.14a1.36,1.36,0,0,0,1.35,1.35h73.4a1.37,1.37,0,0,0,1.36-1.35V125.43a2.77,2.77,0,0,0-1-2.11Z" transform="translate(-0.64 -0.38)"/>
    <path id="Path_7372" data-name="Path 7372" class="cls-1" d="M279.78,106.54,151.34,3.64a14.91,14.91,0,0,0-18.62,0L76.79,49.11V20.43a1.37,1.37,0,0,0-1.36-1.35H34.65a1.37,1.37,0,0,0-1.36,1.35V83.09l-29,23.85a9.51,9.51,0,0,0-1.6,13.36,8.93,8.93,0,0,0,.77.86A9.49,9.49,0,0,0,10.13,124a9.6,9.6,0,0,0,6-2.11l125-100.6A1.24,1.24,0,0,1,142,21a1.68,1.68,0,0,1,.89.26l125,100.18a9.54,9.54,0,0,0,6,2.11,9.64,9.64,0,0,0,9.58-9.71v-.33A9.67,9.67,0,0,0,279.78,106.54Z" transform="translate(-0.64 -0.38)"/>
  </g>
</svg>
