<svg id="Laag_1" data-name="Laag 1" xmlns="http://www.w3.org/2000/svg" viewBox="0 0 86.65 86.64">
  <defs>
    <style>
      .cls-1 {
        fill: #5c7532;
      }
    </style>
  </defs>
  <g id="Group_84" data-name="Group 84">
    <path class="cls-1" d="M86.43,60.33A51.05,51.05,0,0,1,76.1,86.64L55.73,74.88a51,51,0,0,0,3.89-7.43A51.35,51.35,0,0,0,62,34.63a50.15,50.15,0,0,0-2.55-7.37L51.62,38a2,2,0,0,1-2.79.44,2,2,0,0,1-.66-.8L32.67,2.81a2,2,0,0,1,1-2.64,2,2,0,0,1,1-.16L72.6,4a2,2,0,0,1,1.78,2.2,2.05,2.05,0,0,1-.37,1L67.67,15.9A51,51,0,0,1,86.43,60.33Z"/>
  </g>
</svg>
