<svg id="Laag_1" data-name="Laag 1" xmlns="http://www.w3.org/2000/svg" viewBox="0 0 349.01 523.99">
  <defs>
    <style>
      .cls-1 {
        fill: #343434;
      }

      .cls-2 {
        fill: #bcbcbc;
      }

      .cls-3 {
        fill: #787878;
      }

      .cls-4 {
        fill: #797979;
      }

      .cls-5 {
        fill: #cacaca;
      }

      .cls-6 {
        fill: #d3d3d3;
      }

      .cls-7 {
        fill: #e0e0e0;
      }

      .cls-8 {
        fill: #7a7a7a;
      }

      .cls-9 {
        fill: #ddd;
      }

      .cls-10 {
        fill: #ccc;
      }

      .cls-11 {
        fill: #7c7c7c;
      }

      .cls-12 {
        fill: #dfdfdf;
      }

      .cls-13 {
        fill: #7d7d7d;
      }

      .cls-14 {
        fill: #c8c8c8;
      }

      .cls-15 {
        fill: #d6d6d6;
      }

      .cls-16 {
        fill: #c6c6c6;
      }

      .cls-17 {
        fill: #d1d1d1;
      }

      .cls-18 {
        fill: #cfcfcf;
      }
    </style>
  </defs>
  <g>
    <g>
      <path class="cls-1" d="M248.52,520.78a8.78,8.78,0,0,1-6.52-3.15q-3.1-3.12-6.18-6.25c-5.5-5.57-11.18-11.33-17-16.71-3.3-3-6.7-6.12-10-9.1l-1-.9a12.89,12.89,0,0,1-4.49-7.76,26.29,26.29,0,0,0-2.09-6.08c-.39-.91-.8-1.85-1.17-2.81h0a11.12,11.12,0,0,1-8.6-6c-1.16-2.24-3.45-3.93-5.89-5.72l-1.28-.95a.45.45,0,0,0-.23-.05H184a11.13,11.13,0,0,1-1.13.06c-4.61,0-7.13-3.33-8-4.43a53.5,53.5,0,0,0-6.18-6.77l-1.65-1.62-23-23c-29.43-29.37-59.86-59.74-89.95-89.41-8.18-8.08-13.52-16-16.83-24.87-.53-1.45-.8-1.51-1-1.57l-.11,0-.1,0a6.11,6.11,0,0,1-3.09-2.22l-.09-.12c-1.46-2.2-3.58-3.33-7.09-3.79-3.86-.5-6.7-3-8.5-4.8-3.32-3.37-6.85-7-10.5-10.48a9.42,9.42,0,0,1-3.11-7.42c.12-9.74.1-19.51.07-27.9a8.93,8.93,0,0,1,2.72-6.63c20-20.54,40.67-41,61.46-60.69,2.12-2,4.25-4.16,6.32-6.23L193.56,54c2.88-2.89,6.13-3.59,9-4.21l.41-.09h.08l0-.12c.32-1,.69-1.9,1.1-2.81a29.26,29.26,0,0,1,6.25-9.61c9.87-9.66,19.43-19.44,28.3-28.57a11.63,11.63,0,0,1,7.91-3.83c6.93-.55,14-.64,20.78-.73,3.45,0,7-.09,10.51-.19a4.93,4.93,0,0,1,.55,0,6.3,6.3,0,0,1,4.28,1.68l.08.08c1,1,2.12,2,3.25,3.06,3.63,3.33,7.38,6.78,10,11.57.06.11.14.22.21.33a5.37,5.37,0,0,1,1,5c-.45,1.17-.14,2.06.78,4.15.22.51.46,1.05.68,1.63l.92-.05c.93-.05,1.81-.1,2.67-.19.41,0,.78-.05,1.14-.05A12.14,12.14,0,0,1,312.55,35q15.07,15.21,30.18,30.38a8,8,0,0,1,2.56,6.21c0,3.22,0,6.51,0,9.68,0,.48,0,1,0,1.42h0l.07,3.5c0,1.32,0,2.65,0,4,0,3.13,0,6.37.08,9.5a10,10,0,0,1-3.38,8c-4.94,4.86-9.91,9.79-14.77,14.67-6.9,7-12.43,12.9-17.41,18.68a14.67,14.67,0,0,1-8.55,5.19,33.5,33.5,0,0,0-5.9,2.05c-.87.37-1.77.74-2.69,1.09,0,.07,0,.14,0,.2a11.28,11.28,0,0,1-5.75,8.35c-2.44,1.29-4.23,3.75-6.12,6.36l-.69,1c.68,5.46-3.17,8.49-4.88,9.81a79,79,0,0,0-7,6.53l-80,80.13c35,35,70.4,70.35,105.12,105.12,3,3,5.89,6.5,6.4,11.52.75.25,1.52.55,2.42.93a29.86,29.86,0,0,1,10.13,6.52c8,8.21,16.3,16.33,24.31,24.18l4.45,4.35a10.76,10.76,0,0,1,3.49,7.24c.6,6.92.69,14,.78,20.76.05,3.52.1,7.16.22,10.75a6.3,6.3,0,0,1-1.44,4.83l-.09.1-.09.1c-1,1.05-2,2.13-3.08,3.27-3.38,3.69-6.89,7.5-11.76,10.12l-.26.18a5.73,5.73,0,0,1-3.3,1.2,4.42,4.42,0,0,1-1.4-.23,3.72,3.72,0,0,0-1.14-.18,11,11,0,0,0-4,1.2l-.75.31c1.33,8-3.1,13.42-7.68,17.71-6.85,6.4-13.58,13.21-20.1,19.8q-3.19,3.26-6.42,6.48a8.08,8.08,0,0,1-6.05,2.71h-.9c-9.37,0-19,0-28.48.14h-.13Z" transform="translate(-0.1 -0.29)"/>
      <path class="cls-1" d="M278.49,7.29a2.81,2.81,0,0,1,1.9.75c4.44,4.38,9.54,8.14,12.59,13.8.43.8,1.3,1.61,1,2.45-1.36,3.52.95,6.21,1.83,9.22a1.62,1.62,0,0,0,1.6,1.36l.26,0,.14,0c1.62-.13,3.26-.16,4.88-.33q.39,0,.78,0a8.59,8.59,0,0,1,6.51,3Q325.13,52.7,340.3,68a4.5,4.5,0,0,1,1.49,3.58c-.07,4.9,0,9.8,0,14.7h.07c0,4.54-.13,9.09.06,13.62a6.4,6.4,0,0,1-2.26,5.22q-7.47,7.35-14.87,14.78c-6.07,6.12-12,12.37-17.63,18.91a11.14,11.14,0,0,1-6.54,4c-3.33.67-6.46,2.32-9.69,3.5-1.24.45-1.45,1.45-1.68,2.55-.51,2.53-1.4,4.58-4,6-3.49,1.83-5.7,5.24-8,8.38a3.32,3.32,0,0,0-.62,2.32c.42,3.15-1.3,5-3.58,6.76a85.24,85.24,0,0,0-7.37,6.85q-40,40.08-80,80.15c-2,2-1.82,3,.07,4.86q52.6,52.53,105.13,105.13c2.8,2.79,5.09,5.61,5.42,9.65a2.87,2.87,0,0,0,2.27,2.69c.77.26,1.53.56,2.29.88a26.66,26.66,0,0,1,9,5.78c9.45,9.68,19.15,19.11,28.8,28.58a7.23,7.23,0,0,1,2.4,4.93c.91,10.51.64,21,1,31.57a2.79,2.79,0,0,1-.62,2.27c-4.44,4.51-8.26,9.68-14,12.77-.62.34-1.25,1-1.9,1a1.18,1.18,0,0,1-.31,0,7.16,7.16,0,0,0-2.23-.36c-2.38,0-4.51,1.18-6.77,2.07-1.22.49-2,.91-1.67,2.24,1.71,6.85-1.58,11.38-6.36,15.85-9.14,8.55-17.84,17.58-26.68,26.45a4.59,4.59,0,0,1-3.49,1.6h0c-9.79,0-19.59,0-29.39.14a5.27,5.27,0,0,1-4-2c-7.76-7.77-15.34-15.72-23.4-23.18-3.66-3.38-7.37-6.73-11.07-10.08a9.49,9.49,0,0,1-3.32-5.7c-.58-3.58-2.45-6.8-3.69-10.2-.41-1.13-1.34-1.34-2.36-1.54-2.64-.49-4.75-1.44-6.17-4.17-1.77-3.42-5.13-5.56-8.17-7.85a4,4,0,0,0-2.33-.75l-.51,0a6.23,6.23,0,0,1-.74,0c-2.27,0-3.8-1.23-5.17-3-2.34-3.25-5.32-5.94-8.15-8.76-37.67-37.57-75.19-75.14-113-112.42-7-6.92-12.59-14.42-16-23.6-.65-1.75-1.48-3.26-3.48-3.75a2.57,2.57,0,0,1-1.31-.94c-2.28-3.43-5.57-4.8-9.55-5.32-2.54-.33-4.64-1.94-6.47-3.79-3.5-3.56-7-7.1-10.6-10.58a6,6,0,0,1-2-4.76c.12-9.35.11-18.7.08-28.06a5.37,5.37,0,0,1,1.68-4.08Q39,211.85,70.26,182.14c2.89-2.76,5.69-5.61,8.52-8.43L196,56.45c2.22-2.23,4.82-2.73,7.52-3.31a3.34,3.34,0,0,0,2.86-2.48,26.24,26.24,0,0,1,1-2.54,25.86,25.86,0,0,1,5.53-8.53c9.6-9.4,19-19,28.35-28.63a8.31,8.31,0,0,1,5.59-2.73c10.42-.82,20.86-.6,31.28-.92l.33,0m0-7c-.25,0-.5,0-.74,0-3.44.1-7,.15-10.37.19-6.85.09-13.94.18-21,.74a15.16,15.16,0,0,0-10.18,4.92c-8.85,9.12-18.38,18.86-28.14,28.42l-.06,0-.05.06a32.29,32.29,0,0,0-7,10.67c-.2.43-.38.86-.55,1.29a18.4,18.4,0,0,0-9.36,4.85L73.83,168.76l-2.12,2.12c-2,2.06-4.17,4.19-6.28,6.2-20.8,19.73-41.5,40.17-61.5,60.73A12.41,12.41,0,0,0,.18,247c0,8.38.05,18.11-.07,27.77a12.94,12.94,0,0,0,4.21,10.06c3.6,3.49,7.11,7,10.39,10.38,2.18,2.2,5.63,5.18,10.56,5.82,3.16.41,4,1.34,4.63,2.26l.08.12.09.13A9.51,9.51,0,0,0,34,306.64c3.49,9.33,9.08,17.59,17.58,26,30.15,29.72,60.64,60.14,90.11,89.57L164.58,445l1.67,1.64a50.36,50.36,0,0,1,5.74,6.25l0,.07.05.06c2.92,3.86,6.53,5.82,10.75,5.82h.35l.34.25c2.09,1.54,4.07,3,4.85,4.5a14.39,14.39,0,0,0,9.17,7.4l.51,1.19a24.2,24.2,0,0,1,1.84,5.22v.05a16.4,16.4,0,0,0,5.64,9.82l1.08,1c3.24,2.93,6.58,6,9.83,8.95,5.75,5.33,11.41,11.07,16.89,16.62q3,3.07,6.07,6.14a12.25,12.25,0,0,0,9,4.28h.27c9.75-.14,19.69-.14,29.29-.14a11.62,11.62,0,0,0,8.63-3.8q3.19-3.21,6.38-6.44c6.49-6.56,13.19-13.34,20-19.7,2.94-2.75,9.29-8.69,9-18a3.8,3.8,0,0,1,1-.26l2.23-6.64-2.18,6.65a7.77,7.77,0,0,0,2.49.4,9.21,9.21,0,0,0,5.26-1.8l.1-.07c5.31-2.89,9.15-7.07,12.54-10.77,1-1.11,2-2.17,3-3.18l.19-.19.18-.21a9.8,9.8,0,0,0,2.25-7.34c-.12-3.5-.16-7.08-.21-10.53-.09-6.85-.19-13.93-.8-21a14.19,14.19,0,0,0-4.57-9.47l-4.32-4.24c-8-7.86-16.32-16-24.28-24.14l-.06-.06-.06-.06A33.52,33.52,0,0,0,303.49,376l-.61-.25c-1.13-5-4.14-8.54-7.05-11.44-34-34.06-68.54-68.58-102.64-102.64l77.45-77.59.05-.06.06,0a76.84,76.84,0,0,1,6.67-6.22c1.74-1.34,6.37-5,6.28-11.51,1.62-2.24,3.16-4.35,4.81-5.22l.05,0,.05,0a14.21,14.21,0,0,0,7.1-9l1-.44a30.68,30.68,0,0,1,5.26-1.85,18.21,18.21,0,0,0,10.54-6.38c4.91-5.71,10.39-11.58,17.21-18.46,4.84-4.85,9.77-9.76,14.67-14.57a13.53,13.53,0,0,0,4.49-10.68c-.13-3-.1-6.08-.08-9.31,0-1.33,0-2.66,0-4v-7h-.09c0-2.49,0-5,0-7.5a11.46,11.46,0,0,0-3.63-8.82q-15-15.12-30.06-30.27a15.63,15.63,0,0,0-11.63-5.18c-.47,0-.94,0-1.4.06H302l-1,.08a8.73,8.73,0,0,1-.4-1,8.82,8.82,0,0,0-1.42-8l-.09-.13c-2.87-5.26-7-9-10.62-12.38-1.11-1-2.16-2-3.16-3L285.23,3l-.08-.08A9.81,9.81,0,0,0,278.49.29Z" transform="translate(-0.1 -0.29)"/>
    </g>
    <path class="cls-2" d="M71.94,187.11l45.39-46.55c12.84-13.08,25.79-26,38.67-39.06q20.4-20.61,40.7-41.27a9.36,9.36,0,0,1,6.12-3c3-.3,5.59-1.33,6.61-4.92a31.22,31.22,0,0,1,9.08-14.2c8.5-8,16.63-16.46,24.84-24.79a7.45,7.45,0,0,1,5.2-2.4c9.52-.59,19-.18,28.54,0a4.32,4.32,0,0,1,3.13,1.39c2.4,2.47,4.74,5,7.28,7.33,2.2,2,3.23,4.29,2.67,7.24a4.9,4.9,0,0,0,.21,3.88,13.78,13.78,0,0,1,.95,3c.12.77.22,1.46-.47,2a1.78,1.78,0,0,1-2.24-.26A76.8,76.8,0,0,1,280.41,28a54.71,54.71,0,0,0-5.92-5.57c3,4.88,43.9,46.55,47,47.94.37-1.36-.69-2-1.36-2.65-3.3-3.38-6.59-6.76-10-10-5.13-4.88-9.64-10.35-14.67-15.31-.87-.86-2.21-1.67-1.7-3.15s2.09-.67,3.12-1.12c.3-.13.71,0,1-.25,5-1,8.59.91,12.05,4.7,8.5,9.31,17.44,18.21,26.27,27.21a6.77,6.77,0,0,1,2.1,5.31c-.15,7.35-.15,14.7-.1,22a9.32,9.32,0,0,1-3,7.21c-9.19,9-18.21,18.22-27.28,27.37a24.3,24.3,0,0,0-2.66,3.07c-1.68,2.4-4.1,3.36-6.83,3.83a73.24,73.24,0,0,0-9.87,4.42,5,5,0,0,0-2.7,2.37c-2.24,5.36-6,9.66-10.19,13.51a5.81,5.81,0,0,0-2.28,4.87,3.32,3.32,0,0,1-1.72,3.21,39.4,39.4,0,0,0-5.17,5c-28.37,29.14-57.25,57.76-86,86.5-.67.68-1.34,1.4-2,2.14-.77.9-.75,1.52.12,2.22q55,54.33,110,108.62a10,10,0,0,1,3.41,6.79c.22,2.89,1.37,5.39,4.82,6.39A31.23,31.23,0,0,1,311,393.67c8,8.5,16.46,16.64,24.78,24.87a7.35,7.35,0,0,1,2.44,5.17c.59,9.53.19,19.05,0,28.57a4,4,0,0,1-1.16,3c-3.12,3-6.21,6.1-9.36,9.11-1.55,1.47-3.33,2.14-5.42,1.08a4.83,4.83,0,0,0-3.87.21,14.16,14.16,0,0,1-3,.95c-.77.12-1.47.23-2-.46a1.82,1.82,0,0,1,.26-2.25c2.17-3.05,4.94-5.55,7.52-8.21,1.74-1.79,3.69-3.39,4.93-5.64-16.35,14.89-32,30.49-48,46.51,2.09.57,2.69-.49,3.38-1.16,3.38-3.3,6.75-6.59,10-10,4.88-5.14,10.35-9.65,15.31-14.69.85-.87,1.67-2.21,3.15-1.69s.66,2.08,1.11,3.11c.13.31,0,.72.25,1,1,5-.91,8.59-4.7,12-9.3,8.5-18.19,17.45-27.18,26.29a6.81,6.81,0,0,1-5.31,2.1c-7.34-.14-14.68-.15-22-.1a9.3,9.3,0,0,1-7.21-3c-9.09-9.25-18.34-18.34-27.54-27.49a12.19,12.19,0,0,0-2-1.86,9.49,9.49,0,0,1-4.74-7.46,73.91,73.91,0,0,0-4.38-9.84,5.23,5.23,0,0,0-2.47-2.77,36.63,36.63,0,0,1-13.11-10,6,6,0,0,0-5.44-2.49,2.53,2.53,0,0,1-2.42-.89c-4.21-5.51-9.62-9.84-14.51-14.68Q112.78,377.87,57.61,322.31c-3.58-3.68-7.58-6.91-10.75-11l-1.12-1.61c-.91-2-1.2-4.21-1.88-6.29A12.23,12.23,0,0,0,39.47,297c-.19-.14-.48-.27-.57-.41-2.87-4.94-7.53-6-12.74-6-1.53.07-2.52-1-3.48-1.88-3.25-3.13-6.44-6.35-9.65-9.53a14.23,14.23,0,0,1-1.31-6.46c-.1-7.34.38-14.69-.27-22a3.88,3.88,0,0,1,1.13-2.92c1.9-2.19,3.77-4.41,5.88-6.42C26.22,234,33.65,226.31,41,218.55,51.23,208,61.89,197.83,71.94,187.11Z" transform="translate(-0.1 -0.29)"/>
    <path class="cls-3" d="M46.86,311.31c4.09,3.85,8.28,7.61,12.25,11.57q45.3,45.18,90.53,90.4c10.28,10.25,20.71,20.34,31,30.54,2.21,2.18,3.94,5,7.73,4.61a2.77,2.77,0,0,1,2.24,1.39,36.85,36.85,0,0,0,14,10.88,3.69,3.69,0,0,1,1.6,1.4c2,3.65,4,7.33,4.48,11.57-2-2.73-3.07-5.95-4.7-8.88a9.69,9.69,0,0,0-4.53-4c-3.45-1.74-6.35-4.42-9.23-7-2.46-2.23-4.47-5.13-8.41-4.76a2.24,2.24,0,0,1-1.79-1.12c-3-3.94-6.92-6.92-10.38-10.37Q113,378.89,54.57,320.16C51.83,317.41,48,315.47,46.86,311.31Z" transform="translate(-0.1 -0.29)"/>
    <path class="cls-4" d="M311.41,473.12c-1.64-3.57-1.58-3.5-4.6-.64C298,480.82,289.4,489.41,280.86,498c-1.07,1.08-2,2.13-3.6.6s-.58-2.49.51-3.57l42.59-42c1.75-1.72,3.59-3.33,5.41-5,.8-.71,1.68-1.68,2.76-.49.93,1,.47,2-.35,2.9-3,3.12-6.12,6.19-9.14,9.32-1.68,1.74-3.27,3.57-5.18,5.67,3.14.18,5.83-1.92,8.5-.13-3.32.25-6.13,2.17-9.4,2.78C310.57,468.65,311.77,471.39,311.41,473.12Z" transform="translate(-0.1 -0.29)"/>
    <path class="cls-4" d="M297.86,37.84c-3.57,1.64-3.5,1.58-.64,4.6,8.34,8.84,16.92,17.43,25.55,26,1.08,1.07,2.13,2,.6,3.61s-2.49.58-3.57-.51q-21-21.32-41.94-42.63c-1.71-1.74-3.32-3.59-4.95-5.41-.71-.8-1.68-1.68-.49-2.77,1-.92,2.05-.46,2.9.36,3.11,3,6.18,6.12,9.31,9.14,1.74,1.68,3.57,3.28,5.67,5.19.18-3.15-1.92-5.83-.13-8.51.25,3.32,2.17,6.14,2.78,9.41C293.4,38.68,296.14,37.47,297.86,37.84Z" transform="translate(-0.1 -0.29)"/>
    <path class="cls-3" d="M178.58,262.83c-1.65-.68-1.72-1.68-.57-2.91.56-.59,1.14-1.16,1.72-1.74q29.39-29.44,58.75-58.91c10.29-10.35,20.42-20.84,30.69-31.21,2-2,4.23-3.62,3.93-6.91a3.1,3.1,0,0,1,1.47-2.49,36.43,36.43,0,0,0,10.86-14,3.74,3.74,0,0,1,1.4-1.6c3.65-2,7.32-4,11.56-4.47-2.74,2-6,3.07-8.88,4.7a9.69,9.69,0,0,0-4,4.53c-1.73,3.46-4.42,6.36-7,9.24-2.22,2.46-5.12,4.48-4.75,8.42a2.18,2.18,0,0,1-1.12,1.79c-3.94,3-6.92,6.92-10.37,10.39q-40.83,41-81.74,81.89C179.62,260.44,178.09,261.08,178.58,262.83Z" transform="translate(-0.1 -0.29)"/>
    <path class="cls-3" d="M71.94,187.11a6.51,6.51,0,0,1-2.1,2.79l-51,51.66c-1.78,1.8-3.38,3.78-5.15,5.59-1.15,1.19-1.14,2.6-1.11,4.06.22,9.32-.56,18.67.44,28-1.72-1.13-2.1-2.84-2.11-4.74,0-6.63.55-13.33-.27-19.86-.61-4.74,1.39-7.49,4.3-10.24C24.24,235.45,33,226,42.1,216.89s18.35-18.35,27.37-27.68C70.22,188.44,71.11,187.81,71.94,187.11Z" transform="translate(-0.1 -0.29)"/>
    <path class="cls-4" d="M26.16,290.6c1.61-.17,3.21-.42,4.83-.5,3.09-.15,5.64.78,7.3,3.65a10.68,10.68,0,0,0,2.56,3.11c4.27,3.31,5,7.87,4.89,12.81-1.89-1.52-2.19-3.89-3.08-5.93-1.21-2.74-2.12-5.67-5.53-6.53a1.22,1.22,0,0,1-.64-.48C34.13,292.86,30.26,291.54,26.16,290.6Z" transform="translate(-0.1 -0.29)"/>
    <path class="cls-4" d="M216.73,205.1a61,61,0,0,0-7.57,7.59,1.1,1.1,0,0,1-1,1.17H208a19.21,19.21,0,0,0-5.08,5.32.5.5,0,0,1-.44.45L167,255c-4,4-4,4,0,8L325.44,421.47a8.76,8.76,0,0,1,2.63,3.41c.19.61.41,1.32-.14,1.79s-1.15-.1-1.6-.5-1-1-1.55-1.52L163.33,263.07l-1.15-1.15c-3.48-3.47-3.48-3.48.14-7.09l44.26-44.28c.7-.7,1.3-1.51,1.94-2.26a12.44,12.44,0,0,1,2.69-4.13c3.75-3.9,7.59-7.69,11.44-11.48.77-.77,1.54-1.57,2.8-1.2.8-.74,1.63-1.44,2.39-2.21q32.41-32.46,64.81-65c7.49-7.52,14.88-15.14,22.32-22.7a21.7,21.7,0,0,1,1.78-1.68,1.65,1.65,0,0,1,2.61.29,1.62,1.62,0,0,1-.05,2.29l-.15.12c-8,7.78-16,15.6-24,23.34-6.34,6.1-12.6,12.28-18.64,18.68-.87.93-1.71,1.88-2.6,2.78l-52.07,52.28c-.82.83-1.56,1.75-2.34,2.63C219.66,204.31,218.3,204.83,216.73,205.1Z" transform="translate(-0.1 -0.29)"/>
    <path class="cls-4" d="M129.62,377.75c-.84-.94-1.63-1.94-2.53-2.83Q77.14,325,27.16,275.06a20.37,20.37,0,0,1-1.52-1.56c-.6-.76-2.13-1.43-.88-2.6,1-1,2.22-.4,3.16.48l8.51,8c.73.68,1.49,1.33,2.23,2,.74,0,1,.42,1.05,1.1.68.73,1.33,1.49,2,2.19q48.84,48.85,97.67,97.64c.51.51,1.06,1,1.6,1.46a7.2,7.2,0,0,1,3.47,2c4.43,4,8.58,8.35,12.77,12.63a2.18,2.18,0,0,1,.65,2.23c.74.8,1.45,1.62,2.21,2.39q32.43,32.43,64.89,64.85c7.51,7.5,15.12,14.89,22.69,22.33a23.44,23.44,0,0,1,1.67,1.79,1.65,1.65,0,0,1,.06,2.33,1.6,1.6,0,0,1-.35.28,1.62,1.62,0,0,1-2.29-.06l-.12-.14c-7.77-8-15.58-16-23.32-24-6.1-6.34-12.27-12.61-18.67-18.65-.92-.87-1.88-1.71-2.78-2.6L149.65,397c-.83-.83-1.75-1.57-2.63-2.35-2,.16-2.49-1.21-2.76-2.78a60.31,60.31,0,0,0-7.59-7.57,1.1,1.1,0,0,1-1.15-1.06.22.22,0,0,1,0-.08c-1.59-1.87-3-3.91-5.36-5C129.64,378.44,129.48,378.31,129.62,377.75Z" transform="translate(-0.1 -0.29)"/>
    <path class="cls-4" d="M251.66,21.79a5.07,5.07,0,0,1-1.68,2.1q-19.14,19.19-38.29,38.34Q138.37,135.61,65,209c-11.46,11.5-22.78,23.14-33.67,35.19-2.13,2.36-3.76,5.13-6.11,7.3-.69.63-1.26,1.91-2.4.87S21,250.31,22,248.81a9.52,9.52,0,0,1,1.3-1.39C35.12,235.61,47,223.92,58.73,212c61.91-63.21,125-125.27,187.34-188,1.15-1.15,2.16-2.51,3.87-2.89C250.61,20.94,251.42,20.72,251.66,21.79Z" transform="translate(-0.1 -0.29)"/>
    <path class="cls-5" d="M157.87,400.66,141,383.81c3.06.42,3.72-1.19,3.37-3.85a2.52,2.52,0,0,1,.89-2.81c.78.69.19,1.5.24,2.21.07,1-.83,2.34,1.3,2.38.73,0,.71,1.34.78,2.15a2.77,2.77,0,0,0,.81,2.23,3,3,0,0,0,1.67.75c1-.07.7-1.07.84-1.73.52-2.42.71-4.92,1.7-7.4,1.33,1,.92,2,.77,2.94-.24,1.53-.61,3-.84,4.55a4.7,4.7,0,0,0,4,5.26,3.6,3.6,0,0,0,.56,0c1.13,0,1.34-.78,1.52-1.57.36-1.6.64-3.21,1-4.81.09-.44.2-1,.79-.85s.61.64.55,1.09a22.82,22.82,0,0,1-.54,3.49c-.76,2.72.07,4.35,2.71,5.61,8.42,4,16.72,8.3,25.07,12.49.85.43,1.83.72,2.3,1.78-10.24-4.29-19.82-10-30.41-13.6,6.18,4,13,7,19.13,11.09-4.4-1-7.8-5-12.71-4.48,1.74,1.85,4.27,2.33,5.89,4.31Z" transform="translate(-0.1 -0.29)"/>
    <path class="cls-5" d="M225.45,191.48c-5.53,5.72-11,11.5-16.93,16.81.7-3.18-1.1-3.51-3.59-3.28-1,.09-2.19.38-2.88-.82.45-.89,1.12-.31,1.68-.37,1.08-.12,2.72,1.13,2.86-1.32,0-.6,1.21-.63,1.93-.69a3.47,3.47,0,0,0,2.29-.68,2.18,2.18,0,0,0,.88-1.9c-.16-.82-1-.63-1.57-.74a43.07,43.07,0,0,1-7.52-1.7c.8-1.29,1.82-1,2.71-.82,1.88.29,3.76.62,5.62,1a2.37,2.37,0,0,0,2.89-1.33c2.39-4.11,2.23-4.43-2.52-5.51-1.08-.24-3.27.24-3-1.23.23-1.29,2.23-.26,3.39-.11,4.91.65,4.9.71,7.07-3.62q6-12,12-24.07c.42-.83.56-1.93,2.18-2.52-4.78,10.49-10.38,20.14-14,30.69,4.07-6.18,7-13,11.12-19.15-1.08,4.4-5,7.78-4.86,13.35,2.41-2.16,2.54-5,4.83-7C228.4,181.8,226.92,186.64,225.45,191.48Z" transform="translate(-0.1 -0.29)"/>
    <path class="cls-6" d="M36,274.31c-1-1.28,0-3.23-1.34-4.53-1.19,1.05.23,2.3-.66,3.17-3.5-1.24-3.63-6.13-7.76-6.54,1-1.61,3,.27,3.08-1.31,0-1.74-2.32-1.26-3.42-2.17.62-.93,1.33-.24,2-.24,1,0,1.16-.23,1-1.29-.43-2.63-.6-5.3-.82-8,0-.28.28-.59.45-.93,2.4,2,4.44,4.31,8,4.43.45-.3-.38-1.57.74-2.12A10.74,10.74,0,0,1,38.77,261c-.07,2.3,1.08,4.36.7,6.64-.21,1.26.92,1.59,1.85,2,.41.18,1.26.21.82,1-.16.27-.81.26-1.23.38-1.74-.59-2.15.59-2.53,1.86S37.59,275.18,36,274.31Z" transform="translate(-0.1 -0.29)"/>
    <path class="cls-7" d="M179.72,103.72a18.28,18.28,0,0,1-3.52,4.81c-12.15,11.47-22.91,24.27-34.83,35.95-2.46,2.41-5,4.72-7.56,7.05-.44.4-.92,1.12-1.59.55s-.17-1.18.18-1.71a5.65,5.65,0,0,1,.71-.83c9.28-9.31,18.48-18.68,27.14-28.6,5.59-6.39,12.2-11.89,18.35-17.79C179.19,102.91,179.52,103.2,179.72,103.72Z" transform="translate(-0.1 -0.29)"/>
    <path class="cls-7" d="M245.57,354.9a13.78,13.78,0,0,1-4.77-3.52c-10.92-11.54-23-21.85-34.22-33.12-2.93-3-5.74-6.05-8.58-9.1-.45-.49-1.4-1-.75-1.77s1.47,0,2.12.48a3.57,3.57,0,0,1,.4.37c9.36,9.37,18.82,18.61,28.78,27.36,6.31,5.54,11.73,12.1,17.55,18.19C246.36,354.37,246.09,354.69,245.57,354.9Z" transform="translate(-0.1 -0.29)"/>
    <path class="cls-8" d="M272.41,501q-8.61-1-17.21-1.92a3.86,3.86,0,0,1-1-.25c-1-.42-2.35-.85-2.08-2.11s1.67-.83,2.57-.71q8.19,1,16.35,2.29a6.28,6.28,0,0,1,2.2,1c.52.32,1.08.85.69,1.55S272.92,501.14,272.41,501Z" transform="translate(-0.1 -0.29)"/>
    <path class="cls-8" d="M320.65,94.88c.79-5.49,1.58-11.13,2.42-16.75a5,5,0,0,1,.72-1.74c.37-.6.84-1.36,1.68-1s.37,1.09.3,1.68q-.93,8.48-1.94,17a4.94,4.94,0,0,1-.42,1.56c-.37.83-.82,1.86-1.85,1.71C320.28,97.07,320.85,95.84,320.65,94.88Z" transform="translate(-0.1 -0.29)"/>
    <path class="cls-9" d="M192.21,90.09c5.35-5.51,11-10.67,16.82-15.73,1.09-1,2.22-1.85,3.33-2.78,1.33.16.91.9.54,1.62-6.44,6.1-12.63,12.47-19.61,18C192.1,91.64,191.81,91.21,192.21,90.09Z" transform="translate(-0.1 -0.29)"/>
    <path class="cls-9" d="M276,388.12c-6.1-6.44-12.41-12.68-18-19.62-.41-1.14-.08-1.53,1.08-1.08a224.35,224.35,0,0,1,16.39,17.67l2.09,2.49C277.52,388.92,276.76,388.43,276,388.12Z" transform="translate(-0.1 -0.29)"/>
    <path class="cls-10" d="M212.9,73.2l-.54-1.62A75.54,75.54,0,0,0,224.9,58.91a66,66,0,0,1,10.81-9.85c.65,1.35-.2,1.88-.75,2.3-7.12,5.54-12.29,13-18.63,19.25A10.51,10.51,0,0,1,212.9,73.2Z" transform="translate(-0.1 -0.29)"/>
    <path class="cls-10" d="M276,388.12l1.59-.54a84.07,84.07,0,0,0,12.92,12.73A56.4,56.4,0,0,1,300.17,411a1.72,1.72,0,0,1-2.26-.81c-5.53-7.13-13-12.3-19.24-18.64A11.62,11.62,0,0,1,276,388.12Z" transform="translate(-0.1 -0.29)"/>
    <path class="cls-11" d="M23.4,264.84v1.6c0,.89.06,1.94-1.1,2.21a2.28,2.28,0,0,1-2.61-1.48c-.79-1.52-.59-3.18-.53-4.79s.26-3.06.41-4.58c.09-.82.12-1.76,1.22-1.81a1.84,1.84,0,0,1,2,1.65v.16C23,260.22,23.21,262.65,23.4,264.84Z" transform="translate(-0.1 -0.29)"/>
    <path class="cls-12" d="M336.36,433.75a37.47,37.47,0,0,1-.43,9.75c-.1.52-.07,1.21-.83,1.13-.51-.05-.64-.6-.68-1.05-.07-.81-.11-1.63-.1-2.45a100.94,100.94,0,0,0-.76-14.64c-.1-.87-.51-2,.82-2.17a1.71,1.71,0,0,1,1.93,1.46,1.53,1.53,0,0,1,0,.37C336.44,428.68,336.36,431.22,336.36,433.75Z" transform="translate(-0.1 -0.29)"/>
    <path class="cls-12" d="M258.28,12.82a42.9,42.9,0,0,1,10,.48c.43.09,1,0,1.08.61s-.56.86-1.07.9a27.25,27.25,0,0,1-3.26.1,105.88,105.88,0,0,0-13.55.72c-.92.09-2.2.7-2.4-.81-.17-1.34,1-1.93,2.12-2C253.57,12.75,255.93,12.82,258.28,12.82Z" transform="translate(-0.1 -0.29)"/>
    <path class="cls-13" d="M258.43,20.31c-1-.11-2.32.36-2.57-.93s1-1.89,2.08-2a61.38,61.38,0,0,1,9.94-.86c.69,0,1.57-.1,1.7.89a1.64,1.64,0,0,1-1.08,1.72,6.88,6.88,0,0,1-2.32.62A50.34,50.34,0,0,0,258.43,20.31Z" transform="translate(-0.1 -0.29)"/>
    <path class="cls-13" d="M332.79,441.31c-.42,1.15.79,3.25-1,3.39-2.05.15-2.17-2-2.3-3.63-.18-2.43-.37-4.85-.48-7.28,0-1-.52-2.5.94-2.7s1.88,1.24,2,2.4C332.32,436.08,332.52,438.69,332.79,441.31Z" transform="translate(-0.1 -0.29)"/>
    <path class="cls-14" d="M208,213.86l1.13-1.17c.73-.32,1.45-.65,2.58-1.17-1.28,4.61-3.53,8.38-5.58,12.23a1.27,1.27,0,0,1-1.72.55l-.17-.1c-.77-.46-.31-1.13-.07-1.68C205.46,219.63,206.75,216.75,208,213.86Z" transform="translate(-0.1 -0.29)"/>
    <path class="cls-14" d="M135.51,383.22l1.16,1.14,1.18,2.58c-4.61-1.29-8.38-3.53-12.22-5.58a1.3,1.3,0,0,1-.56-1.74l.1-.16c.47-.76,1.14-.3,1.69-.06C129.75,380.66,132.62,381.94,135.51,383.22Z" transform="translate(-0.1 -0.29)"/>
    <path class="cls-5" d="M36,274.31a1.8,1.8,0,0,0,1-1.2c.73-3.24.74-3.24,3.94-2.1-1.65,1.1-1,2.69-.86,4.15.29,2.48.77,5-.3,7.38l-1.05-1.1c.09-1.46,0-2.8-1.43-3.76C36.09,276.88,36,275.54,36,274.31Z" transform="translate(-0.1 -0.29)"/>
    <path class="cls-15" d="M308.41,68.85a1.43,1.43,0,0,1-1.65-.07,85.64,85.64,0,0,1-8.89-7.93c-.55-.56-1.28-1.44-.68-2.14s1.56.13,2,.61C302.35,62.37,306.25,64.68,308.41,68.85Z" transform="translate(-0.1 -0.29)"/>
    <path class="cls-15" d="M280.4,483.68a1.5,1.5,0,0,1,.1-1.67,87,87,0,0,1,7.93-8.9c.55-.54,1.44-1.28,2.13-.66s-.15,1.57-.62,2.05C286.89,477.61,284.59,481.54,280.4,483.68Z" transform="translate(-0.1 -0.29)"/>
    <path class="cls-16" d="M216.73,205.1a10.28,10.28,0,0,1,2.78-2.76c2.41-.41,4.83.39,7.62-.42-.78,1.77-1.86,2.56-3.21,2.64-2.13.13-3.82,1.58-5.9,1.77-.72.07-.64.75-.77,1.25-.23.84-.33,1.81-1.61,1.85C215.13,207.74,216.35,206.52,216.73,205.1Z" transform="translate(-0.1 -0.29)"/>
    <path class="cls-16" d="M144.26,391.93a10,10,0,0,1,2.77,2.78c.41,2.41-.39,4.84.42,7.63-1.77-.79-2.56-1.86-2.64-3.21-.13-2.14-1.58-3.82-1.77-5.91-.06-.72-.75-.63-1.24-.77-.85-.23-1.81-.33-1.85-1.61C141.62,390.31,142.84,391.55,144.26,391.93Z" transform="translate(-0.1 -0.29)"/>
    <path class="cls-17" d="M192.21,90.09a1.78,1.78,0,0,0,1.08,1.08l-13.57,12.55-1.12-.57C182.69,98.31,187.52,94.31,192.21,90.09Z" transform="translate(-0.1 -0.29)"/>
    <path class="cls-17" d="M259.17,367.42a1.71,1.71,0,0,0-1.08,1.08q-6.25-6.81-12.52-13.6c.18-.37.36-.74.53-1.11C251,357.84,255,362.69,259.17,367.42Z" transform="translate(-0.1 -0.29)"/>
    <path class="cls-18" d="M253.38,31c-2.58,5.58-8.39,7.79-12.29,12C244,37.75,248.62,34.31,253.38,31Z" transform="translate(-0.1 -0.29)"/>
    <path class="cls-18" d="M306.24,416.31c5.26,2.89,8.69,7.54,12,12.3C312.66,426,310.45,420.21,306.24,416.31Z" transform="translate(-0.1 -0.29)"/>
    <path class="cls-5" d="M202.51,219.63l.45-.45c1-.49,1.88-.79,1.09.92-1.89,4.12-3.73,8.27-5.67,12.36-1,2.15-1.39,4.64-3.34,6.34C197.15,232.31,200.68,226.31,202.51,219.63Z" transform="translate(-0.1 -0.29)"/>
    <path class="cls-5" d="M272.73,32.77a9.38,9.38,0,0,1,1,.6,52.8,52.8,0,0,1,7.88,7.05c.37.4.86.88.5,1.42s-1,.16-1.37-.18l-8.52-7.16c-.42-.35-.88-.71-.6-1.36C271.82,32.77,272.17,32.69,272.73,32.77Z" transform="translate(-0.1 -0.29)"/>
    <path class="cls-5" d="M129.62,377.75c.18.17.35.35.53.51.36.75,1.11,1.8-.68,1.05-2.42-1-4.79-2.12-7.19-3.18l-10.64-4.7a2.15,2.15,0,0,1-1.32-1.64C117,372.39,123.09,375.73,129.62,377.75Z" transform="translate(-0.1 -0.29)"/>
    <path class="cls-5" d="M307.71,457.49c-.82-.2-.72-.73-.33-1.2q3.83-4.59,7.69-9.14a.75.75,0,0,1,1-.25.44.44,0,0,1,.15.12,1,1,0,0,1,.17,1,38.59,38.59,0,0,1-8.18,9.29C308.11,457.44,307.89,457.44,307.71,457.49Z" transform="translate(-0.1 -0.29)"/>
    <path class="cls-10" d="M335.51,447.15a9.29,9.29,0,0,1-.34,6.28c-.19.52-.59.94-1.24.7a.9.9,0,0,1-.5-1.12C333.84,451.15,333.77,449.11,335.51,447.15Z" transform="translate(-0.1 -0.29)"/>
    <path class="cls-10" d="M271.73,13.8a9.33,9.33,0,0,1,6.38.21,1,1,0,0,1,.83,1.15s0,0,0,.06a.84.84,0,0,1-1,.59h0C276,15.47,274,15.36,271.73,13.8Z" transform="translate(-0.1 -0.29)"/>
    <path class="cls-17" d="M321,60.45c-1.42-.25-1.78-1.62-2.5-2.59-.46-.63-1.06-1.28-.73-2.2a.26.26,0,0,1,.16-.2c1.84.17,2.23,2,3.45,3a1.08,1.08,0,0,1,.5,1.44.94.94,0,0,1-.32.39C321.43,60.37,321.22,60.37,321,60.45Z" transform="translate(-0.1 -0.29)"/>
    <path class="cls-17" d="M288.83,496.25c0-1,3.61-3.59,4.59-3.29.4.12.74.51.48.77-1.27,1.25-2.37,2.73-4,3.46C289.31,497.42,288.88,496.89,288.83,496.25Z" transform="translate(-0.1 -0.29)"/>
  </g>
</svg>
