<svg id="Laag_1" data-name="Laag 1" xmlns="http://www.w3.org/2000/svg" viewBox="0 0 345.24 231.79">
  <defs>
    <style>
      .cls-1 {
        fill: #fff;
      }
    </style>
  </defs>
  <g id="Group_16" data-name="Group 16">
    <g id="Group_15" data-name="Group 15">
      <path id="Path_7239" data-name="Path 7239" class="cls-1" d="M85.73,334.41c-1.06,1.57-2.49,1.67-3.73.12L58.38,304.27a2.88,2.88,0,0,1-.12-3.73L59.32,299a2.82,2.82,0,0,1,3.5-1.27l36.79,10.79c1.9.57,2.3,2,1.24,3.56l-.33.49A2.81,2.81,0,0,1,97,313.73l-7.16-2.2-8.68,12.85,4.76,5.86A2.83,2.83,0,0,1,86,334Zm-7.92-14.08,7.07-10.44L63.64,303Z" transform="translate(-57.63 -217.47)"/>
      <path id="Path_7240" data-name="Path 7240" class="cls-1" d="M104.41,307.88c-1.38,1.3-2.8,1.08-3.66-.7L84.4,272.45a2.88,2.88,0,0,1,.7-3.66l1.38-1.3a2.84,2.84,0,0,1,3.7-.47l33.48,18.66c1.73,1,1.81,2.44.43,3.74l-.43.4a2.82,2.82,0,0,1-3.7.39l-6.5-3.73-11.31,10.61,3.34,6.76a2.83,2.83,0,0,1-.7,3.67Zm-4.62-15.47,9.2-8.63L89.8,272.41Z" transform="translate(-57.63 -217.47)"/>
      <path id="Path_7241" data-name="Path 7241" class="cls-1" d="M128.51,286.11c-1.63,1-3,.44-3.41-1.49l-8.3-37.47a2.88,2.88,0,0,1,1.49-3.42l1.63-1a2.83,2.83,0,0,1,3.71.36l28.55,25.56c1.48,1.34,1.23,2.78-.4,3.74l-.51.3a2.81,2.81,0,0,1-3.69-.43l-5.52-5.07-13.37,7.86,1.77,7.34a2.82,2.82,0,0,1-1.49,3.41ZM127.42,270l10.86-6.39L122.07,248.3Z" transform="translate(-57.63 -217.47)"/>
      <path id="Path_7242" data-name="Path 7242" class="cls-1" d="M156.83,270.17c-1.8.58-3-.22-3-2.2l.1-38.39a2.89,2.89,0,0,1,2.21-3l1.8-.57a2.82,2.82,0,0,1,3.54,1.16l22.27,31.2c1.14,1.62.58,3-1.22,3.56l-.56.18a2.83,2.83,0,0,1-3.51-1.24l-4.27-6.15-14.77,4.74.13,7.55a2.84,2.84,0,0,1-2.21,3Zm2.46-16,12-3.85-12.47-18.5Z" transform="translate(-57.63 -217.47)"/>
      <path id="Path_7243" data-name="Path 7243" class="cls-1" d="M187.91,260.81c-1.88.17-2.87-.87-2.45-2.81L194,220.57a2.89,2.89,0,0,1,2.81-2.45l1.88-.17a2.83,2.83,0,0,1,3.21,1.91l14.91,35.31c.76,1.83-.09,3-2,3.2l-.59.06a2.81,2.81,0,0,1-3.15-2l-2.83-6.94-15.44,1.4-1.53,7.39a2.83,2.83,0,0,1-2.8,2.46Zm5.89-15,12.55-1.14-8.12-20.77Z" transform="translate(-57.63 -217.47)"/>
      <path id="Path_7244" data-name="Path 7244" class="cls-1" d="M223.52,258.87a2.4,2.4,0,0,1-2.35-2.44,2.61,2.61,0,0,1,.08-.56l4.93-36.05a2.41,2.41,0,0,1,2.45-2.35,2,2,0,0,1,.55.08l.47.06a2.39,2.39,0,0,1,2.35,2.45,2,2,0,0,1-.07.55L229.82,236,245,238.11l2.11-15.42a2.4,2.4,0,0,1,2.45-2.35,2.59,2.59,0,0,1,.55.07l.47.07a2.39,2.39,0,0,1,2.35,2.44,2.6,2.6,0,0,1-.07.56l-4.94,36a2.4,2.4,0,0,1-2.45,2.35,2.09,2.09,0,0,1-.55-.08l-.47-.06a2.39,2.39,0,0,1-2.35-2.45,2.59,2.59,0,0,1,.07-.55l2.14-15.59-15.18-2.08L227,256.66a2.39,2.39,0,0,1-2.44,2.35,2.6,2.6,0,0,1-.56-.07Z" transform="translate(-57.63 -217.47)"/>
      <path id="Path_7245" data-name="Path 7245" class="cls-1" d="M256.46,264.76a2.39,2.39,0,0,1-1.73-2.91,2.31,2.31,0,0,1,.19-.52l13-34a2.4,2.4,0,0,1,2.91-1.74,3.05,3.05,0,0,1,.53.2l.44.17a2.41,2.41,0,0,1,1.74,2.92,3,3,0,0,1-.2.52l-5.57,14.54,14.32,5.47,5.56-14.53a2.41,2.41,0,0,1,2.92-1.74,3,3,0,0,1,.52.2l.44.17a2.4,2.4,0,0,1,1.74,2.92,2.54,2.54,0,0,1-.2.52l-13,34a2.4,2.4,0,0,1-2.92,1.73,2.33,2.33,0,0,1-.52-.2l-.44-.17a2.4,2.4,0,0,1-1.74-2.92,2.54,2.54,0,0,1,.2-.52l5.62-14.7L266,248.7l-5.63,14.7a2.39,2.39,0,0,1-2.91,1.73,2,2,0,0,1-.53-.2Z" transform="translate(-57.63 -217.47)"/>
      <path id="Path_7246" data-name="Path 7246" class="cls-1" d="M287.26,278a2.4,2.4,0,0,1-1-3.23,2.13,2.13,0,0,1,.31-.47l20.3-30.21a2.4,2.4,0,0,1,3.23-1,2.94,2.94,0,0,1,.47.31l.39.27a2.4,2.4,0,0,1,1,3.23,2.47,2.47,0,0,1-.31.46L303,260.22l12.73,8.54,8.68-12.92a2.4,2.4,0,0,1,3.23-1,2.44,2.44,0,0,1,.47.32l.39.26a2.39,2.39,0,0,1,1,3.23,2.13,2.13,0,0,1-.31.47l-20.3,30.21a2.4,2.4,0,0,1-3.23,1,2.85,2.85,0,0,1-.46-.31l-.39-.27a2.39,2.39,0,0,1-1-3.23,2.32,2.32,0,0,1,.31-.46L312.85,273l-12.72-8.55-8.78,13.07a2.4,2.4,0,0,1-3.24,1,2.32,2.32,0,0,1-.46-.31Z" transform="translate(-57.63 -217.47)"/>
      <path id="Path_7247" data-name="Path 7247" class="cls-1" d="M314.26,297.77a2.39,2.39,0,0,1-.27-3.38,2.1,2.1,0,0,1,.41-.38l26.65-24.78a2.41,2.41,0,0,1,3.39-.28,2.46,2.46,0,0,1,.38.41l.32.35a2.4,2.4,0,0,1,.28,3.38,2.93,2.93,0,0,1-.41.38l-11.41,10.6L344,295.3l11.4-10.6a2.39,2.39,0,0,1,3.38-.27,2.05,2.05,0,0,1,.38.4l.33.35a2.41,2.41,0,0,1,.27,3.39,2.46,2.46,0,0,1-.41.38l-26.66,24.78a2.4,2.4,0,0,1-3.38.27,2.1,2.1,0,0,1-.38-.41l-.33-.35a2.4,2.4,0,0,1-.27-3.38,2.46,2.46,0,0,1,.41-.38l11.53-10.72-10.43-11.22-11.53,10.71a2.42,2.42,0,0,1-3.39.28,2.93,2.93,0,0,1-.38-.41Z" transform="translate(-57.63 -217.47)"/>
      <path id="Path_7248" data-name="Path 7248" class="cls-1" d="M336,323.17a2.4,2.4,0,0,1,.5-3.36,2.87,2.87,0,0,1,.48-.28l31.59-18.08a2.4,2.4,0,0,1,3.35.5,2.68,2.68,0,0,1,.28.49l.24.41a2.41,2.41,0,0,1-.51,3.36,2.87,2.87,0,0,1-.48.28L358,314.22l7.62,13.3,13.5-7.73a2.4,2.4,0,0,1,3.36.5,2.6,2.6,0,0,1,.28.49l.23.41a2.4,2.4,0,0,1-1,3.63L350.37,342.9a2.4,2.4,0,0,1-3.35-.51,1.94,1.94,0,0,1-.28-.48l-.24-.41a2.4,2.4,0,0,1,.51-3.36,2.87,2.87,0,0,1,.48-.28L361.15,330l-7.61-13.29-13.66,7.81a2.4,2.4,0,0,1-3.36-.5,2.31,2.31,0,0,1-.28-.48Z" transform="translate(-57.63 -217.47)"/>
      <path id="Path_7249" data-name="Path 7249" class="cls-1" d="M351.46,352.9a2.41,2.41,0,0,1,1.25-3.16,2,2,0,0,1,.54-.16l34.85-10.5a2.4,2.4,0,0,1,3.15,1.25,2,2,0,0,1,.16.54l.14.45a2.4,2.4,0,0,1-1.25,3.16,3.24,3.24,0,0,1-.53.16l-14.91,4.48,4.42,14.68,14.91-4.49a2.4,2.4,0,0,1,3.32,1.79l.14.45a2.4,2.4,0,0,1-1.79,3.32L361,375.36a2.4,2.4,0,0,1-3.16-1.25,3.24,3.24,0,0,1-.16-.53l-.13-.45a2.39,2.39,0,0,1,1.78-3.32l15.07-4.54L370,350.59l-15.07,4.54a2.4,2.4,0,0,1-3.16-1.25,2.49,2.49,0,0,1-.16-.53Z" transform="translate(-57.63 -217.47)"/>
      <path id="Path_7250" data-name="Path 7250" class="cls-1" d="M359.81,385.32a2.41,2.41,0,0,1,1.93-2.8,2.63,2.63,0,0,1,.56,0l36.31-2.34a2.41,2.41,0,0,1,2.8,1.93,2.54,2.54,0,0,1,0,.55l0,.48a2.4,2.4,0,0,1-1.93,2.79,2.55,2.55,0,0,1-.55,0l-15.54,1,1,15.29,15.53-1a2.38,2.38,0,0,1,2.79,1.93,2.09,2.09,0,0,1,0,.56l0,.47A2.4,2.4,0,0,1,400.9,407a2,2,0,0,1-.55,0L364,409.35a2.4,2.4,0,0,1-2.79-1.92,2.15,2.15,0,0,1,0-.56l0-.48a2.4,2.4,0,0,1,1.93-2.79,2.6,2.6,0,0,1,.56,0l15.7-1-1-15.29-15.71,1a2.4,2.4,0,0,1-2.79-1.93,2.09,2.09,0,0,1,0-.56Z" transform="translate(-57.63 -217.47)"/>
      <path id="Path_7251" data-name="Path 7251" class="cls-1" d="M360.6,418.78a2.39,2.39,0,0,1,2.51-2.28,2.62,2.62,0,0,1,.56.09l35.89,6a2.4,2.4,0,0,1,2.28,2.52,2.53,2.53,0,0,1-.09.55l-.08.47a2.4,2.4,0,0,1-2.51,2.28,2.62,2.62,0,0,1-.56-.09l-15.35-2.57-2.52,15.12,15.35,2.56a2.41,2.41,0,0,1,2.28,2.52,2.53,2.53,0,0,1-.09.55l-.08.47a2.42,2.42,0,0,1-2.52,2.28,2.53,2.53,0,0,1-.55-.09l-35.9-6a2.42,2.42,0,0,1-2.28-2.52,2.53,2.53,0,0,1,.09-.55l.08-.47a2.41,2.41,0,0,1,2.52-2.28,2.63,2.63,0,0,1,.55.09l15.53,2.6,2.53-15.12-15.53-2.6a2.39,2.39,0,0,1-2.28-2.51,2.62,2.62,0,0,1,.09-.56Z" transform="translate(-57.63 -217.47)"/>
    </g>
  </g>
</svg>
