<svg id="Laag_1" data-name="Laag 1" xmlns="http://www.w3.org/2000/svg" viewBox="0 0 375 812">
  <defs>
    <style>
      .cls-1 {
        fill: #81af73;
      }

      .cls-2 {
        fill: #6e975f;
      }

      .cls-3 {
        fill: #93c07e;
      }

      .cls-4 {
        fill: #5c7859;
      }

      .cls-5 {
        fill: #3d523f;
      }

      .cls-6 {
        fill: #2b3231;
      }

      .cls-7 {
        fill: #2b3232;
      }

      .cls-8 {
        fill: #2b3332;
      }

      .cls-9 {
        fill: #2c3233;
      }

      .cls-10 {
        fill: #2c3332;
      }

      .cls-11 {
        fill: #445942;
      }

      .cls-12 {
        fill: #314135;
      }

      .cls-13 {
        fill: #6d9160;
      }

      .cls-14 {
        fill: #6f9562;
      }

      .cls-15 {
        fill: #3f543e;
      }

      .cls-16 {
        fill: #63845d;
      }

      .cls-17 {
        fill: #526d4f;
      }

      .cls-18 {
        fill: #6b8064;
      }

      .cls-19 {
        fill: #557453;
      }

      .cls-20 {
        fill: #577855;
      }

      .cls-21 {
        fill: #57794e;
      }

      .cls-22 {
        fill: #608554;
      }

      .cls-23 {
        fill: #2b3431;
      }

      .cls-24 {
        fill: #2b3233;
      }

      .cls-25 {
        fill: #2d3734;
      }

      .cls-26 {
        fill: #40573e;
      }

      .cls-27 {
        fill: #3f523d;
      }

      .cls-28 {
        fill: #466143;
      }

      .cls-29 {
        fill: #2b3432;
      }

      .cls-30 {
        fill: #4a6147;
      }

      .cls-31 {
        fill: #5c7f56;
      }

      .cls-32 {
        fill: #82ae73;
      }
    </style>
  </defs>
  <g>
    <path class="cls-1" d="M374.9,559v84c-1.32,4.34-5.51,6.12-8.22,9.21a154.44,154.44,0,0,0-51.13,55.25c-9.33,17-20.11,33.29-34.3,46.91a3.27,3.27,0,0,1-1.42.61,6.59,6.59,0,0,0-3.81.58c-20.33,12-42.78,17.83-65.75,21.4a90.68,90.68,0,0,1-31.82-1c-13.74-2.78-27.3-6.27-40.16-11.86-14.64-6.35-28.74-5.84-42.8,1.44-6.22,3.21-12.94,5.29-19.19,8.46a12.79,12.79,0,0,1-11.13.28c-10-4.21-20-8.2-29.82-12.79a38.09,38.09,0,0,1-12.79-10.18c-5.29-6.2-10.7-12.3-16-18.5A33.84,33.84,0,0,1,0,720.93V151.06c2.65-9,10-14.72,15.77-21.42,6.05-7,12.92-13.27,19.53-19.77,1.9-1.87,3.9-3,6.63-2.2,1.68.51,2.1,2,2.58,3.4a5.28,5.28,0,0,0,2.79,3.39c9.3,3.48,14.8,11.18,21,18.25,3.77,4.32,7,3.42,9.12-2,3-7.67-.18-17.41-8-23.45-3.61-2.81-7-5.88-11.06-8.18-1.85-1-4.36-2.3-3.52-5.4,2.46-4.55,6.56-7.48,10.77-10,9.64-5.76,19-12,29.58-16.12,3.25-1.28,6.8-1.4,9.93-3a4.18,4.18,0,0,1,1.61.16C114.86,70,123.88,70.1,133,69.2a45.25,45.25,0,0,1,6.26-.58c15.13.65,29.37-3.5,43.39-8.4,6.29-2.21,11.67-6.1,16.78-10.44s9.76-9,16.07-11.51c2.64,1,5,.17,7.63-.6C241.91,32,260.77,31,279.18,38.9c5,2.14,9.78,4.84,15,6.62a16.33,16.33,0,0,1,7,5.37c2.69,3.22,5.53,6.17,9.88,7,5.93,8.6,6.7,18.54,7.32,28.47.81,13.09-1.17,26.13-1,39.21.06,5.3.43,10.58.44,15.87a9.91,9.91,0,0,0-2.5,7.59,63.26,63.26,0,0,0,5.46,23.13c2.11,5,5.73,7.46,10.93,8.25,8.21,1.24,16.22-.71,24.29-1.42,5.15-.46,10.29-.25,15.42-.49a4.25,4.25,0,0,1,3.51,1.52V425c-3,.53-3.72-1.87-4.2-3.85-2.67-11.14-5.33-22.3-6.27-33.77-1.63-20-.22-40.28-6.18-59.8-3-7.55-4.18-15.79-8.58-22.83a67.48,67.48,0,0,0-21.47-21.23c-12.22-7.78-25.29-14.14-37.49-21.9-14.25-9.06-24.76-21.51-30.25-37.81-2.61-7.75-4.81-15.57-5.43-23.76-.56-2.58,1-5.66-1.08-7.8-4.72-4.76-8.09-11-15.16-13.26-14.24-4.62-27.71-2.69-40.38,4.62-9.7,5.59-18.15,12.85-26,20.85C162.93,214,154,224.18,142.52,231.6c-5.1,3.3-10.63,5.55-16.18,7.75-8.5,3.38-17.29,6-26,8.61-16.57,5-30.22,13.94-39.8,29-8.1,12.77-14.64,26.12-18.17,40.74-2.78,11.53-.24,22.36,6.51,32.29,9.26,13.64,18.21,27.47,22.35,43.79a14.42,14.42,0,0,1-.9,10.11c-3.82,8.37-9,15.95-14,23.62-6.19,9.47-12.79,18.68-18.15,28.68a117.89,117.89,0,0,0-8.68,21.23c-1,3.14-2.61,4.93-6,4.72-3,2.52-2.64,6.4-3.95,9.6-5.16,15-9.36,30.13-11.48,45.91-1.75,13.08.92,25,8.16,35.64,6.07,8.94,12.33,17.95,22.48,23,6.7,9.46,17.76,11.89,27.19,16.91,2.33,1.24,5.61-.72,8.05,1.39,2.46,1.5,4.83,3.12,7.18,4.82C83,626.43,89.73,629.89,92.92,636c2.86,5.44,5.56,10.92,6.63,17,.67,3.79,3.26,6.92,3.32,10.85-3.92,15.41-2.27,29.3,13.56,41.32.13.1.23.24.36.34a47,47,0,0,0,12.79,7.15c2.65.91,5.12,1.08,7.56-.45,6.57-1.51,13.28-.22,19.9-1.13,18.25-2.49,34-10.84,49.53-20.08,11-6.53,18.76-15.14,22.31-27.52,2.59-9,8.82-16.35,12.25-25.06s7.22-17.56,10-26.64c4.61-15.26,14.88-26.59,25.89-37.26,5.68-5.52,11.87-10.67,19.3-14a12.67,12.67,0,0,1,9.15-.95c4.64,1.34,9.21,2.89,13.89,4.07,14.62,3.68,29.18,5.11,43.54-1.16,2.45-1.07,4.66-2.57,7.07-3.72C371.69,557.84,373.34,557.2,374.9,559Z"/>
    <path class="cls-2" d="M359.81,325.88a94.91,94.91,0,0,1,5.93,34.74,243.3,243.3,0,0,0,6.57,56.87c.61,2.58,1,5.25,2.59,7.5V559c-3.67,1.94-7.23,4.1-11,5.78-14.61,6.47-29.55,5.07-44.51,1.47a59.5,59.5,0,0,1-10-3c-5.94-2.59-11.29-1.79-16.42,1.85-17.93,12.75-33,27.69-40.06,49.39-4.63,14.23-9.75,28.33-17.85,41.11a29.48,29.48,0,0,0-3.33,7.78c-3.87,13.54-12.22,23.12-24.37,30.18-15.47,9-31,17.39-49.07,19.92-4.66.65-9.3.4-14,.53-2.15.06-4.35-.21-6.33,1-4.78,1.29-8.18-2.26-12.11-3.72a34.28,34.28,0,0,1-8.13-4.94c-7-5.37-12.71-11.55-15.18-20.38-1.51-5.4-.78-10.63.2-15.82,4.32-22.93-4.58-39.62-23.63-51.95a340.36,340.36,0,0,0-37.87-20.68c-19.79-9.51-36.87-35.92-32.31-61.92,2.66-15.13,5.81-30,10.78-44.51.17-2.52,1.69-4.66,2-7.22.21-1.71.87-3.25-.58-4.67,1.62-3.83,3.18-.69,5.2.39,6-24.79,21.78-44.16,35.39-64.54,8-11.9,8.18-22.45,2.09-34.82a214.36,214.36,0,0,0-16.54-27.87C36.61,337,36.54,321.08,43.52,304.85c4.37-10.17,8.74-20.34,15.07-29.72,10.45-15.47,24.66-24.73,42.13-30,15-4.51,30.17-8.46,43.25-17.59a101.84,101.84,0,0,0,12.59-10.59c12.65-12.26,24.09-25.89,39.54-35,13.61-8,28-10.26,43.18-5.49a23.69,23.69,0,0,1,11,7.5c2,2.35,3.59,4.89,6.31,6.83,2.9,2.07,1.2,6.17,1.15,9.42-3.58-2.08-2.53.64-2.39,2.33,1.9,23.08,11.24,42.27,30.21,56,9,6.52,19.38,10.9,28.78,16.87,8.42,5.34,16.74,10.61,23.95,17.75,7.68,7.6,12.83,16.42,16.61,26.29C355.91,322.08,356.56,325,359.81,325.88Z"/>
    <path class="cls-3" d="M41,109a13.27,13.27,0,0,0-4.49,3c-11.91,11.71-23.6,23.62-34,36.7A24.56,24.56,0,0,1,0,151.06V.09H328.91c1.47,1.44.9,3.15.95,4.93.22,6.61.89,13.2,5.76,18.39,3.64,3.63,7.14,3.37,10.39-1,2.82-3.75,4.12-8.13,4.86-12.61a8.45,8.45,0,0,1-.37,1.52,35.15,35.15,0,0,1-4.39,10.57c-2,3.2-4.71,5.1-8.72,3.32-5.67-5.33-7.54-12-7.38-19.6,0-2.16.26-4.05,1.9-5.56,13.17,0,26.33.12,39.49-.09,3,0,3.59.61,3.59,3.59q-.18,88.23-.09,176.46c-14.35.75-28.55,3.68-43,3-7.42-.35-11.52-4.39-14.18-11.17-3.47-8.83-5.39-17.77-4.73-27.22.11-1.47-.95-5,2.92-2.63,1.67-.54,2.67.84,4.23,1.67-3.78-14.82-.77-29.41-.34-43.95.52-17.91-1.71-34.78-13.37-49.13.07.08-.05-.07,0,0,1.81,2.7,4.78,5,2.43,8.73-3,.59-4.14-2.13-5.62-3.66-4.72-4.91-9.84-8.62-16.77-10-3.23-.66-6-3.5-9.1-4.92-11.92-5.35-24.51-5.23-37.18-4.21a108,108,0,0,0-19,3.73c-1.78.47-3.56.92-5.27-.26-.92-3.13,1.59-3.85,3.5-5.06A91,91,0,0,1,240,25.08c-14.63,4.74-31.17,14.6-45.81,27.54-7.77,6.86-17.07,9.75-26.72,12.29A106.88,106.88,0,0,1,138,68.64c-5.26-.11-10.57,1.11-15.94.87a36.26,36.26,0,0,1-13-3c-1.3-.67-2.51-2.7-4-.31C95,70.63,85,75,75.56,80.55,68.68,84.62,62.44,89.41,56,94.06a2.85,2.85,0,0,1-3.16.69c-4.49-1.31-7.88,1.09-9,5.78C43.21,103.41,44.6,107.08,41,109Z"/>
    <path class="cls-3" d="M0,720.93c8.06,9.51,16.33,18.85,24.1,28.59,6.63,8.31,16.27,11.27,25.24,15.47,5.12,2.39,10.48,4.25,15.66,6.53a13.06,13.06,0,0,0,11.5-.3c7.84-3.65,15.89-6.85,23.75-10.45,12.16-5.56,24.26-4.82,36.34,0a260.12,260.12,0,0,0,37.62,11.72c21.78,5.09,43,2.11,63.94-4.31,12.9-4,25.72-8.11,37.61-14.67,1.3-.71,2.67-1.47,4.22-.56,1.41,2.49-.46,4-1.63,5.81,1.29-2.33,3.86-3.65,4.88-6.19,14.45-15.68,25.93-33.46,36.53-51.86,9.84-17.09,22.41-31.68,39-42.52,2.62-1.71,4.62-4.13,7.3-5.73,2.88-1.64,4.22-6.22,8.81-4.53q0,80,.1,160c0,3.42-.67,4.09-4.1,4.09q-185.44-.16-370.9-.1Z"/>
    <path class="cls-4" d="M331.91.09c-.45,8.81.41,17.26,6.74,24.18-1,1.71-2.53.85-3.88.91-7-7.2-7.71-15.84-5.86-25.09Z"/>
    <path class="cls-5" d="M374.9,647.94c-3.4.9-4.74,4.71-8,5.73a2.14,2.14,0,0,1-1-3.08l9.09-7.65Z"/>
    <path class="cls-6" d="M22,491c-4.5,14.62-8.28,29.35-10.36,44.58-2.32,17.06,1.8,31.68,12.6,45.06,7,8.71,15.46,14.68,25.54,19.21,14.42,6.49,28.52,13.84,40.55,24.24,13,11.25,19,26,15.36,42.92-3.38,15.87.86,28.1,13.08,38.1.28,2.42-1.37,1.91-2.76,1.81C100.14,696,94.69,681.41,99.91,663.77c1-10.81-2.7-20.28-8.08-29.33-3.27-5.5-8.59-9-12.83-13.54a19.27,19.27,0,0,0-5.77-4.1c-10-4.34-19.7-9.35-29.4-14.32a40,40,0,0,1-6.8-4.6C21.18,587,9.49,573.07,5.54,553.72c-1.9-9.33.24-18.52,1.71-27.67A134.61,134.61,0,0,1,18,491C20.66,488.9,20.74,488.9,22,491Z"/>
    <path class="cls-7" d="M359.81,325.88c-3.63,2.12-5.51.65-6.55-3-5.31-18.75-17.95-31.55-34.06-41.38-9.95-6.07-20.25-11.57-30.1-17.79-24.53-15.49-36.35-38-36.34-66.92a25.41,25.41,0,0,1,.3-3.48c.15-1.07.66-1.91,1.9-1.9s1.75.82,1.91,1.9c.32,2.3.59,4.6.88,6.91,2.22,18.19,7.64,34.83,21,48.36,7.17,7.25,15.37,12.56,24.17,17.36,9.06,4.93,18.11,9.94,26.79,15.5C346,291.88,356.72,306.36,359.81,325.88Z"/>
    <path class="cls-8" d="M109,65a23.69,23.69,0,0,0,14.36,3.33c16.37-1.21,32.76-1.72,48.79-6.65,11.69-3.59,20.27-11.18,29.4-18.26C215.49,32.6,231.42,26.11,248,21c1.34-.42,1.36-.36,5.26.65C239.92,27.29,226.62,31.15,215.9,40c-4.33,3.35-9.08,6.27-12.9,10.12-9.73,9.8-22.22,13.38-34.94,16.82-14.61,4-29.62,3.47-44.49,4.17-6.17.29-12.58-.85-17.81-5C106.48,64.64,107.66,64.54,109,65Z"/>
    <path class="cls-9" d="M308.87,59.37A47.83,47.83,0,0,0,303,49.08c.52-1.92.65-1.95,3.79-.87,9.44,9.95,14.31,21.86,15.25,35.47.78,11.17.13,22.3-.57,33.44-.67,10.63-1.76,21.34,3.52,31.31,1.28,2.42-.23,2.55-1.91,2.41a5.33,5.33,0,0,1-4.33-3c-1-1.89-1.91-3.86-2.85-5.8-2.32-9.87-1.3-19.82-.72-29.75.69-12.11,1.32-24.22-.42-36.29C313.92,70.08,312.63,64.28,308.87,59.37Z"/>
    <path class="cls-6" d="M365.81,650.59c.35,1,.69,2,1,3.08-3.51,3.81-7.85,6.59-11.94,9.7-15.5,11.78-26.45,27.28-36.1,43.93s-20.16,32.81-34.05,46.42c-1.58,1.1-3.11,2-3.85-.82,14.27-17.54,26.63-36.35,38.07-55.84,9.27-15.77,21-29.39,36.83-39.12C359.31,655.77,362.48,653.06,365.81,650.59Z"/>
    <path class="cls-10" d="M41,109c.11-2.13.19-4.26.34-6.39C42,93.3,47.53,90.09,56,94.06c4.62,5.63,11.56,8.23,16.88,13,7.36,6.62,9.56,14.52,7.27,23.85-1.62,6.61-7.87,8.52-13,4a31.18,31.18,0,0,1-5-5.55c-4-5.7-8.53-10.56-15.41-12.8C43.25,115.46,42.06,112.21,41,109Z"/>
    <path class="cls-10" d="M269.11,147.18c1.38-2.41,2.61-4.93,4.18-7.2,3.32-4.82,3.09-5.95-2.36-8.87-1-.38-1.58-.92-1.05-2.06a10.74,10.74,0,0,1,8.48,2.07c3.31,2.55,4.75,5.55,1.76,9.35-5.83,7.43-6.71,15.22-2.18,23.7,1.91,3.59.71,5.16-3.5,5.09-6.31-.1-9.77-4.25-12.6-9.2-.83-1.73-.42-3.59-.35-5.36.07-1.54-1.16-3.9,1.95-4.15s4.1,1.37,4,4.44A33.33,33.33,0,0,1,269.11,147.18Z"/>
    <path class="cls-11" d="M54.11,739.25c-12.12,0-18.29-8.66-13.47-19,.72-1.55,1.55-3.46,3.49-2.91,2.65.76.75,2.77.46,4.12-1,4.73-1.57,9.48,2.52,13,3.77,3.22,8.19,3.1,12.62,1,1.13-.53,2.73-1.4,3.35.37.45,1.3-1.11,1.83-2.13,2.36C58.79,739.31,56.43,739.13,54.11,739.25Z"/>
    <path class="cls-12" d="M323.08,631.25c3.3-1.29,5.36-3.83,7-6.83.48-.91.86-1.91.14-2.8s-1.84-.61-2.78-.32c-2.79.84-4.94,2.68-7.06,4.58-1.06.94-2.58,1.55-3.52.27-.78-1,.46-2.15,1.24-3a15.56,15.56,0,0,1,13.59-4.85c4.16.48,5.44,2.95,3.56,6.68A13.93,13.93,0,0,1,324,633.1c-.78.44-1.72.48-2.08-.29S322.15,631.37,323.08,631.25Z"/>
    <path class="cls-13" d="M79,620.9c15,8,25,28.47,20.91,42.87-1.58-14.63-6.28-27.81-17.52-38A13.1,13.1,0,0,1,79,620.9Z"/>
    <path class="cls-14" d="M37,597.88a206.7,206.7,0,0,1,36.2,18.92c-11.72-2.69-22.31-7.9-32.18-14.62C39.47,601.1,38.36,599.33,37,597.88Z"/>
    <path class="cls-15" d="M116,706.89l2.76-1.81c6.17,3.72,12,8,19.17,9.84.39,2.49-1.52,1.82-2.47,1.48C128.66,714,121.63,711.88,116,706.89Z"/>
    <path class="cls-16" d="M280.9,752.9c1.14,1,2.49.89,3.85.82-3.24,3.76-5.75,8.26-10.5,10.56,1-4.35,3.29-7.86,5.73-11.32C280.29,752.93,280.59,752.91,280.9,752.9Z"/>
    <path class="cls-17" d="M22,491,18,491c.34-4.14,2.1-7.9,3.17-11.84,3.63.7,2.84,3.49,2.51,5.8C23.35,487,23.32,489.16,22,491Z"/>
    <path class="cls-18" d="M269.11,147.18c-.36,4.45-.82,8.9.64,14.33-2.87-2.27-3.39-4.57-3.89-6.86-.3-1.39,0-3.4-2.23-3.12-1.94.24-1.84,2.11-1.91,3.56-.07,1.65.07,3.32.12,5-1.25-2.09-1.08-4.39-.95-6.66.12-2.07,1.09-3.7,3.3-3.32C266.86,150.53,268,149,269.11,147.18Z"/>
    <path class="cls-19" d="M109,65l-3.27,1.12a7.55,7.55,0,0,1-.83.13c-1-1.69-4.29-3.18-2.78-4.94,1.66-1.93,3.41,1.22,5.14,2.09A9,9,0,0,1,109,65Z"/>
    <path class="cls-20" d="M323.08,631.25a1.44,1.44,0,0,0,.9,1.85c-3.7,1.54-7.24,1.13-12.06-.91C316.47,631,319.91,632.38,323.08,631.25Z"/>
    <path class="cls-21" d="M269.88,129.05l1.05,2.06c-.35,1.42-.67,3-2.57,2.91-.89,0-1.25-.92-1.28-1.77A2.78,2.78,0,0,1,269.88,129.05Z"/>
    <path class="cls-22" d="M160,544.1c-11.39,6.77-23.61,7.29-36.16,4.57-18.72-4-25-19.91-20.78-37.23,2.81-11.49,10.08-20.87,15.89-30.92,5.58-9.63,11.45-19.09,15.53-29.52,4.41-11.27,4.5-22.67,1.67-34.28-.87-3.54-1.47-7.14-2.19-10.72,1.39-4.72-.65-9.16-1.14-13.73-1.44-11.61-2.78-23.31,1.77-34.48,9-22,25.43-34.91,48.91-38.16,13.94-1.93,27.88-.58,41.58,2.73,1,.24,1.94.43,2.8-.32a15.3,15.3,0,0,0,6.52,4.4,41.14,41.14,0,0,1,9.25,4.87c8.08,5.74,7.91,13.86,6.88,22.44-1,8.1-1.67,16.26,1.81,24.08,3.87,8.66,10.74,14.09,18.92,18.41,10,5.29,21,8.79,30.34,15.18,7.52,5.12,15.34,10,20.85,17.6,3.73,5.13,5.09,11.22,2.71,16.58-7.53,16.95-17.27,32.35-35,40.72-5.16,2.44-10.94,2.73-16.26,4.61-1.46,2-2.92.79-4.64.28A57,57,0,0,1,258.14,486c-13.78-7.64-27-5.91-39.93,1.94-10.76,6.51-19.42,15.23-27.29,24.93-5.23,6.45-10.14,13.22-16.38,18.8a31,31,0,0,1-11.33,9.66C162,542,160.3,542.28,160,544.1Z"/>
    <path class="cls-23" d="M173,531c7.79-9.32,15.4-18.79,23.42-27.9a77,77,0,0,1,29.16-20.52c11.95-4.85,23.46-3,34.7,2.57,4.44,2.21,8.51,5.32,13.69,5.79a1.61,1.61,0,0,0,.71.2,38.29,38.29,0,0,0,11.51,0c6.05-1.07,11.41-3.5,15.32-8.36,1.62-2,3.59-4,5.62-2.05,1.72,1.69-.37,4.17-1.91,5.45-9.43,7.86-20.34,10.21-32.26,7.89a44.37,44.37,0,0,1-14.74-6c-12.63-7.77-24.85-7.24-37.53.5C207,496.94,197.14,509,187.1,521c-3.85,4.58-7.58,9.28-12.09,13.25C173.25,533.82,171.76,533.25,173,531Z"/>
    <path class="cls-24" d="M227.89,322c-2.71,3.16-5.94,1.07-8.69.47-11.33-2.45-22.72-2.66-34.21-1.85-24.91,1.76-55.07,27.79-50.6,61.87.45,3.45.43,7,.63,10.44.34,4-1.73,3.18-4,2a59.83,59.83,0,0,1,55.31-76.85C200.38,317.57,214.35,317.52,227.89,322Z"/>
    <path class="cls-25" d="M64,337.39c-4.61-4.1-9.19-8.25-10.63-14.61-.85-3.81-1.42-7.79,2.7-10.2s7.65-.77,10.61,2.44a59.43,59.43,0,0,1,4.52,5.28c.88,1.22,2.75,2.78,1,4.22-1.36,1.13-2.69-.6-3.72-1.63-1.76-1.75-3.41-3.62-5.19-5.35-1-1-1.94-2.76-3.62-2s-1.44,2.79-1.43,4.42c0,3.28,1.45,6.12,3.19,8.75,1.46,2.21,3.21,4.22,4.83,6.31A2.6,2.6,0,0,1,64,337.39Z"/>
    <path class="cls-26" d="M173,531c.67,1.08,1.35,2.15,2,3.23-3.77,5.16-9.44,7.43-15,9.88-3.52-1.06-1.09-1.75.18-2.41A41.1,41.1,0,0,0,173,531Z"/>
    <path class="cls-27" d="M131,395c1.67,0,3.15-.34,4-2,1.67,3.6.72,7.55,1.51,11.28.4,1.91-1,2.14-2.56,1.75C132.52,402.45,131.13,398.88,131,395Z"/>
    <path class="cls-28" d="M64,337.39l2.29-2.4,9.2,8C70.38,343.47,67.05,340.66,64,337.39Z"/>
    <path class="cls-22" d="M286.17,491.11a16.13,16.13,0,0,1-11.51,0Z"/>
    <path class="cls-29" d="M334.77,25.18a5.4,5.4,0,0,1,3.88-.91c2.44,1.69,3.29-.7,4.27-1.91,2.9-3.54,4.23-7.82,5.06-12.27,1.26-5.31,1.55-5.49,4.88-3a21.26,21.26,0,0,1-4,15.92C345.16,28.22,339.58,29,334.77,25.18Z"/>
    <path class="cls-30" d="M352.86,7.1c-3.23-1.62-3.69,1.29-4.88,3a8.47,8.47,0,0,1-.15-1.93c.25-1.67-1.63-4.23,1.5-4.75C351.93,3,352.45,5.12,352.86,7.1Z"/>
    <path class="cls-31" d="M306.8,48.21l-3.79.87c-.86-1-3.42-1.87-1.48-3.2S305.55,46.2,306.8,48.21Z"/>
    <path class="cls-32" d="M46.07,104.84c-.08-1.57-.1-2.4-.15-3.23-.19-2.73,1.61-4.32,3.56-5.57s2.73,1.15,4,2A150.59,150.59,0,0,1,68.1,109.13c6.76,5.7,8.08,13,6.48,21.19a4.48,4.48,0,0,1-1.64,2.9c-1.51.79-2.31-.91-3.08-1.83-2-2.41-3.89-5-5.79-7.47-2.56-3.39-5.68-6.22-9.75-7.45C48,114.57,45.51,110.43,46.07,104.84Z"/>
  </g>
</svg>
