<svg id="Laag_1" data-name="Laag 1" xmlns="http://www.w3.org/2000/svg" viewBox="0 0 434.43 654.84">
  <defs>
    <style>
      .cls-1 {
        fill: #fadfcb;
      }

      .cls-2 {
        fill: #303538;
      }

      .cls-3 {
        fill: #e2ad9e;
      }

      .cls-4 {
        fill: #e2ae9f;
      }

      .cls-5 {
        fill: #e3afa0;
      }

      .cls-6 {
        fill: #e2afa0;
      }

      .cls-7 {
        fill: #836d68;
      }

      .cls-8 {
        fill: #34383a;
      }

      .cls-9 {
        fill: #35393b;
      }

      .cls-10 {
        fill: #6f605c;
      }

      .cls-11 {
        fill: #3a3b3d;
      }

      .cls-12 {
        fill: #323639;
      }

      .cls-13 {
        fill: #33383a;
      }

      .cls-14 {
        fill: #3e4042;
      }

      .cls-15 {
        fill: #776762;
      }

      .cls-16 {
        fill: #363a3c;
      }

      .cls-17 {
        fill: #e1afa0;
      }

      .cls-18 {
        fill: #9e7f77;
      }

      .cls-19 {
        fill: #3a3e3f;
      }

      .cls-20 {
        fill: #424445;
      }

      .cls-21 {
        fill: #484949;
      }

      .cls-22 {
        fill: #6e6965;
      }

      .cls-23 {
        fill: #988880;
      }

      .cls-24 {
        fill: #4d4d4d;
      }

      .cls-25 {
        fill: #464748;
      }

      .cls-26 {
        fill: #3f4243;
      }

      .cls-27 {
        fill: #817972;
      }

      .cls-28 {
        fill: #c09a8e;
      }

      .cls-29 {
        fill: #504f4f;
      }

      .cls-30 {
        fill: #a7998e;
      }

      .cls-31 {
        fill: #8d847c;
      }

      .cls-32 {
        fill: #b49288;
      }

      .cls-33 {
        fill: #454344;
      }

      .cls-34 {
        fill: #7f6a65;
      }

      .cls-35 {
        fill: #645855;
      }
    </style>
  </defs>
  <g>
    <path class="cls-1" d="M172.94,656.58H8.91A3.26,3.26,0,0,1,9.13,654c3.59-10.85,7.26-21.67,11.36-32.34q10.17-26.55,19.64-53.36c7.09-20.09,14.2-40.17,23.7-59.33,6.24-12.6,10.65-26,15.74-39.12A7.51,7.51,0,0,1,81,466.92c1.1-1,1.77-.63,2,.7.24,1.16.2,2.34.42,3.5a5.55,5.55,0,0,0,1.7,3.58,4.16,4.16,0,0,1,1.32,2.88c.13.84.38,1.67,1.39,1.75s1.61-.7,1.9-1.59A20.34,20.34,0,0,0,91,471.37c0-2.71,0-5.42,0-8.13,0-.9,0-2.1.87-2.43,3.28-1.22,2.5-3.64,2-6-1.57-4.35-1.22-8.95-1.75-13.44-.56-4.68-.65-9.42-1.34-14.07A23.7,23.7,0,0,1,91.72,416a77.69,77.69,0,0,1,7-15c2.87-4.85,7.52-7.8,11.59-11.38,1-.88,2.26-1.53,2.75-3.05-1.17-.62-1.87.22-2.64.72s-1.67,1.4-2.6,2c-1.3.78-2.26.63-2.54-1-.54-3.13-1.66-6.12-2-9.31-1.22-12.47-2-24.92.66-37.31a23.62,23.62,0,0,1,1-3.4c7.32-19.94,13.8-40.18,22.59-59.57,4.16-9.18,7.05-18.88,10.45-28.37,3.22-9,7.12-17.69,10.41-26.63,8-21.74,17.57-42.84,26.08-64.38,3.6-9.1,7.89-17.94,12.28-26.72,6.13-12.26,11.91-24.68,17.67-37.13a360.84,360.84,0,0,1,18.69-34.76c3.3-5.46,6.51-10.93,11.14-15.39A14.56,14.56,0,0,1,238.93,42c.83-.33,1.79-.82,2.58-.12s.35,1.72,0,2.54a57.84,57.84,0,0,1-3.43,6.81,28.12,28.12,0,0,0-3.93,12.62c-.22,5.61,3.82,9.76,9.5,10,2.07.09,4.17-.3,6.22.33,1.39,1,.55,2.1.12,3.14-2,4.77-4.35,9.38-6.71,14a294.4,294.4,0,0,0-16.87,39.78,214.51,214.51,0,0,0-9.76,43.18c-.79,6.38-1.75,12.75-1.57,19.21,0,1.65.13,3.3,1.83,4.26,2.42,1.36,4.67.73,5.89-1.82a54,54,0,0,0,2.84-8.5c3.94-8.26,6.67-17,10.47-25.36,9.38-20.56,18.07-41.47,28.8-61.39,8.11-15,14.23-31,22.41-46,5.48-10,9.29-20.93,15.53-30.58A147.81,147.81,0,0,1,312,10.78,19,19,0,0,1,314.6,8c.81-.68,1.69-1.14,2.69-.35a2,2,0,0,1,.43,2.71c-1.05,2.32-2.4,4.5-3.39,6.83C311.75,23.28,308.24,29,307,35.6a9.84,9.84,0,0,0,4.78,10.69,15.81,15.81,0,0,0,11,2.1,18.47,18.47,0,0,1,3.22-.52c1.73.21,1.46,1.31,1,2.38a66.58,66.58,0,0,1-3.57,6.4c-9.33,15.63-18.74,31.21-27.66,47.08-3.1,5.53-6.06,11.14-8.81,16.85-.54,1.12-.91,2.41-2.27,2.92-2.34.21-4.39-.8-6.51-1.54-3-1.06-6-2.33-9.32-2.28a52,52,0,0,1,14.47,4.79c1.31,1.42.36,2.72-.27,4-4.71,9.51-9.93,18.74-15.14,28a74.88,74.88,0,0,0-9.7,36.94c0,4.13,1.33,8,2.52,11.93a3.93,3.93,0,0,0,4.59,3c2.06-.32,3,.58,3.67,2.28,1.87,1.63,3,.36,3.93-1.11A118.45,118.45,0,0,0,279,198.22c7.12-14.59,14.27-29.16,20.46-44.21,6.31-15.36,13.59-30.29,21.4-45q4.47-8.4,8.42-17.09c2.9-6.35,6.36-12.43,9.52-18.66,4.87-9.64,9.48-19.41,14.09-29.17a119.7,119.7,0,0,1,18.91-28.49,46.58,46.58,0,0,1,4.36-4.85c.89-.75,1.95-1.88,3.08-1.14,1.35.88.53,2.4,0,3.45a134.07,134.07,0,0,1-8.05,14.19A24.65,24.65,0,0,0,367,40.62c-.08,3.4,1.63,5.82,3.45,8.34s3.49,4.72,6.18,6,5.56,2.21,8.48.11a3.82,3.82,0,0,1,3.57-.86c.92,1.5-.21,2.6-.85,3.71-3.51,6-7.25,12-11.24,17.69-12.52,18-23.71,36.76-35.28,55.32-.79,1.29-1.4,2.83-3.25,3-2.73-.42-5-2.15-7.57-2.95a15.82,15.82,0,0,0-3.14-.85c3.19,2,7.16,2.36,10.08,4.88.54,2.48.3,2.83-2.34,3.39-3.13-.59-5.77-2.48-8.78-3.41a26.73,26.73,0,0,0-3.39-1.14c2,1.85,4.06,2.25,5.86,3.1,2,.95,4.36,1.26,6,3,1.09,1.73,0,3.14-.69,4.58a308.21,308.21,0,0,0-16.32,41.82,79.61,79.61,0,0,0-2.22,38c.75,4.22,2.34,5.85,5.53,5.85a4.24,4.24,0,0,0,3.54-1.68,42.46,42.46,0,0,1,4.78-5.91,46.76,46.76,0,0,0,8.81-15.83,28.24,28.24,0,0,1,1.59-3.76c7.79-15.47,15.24-31.1,22.08-47A228.85,228.85,0,0,1,388,111.12c4.94-6.73,9.93-13.42,14.87-20.15.92-1.24,1.51-3,3.54-3,.8.39.84,1.09.79,1.84-.76,3.48-2.6,6.56-3.76,9.89a49.23,49.23,0,0,0-3.05,16.22c0,8.18,4.59,12.12,12.71,10.91,1,.08,2.34.15,1.82,1.56-1.17,3.17-2.42,6.36-4.72,8.95a1.56,1.56,0,0,1-1,.36c-2.43-.21-4.42-1.49-6.44-2.67a14.78,14.78,0,0,0-6.46-2.37c4,1.88,8,3.77,11.89,5.87,1.68,1.16.86,2.48.31,3.84-2.61,6.49-6.34,12.43-9.16,18.82C394.62,171.86,388.72,182,384.61,193c-.41,1.09-.79,2.27-2.21,2.5-2.37-.1-4.21-1.51-6.16-2.6-4.33-2.44-8.86-4.48-13.31-6.69,5,3.19,10.39,5.77,15.7,8.45,1.36.68,2.84,1.24,3.48,2.83a5.35,5.35,0,0,1-.6,3.42c-7.19,18.42-14.28,36.88-21.4,55.32-5,12.95-9.64,26.09-12,39.81-1.86,10.65-2.48,21.39-.29,32.17.81,4,2,7.31,6,8.94,1,.84,1.22,2.14,1.87,3.2.49.8,1,1,1.42-.11,3.43-1.68,3.34-5.35,4.78-8.19,4.07-8,7.62-16.25,11.72-24.23,2.27-4.44,2.94-9.08,3.45-13.85,1.39-12.8,3.56-25.49,5.59-38.19.28-1.74,1.42-3.14,1.62-4.88a41.88,41.88,0,0,1,13.88-16.08,63,63,0,0,1,10.24-5.65,4.71,4.71,0,0,1,2.87-.65c1.57,1.46.05,2.83-.11,4.23a146,146,0,0,0-7.54,14.67,85.65,85.65,0,0,0-3,8.69,11.09,11.09,0,0,0,1.29,9.57,22.15,22.15,0,0,1,2,3.82c.54,3.33-.75,6.45-1.22,9.66-.5,3.5-1.29,7-2,10.42a7.51,7.51,0,0,0,.74,5.52,37.3,37.3,0,0,0,1.74,3.39c2.18,3.17,2.08,6.38.63,9.79-3.77,8.85-8.61,17-15.59,23.71a18.47,18.47,0,0,0-2.58,2.8,184.35,184.35,0,0,1-16.51,20.58c-8.22,8.95-16.07,18.26-24.7,26.81-10.7,10.6-21.6,21-33.54,30.25-7.51,5.83-14.33,12.55-21.51,18.79-8.49,7.37-15.43,16.1-22.83,24.44-2.89,3.26-5.8,6.5-8.63,9.81A30.63,30.63,0,0,1,247,473.87c-5.29,2.28-7.83,6.39-9.74,11.39a204.53,204.53,0,0,0-10,35.06c-1,5.34-3.25,10.18-5.32,15.12-6.41,15.23-12.35,30.65-18.32,46.06-8.67,22.34-17.47,44.64-26.82,66.7C175.6,651,174.72,654,172.94,656.58Z" transform="translate(-4 -1.74)"/>
    <path class="cls-2" d="M326.07,48.37a18.12,18.12,0,0,1-13-.53c-5.25-2.28-7.82-6.88-6.72-12.53,1.38-7.11,5.11-13.3,8-19.81.85-1.89,1.9-3.71,2.9-5.53.46-.83.52-1.51-.27-2.15s-1.33.1-1.81.53A36.29,36.29,0,0,0,310,14.6a171,171,0,0,0-14.12,23.84C282.9,65.21,270,92,256.75,118.64c-9.7,19.47-18.36,39.46-26.63,59.6-1.24,3-1.76,6.35-3.82,9a21.3,21.3,0,0,0-1.63,3.73,2.53,2.53,0,0,1-3,1.75,2.84,2.84,0,0,1-2.43-2.87,9.35,9.35,0,0,1,.79-4c3.34-8.38,5.13-17.21,7.29-25.9A428.62,428.62,0,0,1,252,89.17c4.27-9.6,8-19.46,12.1-29.15.62-1.46,1.35-3,.81-4.9-1.12.63-1.3,1.66-1.72,2.48-2.2,4.27-4.1,8.72-7.24,12.44-1.68,2-3.33,4.13-6.25,4.38-4.89.61-9.57.55-13.58-3.06a7.5,7.5,0,0,1-2.73-5.66A28.79,28.79,0,0,1,238,50a59.69,59.69,0,0,0,3.74-7.86c-3.06.24-5.13,1.79-7,3.54A45.75,45.75,0,0,0,226.73,56a447.06,447.06,0,0,0-25.11,47.28c-7.69,17.23-17,33.69-24.27,51.12-9.26,22.27-18.59,44.51-27.42,67-7.31,18.56-13.54,37.55-21.25,55.93-7.8,18.59-14.52,37.54-21.53,56.41a59,59,0,0,0-4,21.24c.06,7.24-.08,14.46.57,21.7.39,4.28,1.78,8.3,2.43,12.64,1.82-.75,3-2.26,4.58-3.3a3.24,3.24,0,0,1,1.91-.91,2.1,2.1,0,0,1,1.89.89c.41.73-.34,1.14-.8,1.53-2.48,2.12-5.1,4.09-7.47,6.32-10,9.39-16,20.46-14.62,34.67.78,7.85,1.46,15.71,2.21,23.57a21.89,21.89,0,0,0,.5,2.38c.67,1.08.26,2.28.32,3.42s.28,2.56-1.4,2.74a3,3,0,0,1-3.43-2.1,36.3,36.3,0,0,1-1.1-6.4,5.9,5.9,0,0,0-.18-1.29c-2.42,5.53-4,11.46-7.26,16.64-4.49,11.38-8.68,22.9-13.54,34.12-5.68,13.15-12.06,26-17.08,39.42-9.41,25.23-17.72,50.86-27.64,75.9-5.17,13.08-9.54,26.44-14.17,39.7H4C15.16,622.35,29.08,589.12,40.61,555c6.1-18,13.94-35.39,21.86-52.74,8.7-19,15.93-38.74,23.86-58.13a25.07,25.07,0,0,0,1.43-13.36c-2.35-16.29,4-29,16-39.38.27-.24.58-.43,1.17-.86-3.17-1.54-3.1-4.48-3.66-7-2.88-12.79-2.3-25.77-1.45-38.7.27-4.15,1.93-8.1,3.27-12.06,11.26-33.35,25.11-65.72,37.17-98.77,9-24.63,19.48-48.66,29.22-73,7.23-18.06,16.75-35,25.21-52.5C200.82,96,206.84,83.35,213.91,71.3c4.77-8.12,9.18-16.49,15.06-23.91,3.22-4.06,6.81-7.66,12.68-7.07.89.09,1.2-.63,1.75-1.08,6-5,13.6-4.66,19.32.82a25.25,25.25,0,0,1,2.6,3.13c1.51,2,2.1,4.17.72,6.55-.54.95-.91,1.72.47,2.66,3.24,2.22,4,4.73,2.5,8.53-3.9,9.87-7.74,19.78-12,29.49a417.78,417.78,0,0,0-23.21,65.88,2,2,0,0,0,.07,1.34c1.26-2.71,2.58-5.38,3.76-8.12,9.39-21.75,20.34-42.75,30.77-64,8.19-16.69,16.65-33.25,24.55-50.08a117.88,117.88,0,0,1,16.75-26c2.19-2.61,4.28-5.83,8.54-3.21.73.45,1.07-.43,1.49-.85a11.86,11.86,0,0,1,12-3.13,38.44,38.44,0,0,1,11.34,4.49C346.88,9.14,349.9,12,349,17.13c-.14.76.48.88.94,1.08,3.06,1.32,3.35,3.78,2.7,6.59a66.72,66.72,0,0,1-3.24,9.52,360.78,360.78,0,0,1-20.44,42.05A763.29,763.29,0,0,0,284.06,173c-.63,1.65-1.06,3.38-1.58,5.07s-.15,3.36-.85,5l-1.86,4.3c-.27.75.45.55.09.51-.06,0-.08-.07,0-.19,1.11-2.71,1.87-5.59,3.69-8,.29-1.74,1.5-3.05,2.24-4.57,8.66-17.76,15.57-36.31,24.44-54,9.52-19,19-37.92,28.73-56.78,5.31-10.32,10-21,15.89-31,4.89-8.24,11.05-15.48,17.43-22.54,2.08-2.3,4.55-3.93,7.93-3.12,1,.25,1.64-.58,2.36-1.12a8,8,0,0,1,6.67-1.55c1.15.23,2.32.42,3.47.64,5.19,1,9.5,3.2,12.6,7.74,1.92,2.82,4.62,5,4.41,9-.08,1.45-1.37,2.61-.71,4.11a14.11,14.11,0,0,1-.66,1.28C403.35,35.71,399,44,393,51.13c-1.17,1.36-2.21,2.91-4.25,3.07a28.62,28.62,0,0,1-5.05,2.45,8.65,8.65,0,0,1-8.88-2c-8.92-8.36-11.49-13.47-5.29-25.86,2.55-5.08,6-9.68,8.55-14.83a7.68,7.68,0,0,0,1.15-4.09c-2.23.59-3.5,2.22-4.84,3.71C364.17,24.92,356.44,37.8,350,51.63c-10,21.27-20.76,42.12-31.39,63.06-7.6,14.95-14.55,30.19-21.11,45.64a490.86,490.86,0,0,1-24.2,49.88c-1.36,2.41-2.84,2.79-4.95,1.1a9.39,9.39,0,0,1,.38-5.83c3.32-10.46,6.42-21,9.64-31.49s8-20.62,12.38-30.8c5-11.76,10.32-23.41,15.62-35,1.47-3.23,3.34-6.24,5-9.37,7.38-14,14.71-28.13,22.41-42,5.53-10,9.69-20.7,13.69-31.42.42-1.11,1.05-2.28.43-3.61-1,.39-.92,1.23-1.09,1.87a18.2,18.2,0,0,1-3.18,6.58c-3.37,4.38-6.37,9-9.67,13.48A10.81,10.81,0,0,1,326.07,48.37Z" transform="translate(-4 -1.74)"/>
    <path class="cls-2" d="M407.86,27.24c.18-.54.63-.63,1.12-.67,4,.94,5.59,3.48,4.53,7.38a63.78,63.78,0,0,1-4.34,10.55C398,68.05,385,90.63,373.45,114c-8.09,16.35-17.16,32.16-26.1,48-4.67,8.29-9,16.78-13.39,25.23-2,3.89-2.89,8.11-3.68,12.44-1,5.69-2.72,11.27-3.39,17a6.46,6.46,0,0,0,0,3.13c2-1.19,3-3.08,4-4.94,4.05-7.61,6.83-15.81,11-23.39,8.64-15.86,14.71-32.93,22.84-49s18.46-30.55,29.47-44.65c2.73-3.5,5.4-7.06,8.17-10.53A11.74,11.74,0,0,1,409.61,83c3.87-.88,7.29-.23,10.75.36,6.16,1.05,10.85,4.46,13.22,10.5.59,1.5,2.31,2.65,1.43,4.66-.28.64.39.89.92,1.08,2.53.89,2.79,2.81,2.29,5.07a95.22,95.22,0,0,1-4,11.85c-9.06,24.93-20.73,48.72-31.58,72.88a153,153,0,0,0-5.43,14.8c-4.6,13.87-10.94,27.07-15.67,40.89-.68,1.63-.89,3.4-1.51,5a3.69,3.69,0,0,1,1.67-1.62c.82-1.08,1.74-2.1,2.46-3.24,5.91-9.38,15-14.53,24.85-18.55a5.53,5.53,0,0,1,.79-.24c3.32-.64,6.72-.41,9.9-2.41,2-1.25,9.61,2.74,11,4.93.78,1.22.44,2.42.12,3.67a190,190,0,0,1-9.59,28c-4,9.35-3.13,18.83-2.27,28.38.68,7.55.44,14.64-3.53,21.57-2.75,4.81-5.76,9.4-8.8,14-9.68,14.6-19.29,29.24-29.12,43.73-3.11,4.58-7.57,8-11.44,12-15,15.22-31.6,28.69-46.59,43.88q-13.31,13.47-26.27,27.27a103.61,103.61,0,0,1-15.87,13.21c-3.55,2.52-6.59,5.72-10.45,7.81a3.24,3.24,0,0,0-1.35,2c-8.06,23.54-18.23,46.22-27.72,69.19-13.7,33.19-26.73,66.66-38.18,100.71-1.38,4.11-3.54,7.92-4.4,12.21h-5.45c-.53-1.34.2-2.5.65-3.64,7.46-19.31,13.94-39,21.25-58.35,5.3-14,11.49-27.67,17-41.62,8.63-22,18.88-43.27,27.42-65.28,1.41-3.63,3-7.19,4.33-11.08-1.42.08-2.55.9-3.85.37-2.09-.84-2.53-2.34-1-3.94a12.67,12.67,0,0,1,4.55-2.93,25.17,25.17,0,0,0,7.36-4.54c3.49-3,7.44-5.51,11.14-8.29,6-4.49,11.1-9.84,16.26-15.22,9.61-10,19.06-20.19,29.19-29.71,8.14-7.65,16.78-14.72,24.92-22.36,5.88-5.52,11.48-11.37,17.83-16.39,3.52-2.78,5.38-6.82,7.81-10.41,10.37-15.34,20.23-31,31.39-45.84a41.1,41.1,0,0,0,8-31.12,31.06,31.06,0,0,1-.34-5.69,3.6,3.6,0,0,0-2.31-3.82c-3.17-1.66-6.56-3.22-7.95-7a.82.82,0,0,0-.11-.25c-5.39-6.34-4.38-13.11-1.37-20,2.51-5.79,5.08-11.55,8.69-16.77.59-1.33,1.35-2.56,2-3.91-.56-.11-1.05-.32-1.56-.05-7,3.21-14,6.5-19.21,12.46a75.8,75.8,0,0,0-7,9.25c-1.47,3.3-4.13,5.7-6.37,8.42a14.22,14.22,0,0,0-2.69,4.37c-6,17-11.34,34.28-15.7,51.81-2.14,8.55-3.47,17.23-2.49,26.1-.75,1.51-1.65,1.4-2.38.07a31.24,31.24,0,0,1-1.38-3.44,14.75,14.75,0,0,1-1.65-9.21,142.17,142.17,0,0,1,5.15-25.86c2.25-7.66,4.47-15.33,6.78-23,3.27-10.85,7-21.57,11-32.19,7.18-19,15.12-37.72,21.59-57,2.08-6.19,5.07-12,8-17.9,8.4-17,15.9-34.42,22.82-52.09,2.14-5.48,4.76-10.76,6.4-16.45-1.76,4.33-4.49,8.07-7.11,11.87a31.5,31.5,0,0,1-13.49,11.43c-7.5,3-13.81-4.24-13.77-10.09a57,57,0,0,1,4.79-21.88c.8-1.9,1.57-3.81,2.36-5.71.69-.67.42-1.69,1-2.61-.74.22-1.06.8-1.6,1-18.66,24.14-36.5,48.75-47.62,77.54-4.85,12.52-11.38,24.29-17.31,36.32-2.28,4.64-3.52,9.69-6.28,14.14a68.55,68.55,0,0,1-8.8,11.25,4.3,4.3,0,0,0-.57,1.47c-2.54.36-3.26-.05-3.35-2.43-.32-8,0-16,2.18-23.76a22.82,22.82,0,0,0,1-4,44.22,44.22,0,0,1,6.48-18.33c6.46-10.85,11.7-22.36,18.24-33.17,7.77-12.83,14.11-26.42,21-39.72,10.51-20.31,21.81-40.23,31.73-60.85,2.09-4.33,4.39-8.56,6.13-13.06C409.78,31.15,409.69,29.09,407.86,27.24Z" transform="translate(-4 -1.74)"/>
    <path class="cls-3" d="M403.43,269.75c2.8,3,5.87,5.67,9.85,7a1.74,1.74,0,0,1,1.24,2.1,77.07,77.07,0,0,0,.5,12c.76,8.53-1.74,16.18-6.17,23.23-6.07,9.67-13.33,18.53-19.49,28.16-5.71,8.94-11.73,17.68-17.52,26.57-2.53,3.88-6.22,6.57-9.48,9.71-18.07,17.34-37.7,33-54.89,51.29-5.78,6.15-11.68,12.18-17.42,18.37-5.09,5.51-11.2,9.75-17.1,14.28a99.91,99.91,0,0,1-16.12,10.45c-.76.38-2.38.88-1.62,2.27a2.63,2.63,0,0,0,3.75,1.09c.73-.35,1.49-.64,2.25-1,.57.86-.09,1.44-.32,2-8.68,22.71-18.76,44.84-28.12,67.27-13.62,32.63-26.56,65.55-38,99-1.5,4.37-3.3,8.64-5,13H172.94c.41-3.11,2.08-5.76,3.25-8.59q12.41-30,24.19-60.21c7.72-19.81,15.25-39.7,23.74-59.21,2.72-6.26,3.28-13.12,4.93-19.67a170.3,170.3,0,0,1,9.61-28.5,11.63,11.63,0,0,1,6-6c6.79-3.18,11.77-8.43,16.73-14,8.1-9,15.32-18.86,24.4-27,12-10.75,23.94-21.54,36.7-31.39a85.84,85.84,0,0,0,6.64-6c5.44-5.21,11.06-10.24,16.19-15.73,8.23-8.79,16.24-17.78,24.35-26.67,5.77-6.32,10.44-13.44,16-19.82,4.59-5.25,9.35-10.29,12.81-16.38,1.52-2.67,2.94-5.42,4.23-8.21,1.71-3.66,2.43-7.37-.39-10.91-4.27-5.34-1.71-11-.78-16.59C402.17,277.75,403.39,273.84,403.43,269.75Z" transform="translate(-4 -1.74)"/>
    <path class="cls-3" d="M407.86,27.24c2.57.68,2.7,2.61,2.25,4.66a36.15,36.15,0,0,1-3.21,7.78c-15.74,32.7-33.73,64.25-49.93,96.71-4.33,8.67-9.68,16.82-14.34,25.33-4.14,7.55-8,15.26-12.29,22.73a32.87,32.87,0,0,0-4,12.07c-.8,5.73-2.73,11.24-3.34,17-.47,4.46,0,8.89-.19,13.33-.06,1.75,1.31,1.93,2.68,1.89-1.62,2.72-4.25,2.62-6.69,2-3.29-.89-3.67-4.06-4.12-6.78a82.77,82.77,0,0,1,2.85-39.61,326.72,326.72,0,0,1,12.61-32.95c1.31-2.88,2.65-5.76,4-8.61.46-1,.78-1.84.05-2.78,1.34-.95,2.38.24,3.53.53s2.12,1,3.74,1c-1.68-1.08-3.34-1.29-4.72-2.05-.74-.41-2.05-.31-1.91-1.73,1.86,0,3.13-.38,2.09-2.63,1.55-1,2.57.59,3.85.77-.53-1.21-2.64-.72-2.74-2.46,1.6-.09,1.93-1.56,2.55-2.56,8.84-14.09,17.5-28.3,26.46-42.32,6.57-10.28,13.84-20.11,20-30.64a8.44,8.44,0,0,0,1.59-3.7c4.21-3.39,7.13-7.82,10.13-12.23C402.1,37.21,404.69,32.05,407.86,27.24Z" transform="translate(-4 -1.74)"/>
    <path class="cls-3" d="M413.28,127.4c10-6,16.25-15.24,21.24-25.55.31,2.76-.64,5.1-1.6,7.4-8.12,19.6-15.53,39.51-25.11,58.48-7.5,14.85-13.14,30.42-18.72,46.05-4.33,12.12-9.76,23.82-14,36s-8.84,24.16-12,36.66c-2.38,9.3-6.07,18.24-7.81,27.72-.85,4.63-1.86,9.23-2.32,13.93-.33,3.32.5,6.49.92,9.71-5.77-1.49-6.27-6.35-7-11-2.44-15.1-.47-29.81,3.78-44.37,5.33-18.26,12.41-35.86,19.49-53.48,3.94-9.81,7.27-19.87,11.31-29.65a8.24,8.24,0,0,0,.31-2.13,3.82,3.82,0,0,0,.38-2c1-.11,1.36-.83,1.64-1.61,4.67-12.9,11.65-24.74,17.18-37.25,2.18-4.95,5-9.66,7.18-14.63.44-1,1.14-1.93-.24-2.74a12.79,12.79,0,0,1,1.15-1.68,1.77,1.77,0,0,0,1.63-1.2c1.19-2.44,2.41-4.87,3.67-7.27C414.93,127.5,414.24,127.38,413.28,127.4Z" transform="translate(-4 -1.74)"/>
    <path class="cls-3" d="M326.07,48.37c4.54-1.54,7.55-4.84,10-8.75a85.29,85.29,0,0,1,5.7-7.95A22.44,22.44,0,0,0,346.52,22c.11-.57-.13-1.9,1.2-1.65s1.47,1.16,1.23,2.29a41,41,0,0,1-2.38,7.22,408.13,408.13,0,0,1-20.7,42.8c-13.07,23.54-24.6,47.87-35.42,72.55-8.93,20.35-15.15,41.52-21.67,62.64a7.34,7.34,0,0,0-.46,3.47c-.47-1.89-1.37-2.63-3.58-2.26-2.39.4-4-1.11-4.82-3.47-3-8.51-2.87-17.05-1.26-25.86,2.36-12.94,8.65-24,15.07-35.18,3.3-5.72,6.16-11.69,9.24-17.54.4-.76.69-1.48,0-2.25.53-.52,1.67-.45,1.53-1.61a5.75,5.75,0,0,0,1.57-2.49c7.53-15.26,16.12-29.91,24.89-44.48q7.41-12.3,14.55-24.77C326,50.61,327.7,49.66,326.07,48.37Z" transform="translate(-4 -1.74)"/>
    <path class="cls-3" d="M249.67,74.42c4.46-2.48,7.32-6.39,9.59-10.81,1.73-3.37,3.41-6.78,5.27-10.47a4.06,4.06,0,0,1,1.2,4.24,33.16,33.16,0,0,1-1.43,4.1c-7.28,17.41-14.94,34.67-21.78,52.24A416.76,416.76,0,0,0,226.29,167c-1.52,6.25-2.92,12.55-5.35,18.55a18.33,18.33,0,0,0-1.06,3.92c-.25,1.5.62,2.39,2,2.8s1.89-.64,2.38-1.62c.59-1.18.66-2.68,2-3.39a44.06,44.06,0,0,1-2.78,9.05c-.85,2-2.22,3.29-4.64,2.81-3.6-.72-4.35-1.43-4.51-4.66a101.2,101.2,0,0,1,1.14-17.57,256.23,256.23,0,0,1,6.37-33.18,249.39,249.39,0,0,1,14.44-39.46C240.49,95,245.08,86,249.45,76.79,249.79,76.08,250.78,75.31,249.67,74.42Z" transform="translate(-4 -1.74)"/>
    <path class="cls-3" d="M357.59,341.14c-1.94-5.61-1-11.28-.14-16.89,1.88-12.69,6.35-24.7,9.69-37,2.28-8.42,5.46-16.5,8.08-24.78a7.13,7.13,0,0,1,1.28-2.38c2.74-3.25,5.55-6.44,8.34-9.65.19,2.68-1.47,4.88-1.83,7.49-1.27,9.27-3,18.47-4.11,27.77-.61,5.36-1.38,10.71-2.12,16.06-.48,3.39-2.47,6.21-3.9,9.19-3.45,7.17-6.48,14.56-10.51,21.46a6.17,6.17,0,0,0-.82,2.56c-.13,2.25-.06,4.46-3.24,4.58C357.53,339.58,357.79,340.58,357.59,341.14Z" transform="translate(-4 -1.74)"/>
    <path class="cls-4" d="M81.34,467.44l7.53-19.38c.49,3.27.85,5.73,1.22,8.18.11.71.2,1.43.37,2.13a2.54,2.54,0,0,0,2.88,1.95c1.42-.1,1-1.46,1-2.37.06-1.17,0-2.35,0-3.52,1.18,1.63.44,3.46.54,5.2a1.1,1.1,0,0,1-1,1.17c-2.84-.09-2.2,1.92-2.24,3.53-.1,4.58.41,9.2-1.09,13.69-.48,1.44-1.12,2.54-2.76,2.38a2.14,2.14,0,0,1-2.14-2.74c.1-.69.24-1.67-.45-2-3.31-1.67-2.46-4.83-2.77-7.54C82.41,467.08,82.42,466.46,81.34,467.44Z" transform="translate(-4 -1.74)"/>
    <path class="cls-4" d="M136.91,459.72c-2.52,5.53-6.93,6.19-11.3,3.3-1.17-.78-1.34-1.52-.44-2.63,1.94-2.37,3.75-4.85,5.73-7.18,3.69-4.33,7.93-8.14,11.3-12.76,1.08-1.48,3-.9,4.5-.24s1,1.84.64,3c-1.33,4.57-4,8.37-6.69,12.21-1.51-.81-2.69-.42-3.81.82-1.26,1.4-2.68,2.66-4,4-.51.54-1.39,1-.94,2.12C134,462.16,134.64,459.36,136.91,459.72Z" transform="translate(-4 -1.74)"/>
    <path class="cls-4" d="M245.76,225.5c-4-.75-5.65-1.53-4.2-5.61,2.05-5.8,4.07-11.61,6-17.45.78-2.37,2.36-2.72,4.46-2.26,2.35.52,2.75,1.84,2.44,4.21a93,93,0,0,1-3.38,17A5.75,5.75,0,0,1,245.76,225.5Z" transform="translate(-4 -1.74)"/>
    <path class="cls-5" d="M230.73,199.4c-1.4,5.33-2.77,10.66-4.23,16-.43,1.56-.95,3.31-3.16,3s-3.93-1.45-4.07-4a20.2,20.2,0,0,1,1-8.29c1.57-4.25,3-8.55,5.6-12.31,1.68-2.42,4.64-3.51,6.79-2.75,1.08.39,1.49.83.95,2-.65,1.37-1.18,2.79-1.75,4.19a1.63,1.63,0,0,0-2.33.62c-2.4,4-4.64,8.14-5.4,12.88,1.36-3.15,2.94-6.19,4.53-9.23C229.13,200.61,229.24,199.27,230.73,199.4Z" transform="translate(-4 -1.74)"/>
    <path class="cls-5" d="M198.32,190.62c3.09,0,3.77.75,3,3.59-1.9,6.62-4.11,13.13-9,18.23a5.68,5.68,0,0,1-6.41,1.66c-2.73-1-3.32-2.27-1.78-4.69,1.26-2,2.77-3.79,4.13-5.7a100.74,100.74,0,0,0,6.87-11.05C195.82,191.21,196.79,190.36,198.32,190.62Z" transform="translate(-4 -1.74)"/>
    <path class="cls-4" d="M352.7,267.37a93.27,93.27,0,0,1-2.37,12.16c-.55,2.3-2.2,3-4.18,3.15a6.77,6.77,0,0,1-6.11-2.24c-.58-.7-.22-1.53,0-2.33a152,152,0,0,1,6-15.11,4.24,4.24,0,0,1,6.53-1.86c2.54,1.8.47,3.85.24,5.8-.66-.45-1.35-1.12-2,0a83.85,83.85,0,0,1-6.2,10c2.89-1.58,4.29-4.39,5.92-7C351.16,269,351.26,267.62,352.7,267.37Z" transform="translate(-4 -1.74)"/>
    <path class="cls-4" d="M300.49,241.33a64,64,0,0,1,4.45-13.62c.88-1.9,2.69-1.05,4.12-1,1.24.05,1.83.92,1.76,2.25a81.37,81.37,0,0,1-2.73,16.79c-.69,2.61-3.26,3.46-6.26,2.47-2.12-.71-2.78-2.42-2-5.33.65.14,1.33.14,1.7-.47a29.84,29.84,0,0,0,3.35-7.44c-1.18,1.28-1.55,3-2.45,4.4C301.91,240.16,301.82,241.37,300.49,241.33Z" transform="translate(-4 -1.74)"/>
    <path class="cls-4" d="M332.06,263.66a4.72,4.72,0,0,1-2.61.54c-3.19-.09-4.71-2.41-2.74-4.87,3.67-4.55,7.54-9.06,13.58-10.65a12.54,12.54,0,0,1,2.67-.27c.93,0,2.08,0,2.37.92.4,1.19-1,1.31-1.69,1.69-1.26.67-1.92,1.87-2.85,2.82a3.12,3.12,0,0,0-3.26,1.4C335.4,257.86,334,260.9,332.06,263.66Z" transform="translate(-4 -1.74)"/>
    <path class="cls-6" d="M276.35,239.56c-2,1-5.78.54-7-.83a1.82,1.82,0,0,1,.13-2.67c4.55-5.17,8.23-11,12-16.7,1-1.5,2.14-3.09,4.37-2.42,1.61.48,2.64,1.34,1.47,3.16-4.34,2.48-6,7.1-8.71,10.9a30.43,30.43,0,0,0-2.59,5.09C275.51,237.28,275.11,238.5,276.35,239.56Z" transform="translate(-4 -1.74)"/>
    <path class="cls-7" d="M276.35,239.56c-1.43.24-2-.15-1.57-1.74a29.41,29.41,0,0,1,3.63-7.78c1.75-2.92,3.83-5.63,5.74-8.45a3,3,0,0,1,3.2-1.49c.84,1.74-1.42,2-1.57,3.27-3,5.29-6.52,10.31-9.25,15.78A2.54,2.54,0,0,0,276.35,239.56Z" transform="translate(-4 -1.74)"/>
    <path class="cls-8" d="M334.89,137.74c1.81,1.22,3.94,1.67,5.91,2.5.91.38,2.23.81,1.86,1.89s-1.59.21-2.33,0c-2.06-.6-4.06-1.39-6.08-2.11l-7.75-3.27c-.83-.35-1.68-.69-2.49-1.08-1-.48-2.42-1.24-2-2.19.59-1.29,1.92-.06,2.79.26C328.21,135,331.54,136.39,334.89,137.74Z" transform="translate(-4 -1.74)"/>
    <path class="cls-9" d="M382.07,195.12c.29.61,1.33.83,1,1.69-.23.63-.94.16-1.41.31l-18-9.46c-1-.54-2.17-.93-2.66-2.42,1.38-.52,2.43.29,3.45.81C370.34,189,376.2,192.09,382.07,195.12Z" transform="translate(-4 -1.74)"/>
    <path class="cls-10" d="M230.73,199.4a49,49,0,0,0-5.47,11.11c-.23.67-.14,1.87-1.4,1.4-1-.38-.76-1.26-.54-2.08a50.48,50.48,0,0,1,6.12-13.22c1.05-1.68,2-1.24,2.44.57C231.49,197.92,231.11,198.66,230.73,199.4Z" transform="translate(-4 -1.74)"/>
    <path class="cls-11" d="M352.7,267.37c-1.87,3.08-3.24,6.49-5.8,9.13a11.07,11.07,0,0,1-1.86,1.56c-.53.34-1.05,0-1.46-.4s-.28-.93.16-1.35c3-2.79,4.53-6.51,6.62-9.89.34-.55.55-1.45,1.54-1.23s.83,1.05.93,1.75A.54.54,0,0,0,352.7,267.37Z" transform="translate(-4 -1.74)"/>
    <path class="cls-9" d="M284.55,123.14c.32.58,1.36,1.06.88,1.72-.65.9-1.57-.41-2.41-.11-4.82-1.33-9.27-4.06-14.52-3.85a1.41,1.41,0,0,1-1.52-1.55c.12-1,1.1-.74,1.78-.72,2.66.07,5.08,1.1,7.57,1.89Z" transform="translate(-4 -1.74)"/>
    <path class="cls-12" d="M136.91,459.72c-1.16,1-2.35,1.95-3.44,3a1.64,1.64,0,0,1-2.59,0c-.9-.9.11-1.44.59-2,1.78-1.91,3.68-3.71,5.42-5.65,1.46-1.64,2.64-1.65,3.76.28Z" transform="translate(-4 -1.74)"/>
    <path class="cls-13" d="M409,137.21c1,1.5.12,1.73-1.15,1.68-3.72-1.42-7-3.79-11-4.74a4.23,4.23,0,0,1-1.55-1.05,1,1,0,0,1-.39-1.19,1,1,0,0,1,1.2-.41,14.32,14.32,0,0,1,4.83,1.76A50.26,50.26,0,0,0,409,137.21Z" transform="translate(-4 -1.74)"/>
    <path class="cls-9" d="M338.09,133.42c1.21,1.16,3.53.91,4.05,3.15-2.07.42-3.39-1.34-5.16-1.46-3.16-1.28-6.32-2.53-9.46-3.85-.78-.33-2-.72-1.61-1.74s1.43-.2,2.17,0C331.59,130.35,334.74,132.14,338.09,133.42Z" transform="translate(-4 -1.74)"/>
    <path class="cls-14" d="M213.35,139.54a60.83,60.83,0,0,0-12.68-.72c-1,0-1.93-.5-1.94-1.5,0-1.18,1.22-.9,1.9-.91a36.18,36.18,0,0,1,10.52,1A2.57,2.57,0,0,1,213.35,139.54Z" transform="translate(-4 -1.74)"/>
    <path class="cls-14" d="M214.87,134.75c-2.18-.31-4.23-.54-6.25-.9a11.82,11.82,0,0,0-5.64.2c-1,.32-2.15.55-2.46-.69s.95-1.48,1.9-1.79a8.51,8.51,0,0,1,4-.28c2,.32,4.07.82,6.08,1.33A2.65,2.65,0,0,1,214.87,134.75Z" transform="translate(-4 -1.74)"/>
    <path class="cls-15" d="M332.06,263.66c.92-4.11,3.64-7.15,6.18-10.27.86-1,1.9-.88,2.55.45a71.63,71.63,0,0,0-6.47,9C333.71,263.86,333.22,264.51,332.06,263.66Z" transform="translate(-4 -1.74)"/>
    <path class="cls-16" d="M316.75,59.24a31.5,31.5,0,0,0-9.28-2.17,5.09,5.09,0,0,1-1.81-.53c-.65-.32-1.35-.84-1.19-1.63.19-1,1.18-.72,1.81-.63C310.28,54.87,314.13,55.82,316.75,59.24Z" transform="translate(-4 -1.74)"/>
    <path class="cls-17" d="M276.53,239.15c1.75-6,5.42-11,9.25-15.78A44.44,44.44,0,0,1,276.53,239.15Z" transform="translate(-4 -1.74)"/>
    <path class="cls-18" d="M300.49,241.33c1.49-2,2.2-4.29,3.23-6.47.32-.68.71-1.72,1.7-1.23s.58,1.42.22,2.17c-1.19,2.42-2.35,4.85-3.64,7.22-.68,1.23-1.56,1.62-2.2-.12Z" transform="translate(-4 -1.74)"/>
    <path class="cls-19" d="M377.52,62.5c-3.7-1.65-7.37-3-11.4-3.21A1.31,1.31,0,0,1,365,57.94c0-.61.58-.88,1.18-.82C370.56,57.6,374.51,59.08,377.52,62.5Z" transform="translate(-4 -1.74)"/>
    <path class="cls-20" d="M383.61,189c-1.35.74-2.16.07-3-.38-2.86-1.54-5.46-3.52-8.45-4.85-.69-.31-1.68-.86-1.22-1.79s1.31-.22,1.9.06C376.74,183.87,379.81,186.94,383.61,189Z" transform="translate(-4 -1.74)"/>
    <path class="cls-21" d="M240.82,89.72c-3.43-.63-6.59-2.31-10.18-2.18a1.24,1.24,0,0,1-1.41-1.31c.07-1,1-1,1.69-.86A18.09,18.09,0,0,1,240.82,89.72Z" transform="translate(-4 -1.74)"/>
    <path class="cls-22" d="M276.56,128.45c-2.63-.49-5.25-1-7.88-1.46-.55-.11-1.13-.4-1.11-1s.64-.82,1.21-.78A11.69,11.69,0,0,1,276.56,128.45Z" transform="translate(-4 -1.74)"/>
    <path class="cls-23" d="M178,184.21a7.86,7.86,0,0,1,1.17.71c.33.29.18.65-.08,1l-3,3.51c-.46.54-1,.83-1.63.31s-.21-1.11.1-1.63A10.53,10.53,0,0,1,178,184.21Z" transform="translate(-4 -1.74)"/>
    <path class="cls-24" d="M361.78,194.74a15.87,15.87,0,0,1,7.46,5C366.38,198.6,363.55,197.46,361.78,194.74Z" transform="translate(-4 -1.74)"/>
    <path class="cls-25" d="M396,138c2.48.7,4.74,1.74,6.27,4C399.72,141.48,397.44,140.48,396,138Z" transform="translate(-4 -1.74)"/>
    <path class="cls-26" d="M310.87,61.65c-2.56-.43-4.75-.18-5.91-2.9C307.19,59.16,309.26,59.1,310.87,61.65Z" transform="translate(-4 -1.74)"/>
    <path class="cls-27" d="M226,89.75c2.27.8,4,1,5.27,2.52C229.36,92.39,227.44,92.51,226,89.75Z" transform="translate(-4 -1.74)"/>
    <path class="cls-28" d="M411,228.73a3.9,3.9,0,0,1,3.17-.85l-3.57,4.81C410.4,231.33,412.07,230.17,411,228.73Z" transform="translate(-4 -1.74)"/>
    <path class="cls-29" d="M328.26,142.87c.48,0,.68-.09.81,0,1.05.53,2.69.21,2.93,1.93,0,.16-.35.56-.42.54C330.31,144.84,328.67,144.87,328.26,142.87Z" transform="translate(-4 -1.74)"/>
    <path class="cls-30" d="M406.09,88.06c.38-1.28,1.44-1.84,2.54-2.43-.33,1.56-.65,3.07-2,4.09C406.69,89.09,406.94,88.38,406.09,88.06Z" transform="translate(-4 -1.74)"/>
    <path class="cls-31" d="M202.75,141.77c1.13-.39,2.12-.43,2.75.76a.69.69,0,0,1-.31.59C204,143.38,203.06,143.21,202.75,141.77Z" transform="translate(-4 -1.74)"/>
    <path class="cls-1" d="M404.71,21.68a8.76,8.76,0,0,1-1,4.82c-4.92,7.8-9.18,16-15.23,23.07a31.8,31.8,0,0,1-4.39,4,3.86,3.86,0,0,1-5.59-.21c-8.38-8.08-10.72-12-5.4-23.41,3.12-6.7,7.42-12.84,10.33-19.71C384.63,7.54,387,7,390,7.34c7,.88,10.28,6.24,14.11,11C404.89,19.38,404.66,20.77,404.71,21.68Z" transform="translate(-4 -1.74)"/>
    <path class="cls-1" d="M320.23,47.26a10.2,10.2,0,0,1-10.2-12c1.18-5.92,4.27-11.12,6.38-16.69a114,114,0,0,1,4.83-10.33c2-4,5.47-5.41,9.68-4s8.21,2.94,11.34,6.19a5.51,5.51,0,0,1,1,6.94c-3.78,7.43-7.87,14.69-12.12,21.85-2.2,3.71-5,6.7-9.37,7.71C321.16,47.1,320.54,47.2,320.23,47.26Z" transform="translate(-4 -1.74)"/>
    <path class="cls-1" d="M237.18,65.91a28.5,28.5,0,0,1,3-12.3c2.05-4.08,3.76-8.37,7.26-11.65,2.27-2.13,4.61-3.09,7.61-2.57a12.72,12.72,0,0,1,2.1.55c7.16,2.49,7.63,4.05,4.47,10.11-2.55,4.91-5,9.86-8,14.54A30.91,30.91,0,0,1,249.13,70a7.2,7.2,0,0,1-8,1.92A5.87,5.87,0,0,1,237.18,65.91Z" transform="translate(-4 -1.74)"/>
    <path class="cls-1" d="M403.41,116.45c.11-10.37,4-19,8.13-27.63a2.84,2.84,0,0,1,2.58-1.71c6.38-.26,12,1.51,16.32,6.47A3.11,3.11,0,0,1,431.1,97a56.12,56.12,0,0,1-20,28,2.7,2.7,0,0,1-3.87-.07C404.43,122.55,402.77,119.71,403.41,116.45Z" transform="translate(-4 -1.74)"/>
    <path class="cls-1" d="M410.43,272.49c-3.22-2.29-5.06-5.61-6.75-9.05-1-2-.44-4.11,0-6.12,2.32-10.12,7.19-19.11,12.71-27.76,2.3-3.61,6.66-4.08,10.18-1.61,1.31.92.72,1.84.44,2.85-2.72,9.7-6.61,19-10.09,28.42a55.23,55.23,0,0,0-3.2,12C413.26,273.36,411.89,273.05,410.43,272.49Z" transform="translate(-4 -1.74)"/>
    <path class="cls-32" d="M410.43,272.49c1.23-.08,2.59.23,3.31-1.22.06,1.05.26,2.47-.79,2.81C412.06,274.37,411,273.52,410.43,272.49Z" transform="translate(-4 -1.74)"/>
    <path class="cls-2" d="M412.72,302.3c-2.82-.23-5.14-1.67-7.53-2.91-.27-.14-.62-.53-.29-.87a1.14,1.14,0,0,1,.93-.32A12.66,12.66,0,0,1,412.72,302.3Z" transform="translate(-4 -1.74)"/>
    <path class="cls-33" d="M410.39,307.58a6,6,0,0,1-5-2.2C407.49,304.78,408.86,305.37,410.39,307.58Z" transform="translate(-4 -1.74)"/>
    <path class="cls-34" d="M246,215c-.92-.19-1.39-.68-.76-1.66,1-1.51,1.94-3,3-4.48a1.09,1.09,0,0,1,1.37-.55,1.16,1.16,0,0,1,.78,1C250.4,210.13,246.89,214.84,246,215Z" transform="translate(-4 -1.74)"/>
    <path class="cls-35" d="M199,197.49c-.17.31-.31.64-.51.94a51.33,51.33,0,0,1-8.66,10c-.64.57-1.4,1.15-2.13.43-1-1,.3-1.4.74-1.85a87.61,87.61,0,0,0,7.9-9.62c.38-.52.67-1.42,1.65-1C198.52,196.56,199,196.82,199,197.49Z" transform="translate(-4 -1.74)"/>
  </g>
</svg>
